%TF.GenerationSoftware,KiCad,Pcbnew,8.0.9*%
%TF.CreationDate,2026-07-09T20:50:47+05:30*%
%TF.ProjectId,HackPad1,4861636b-5061-4643-912e-6b696361645f,rev?*%
%TF.SameCoordinates,Original*%
%TF.FileFunction,Legend,Top*%
%TF.FilePolarity,Positive*%
%FSLAX46Y46*%
G04 Gerber Fmt 4.6, Leading zero omitted, Abs format (unit mm)*
G04 Created by KiCad (PCBNEW 8.0.9) date 2026-07-09 20:50:47*
%MOMM*%
%LPD*%
G01*
G04 APERTURE LIST*
%ADD10C,0.150000*%
%ADD11C,0.101600*%
%ADD12C,0.120000*%
%ADD13C,0.127000*%
%ADD14C,0.254000*%
%ADD15C,0.025400*%
%ADD16C,0.000000*%
G04 APERTURE END LIST*
D10*
X88715476Y-75407200D02*
X88858333Y-75454819D01*
X88858333Y-75454819D02*
X89096428Y-75454819D01*
X89096428Y-75454819D02*
X89191666Y-75407200D01*
X89191666Y-75407200D02*
X89239285Y-75359580D01*
X89239285Y-75359580D02*
X89286904Y-75264342D01*
X89286904Y-75264342D02*
X89286904Y-75169104D01*
X89286904Y-75169104D02*
X89239285Y-75073866D01*
X89239285Y-75073866D02*
X89191666Y-75026247D01*
X89191666Y-75026247D02*
X89096428Y-74978628D01*
X89096428Y-74978628D02*
X88905952Y-74931009D01*
X88905952Y-74931009D02*
X88810714Y-74883390D01*
X88810714Y-74883390D02*
X88763095Y-74835771D01*
X88763095Y-74835771D02*
X88715476Y-74740533D01*
X88715476Y-74740533D02*
X88715476Y-74645295D01*
X88715476Y-74645295D02*
X88763095Y-74550057D01*
X88763095Y-74550057D02*
X88810714Y-74502438D01*
X88810714Y-74502438D02*
X88905952Y-74454819D01*
X88905952Y-74454819D02*
X89144047Y-74454819D01*
X89144047Y-74454819D02*
X89286904Y-74502438D01*
X89620238Y-74454819D02*
X89858333Y-75454819D01*
X89858333Y-75454819D02*
X90048809Y-74740533D01*
X90048809Y-74740533D02*
X90239285Y-75454819D01*
X90239285Y-75454819D02*
X90477381Y-74454819D01*
X91382142Y-75454819D02*
X90810714Y-75454819D01*
X91096428Y-75454819D02*
X91096428Y-74454819D01*
X91096428Y-74454819D02*
X91001190Y-74597676D01*
X91001190Y-74597676D02*
X90905952Y-74692914D01*
X90905952Y-74692914D02*
X90810714Y-74740533D01*
X92001190Y-74454819D02*
X92096428Y-74454819D01*
X92096428Y-74454819D02*
X92191666Y-74502438D01*
X92191666Y-74502438D02*
X92239285Y-74550057D01*
X92239285Y-74550057D02*
X92286904Y-74645295D01*
X92286904Y-74645295D02*
X92334523Y-74835771D01*
X92334523Y-74835771D02*
X92334523Y-75073866D01*
X92334523Y-75073866D02*
X92286904Y-75264342D01*
X92286904Y-75264342D02*
X92239285Y-75359580D01*
X92239285Y-75359580D02*
X92191666Y-75407200D01*
X92191666Y-75407200D02*
X92096428Y-75454819D01*
X92096428Y-75454819D02*
X92001190Y-75454819D01*
X92001190Y-75454819D02*
X91905952Y-75407200D01*
X91905952Y-75407200D02*
X91858333Y-75359580D01*
X91858333Y-75359580D02*
X91810714Y-75264342D01*
X91810714Y-75264342D02*
X91763095Y-75073866D01*
X91763095Y-75073866D02*
X91763095Y-74835771D01*
X91763095Y-74835771D02*
X91810714Y-74645295D01*
X91810714Y-74645295D02*
X91858333Y-74550057D01*
X91858333Y-74550057D02*
X91905952Y-74502438D01*
X91905952Y-74502438D02*
X92001190Y-74454819D01*
X108407200Y-106333332D02*
X108454819Y-106190475D01*
X108454819Y-106190475D02*
X108454819Y-105952380D01*
X108454819Y-105952380D02*
X108407200Y-105857142D01*
X108407200Y-105857142D02*
X108359580Y-105809523D01*
X108359580Y-105809523D02*
X108264342Y-105761904D01*
X108264342Y-105761904D02*
X108169104Y-105761904D01*
X108169104Y-105761904D02*
X108073866Y-105809523D01*
X108073866Y-105809523D02*
X108026247Y-105857142D01*
X108026247Y-105857142D02*
X107978628Y-105952380D01*
X107978628Y-105952380D02*
X107931009Y-106142856D01*
X107931009Y-106142856D02*
X107883390Y-106238094D01*
X107883390Y-106238094D02*
X107835771Y-106285713D01*
X107835771Y-106285713D02*
X107740533Y-106333332D01*
X107740533Y-106333332D02*
X107645295Y-106333332D01*
X107645295Y-106333332D02*
X107550057Y-106285713D01*
X107550057Y-106285713D02*
X107502438Y-106238094D01*
X107502438Y-106238094D02*
X107454819Y-106142856D01*
X107454819Y-106142856D02*
X107454819Y-105904761D01*
X107454819Y-105904761D02*
X107502438Y-105761904D01*
X107454819Y-105428570D02*
X108454819Y-105190475D01*
X108454819Y-105190475D02*
X107740533Y-104999999D01*
X107740533Y-104999999D02*
X108454819Y-104809523D01*
X108454819Y-104809523D02*
X107454819Y-104571428D01*
X107550057Y-104238094D02*
X107502438Y-104190475D01*
X107502438Y-104190475D02*
X107454819Y-104095237D01*
X107454819Y-104095237D02*
X107454819Y-103857142D01*
X107454819Y-103857142D02*
X107502438Y-103761904D01*
X107502438Y-103761904D02*
X107550057Y-103714285D01*
X107550057Y-103714285D02*
X107645295Y-103666666D01*
X107645295Y-103666666D02*
X107740533Y-103666666D01*
X107740533Y-103666666D02*
X107883390Y-103714285D01*
X107883390Y-103714285D02*
X108454819Y-104285713D01*
X108454819Y-104285713D02*
X108454819Y-103666666D01*
X89407200Y-106333332D02*
X89454819Y-106190475D01*
X89454819Y-106190475D02*
X89454819Y-105952380D01*
X89454819Y-105952380D02*
X89407200Y-105857142D01*
X89407200Y-105857142D02*
X89359580Y-105809523D01*
X89359580Y-105809523D02*
X89264342Y-105761904D01*
X89264342Y-105761904D02*
X89169104Y-105761904D01*
X89169104Y-105761904D02*
X89073866Y-105809523D01*
X89073866Y-105809523D02*
X89026247Y-105857142D01*
X89026247Y-105857142D02*
X88978628Y-105952380D01*
X88978628Y-105952380D02*
X88931009Y-106142856D01*
X88931009Y-106142856D02*
X88883390Y-106238094D01*
X88883390Y-106238094D02*
X88835771Y-106285713D01*
X88835771Y-106285713D02*
X88740533Y-106333332D01*
X88740533Y-106333332D02*
X88645295Y-106333332D01*
X88645295Y-106333332D02*
X88550057Y-106285713D01*
X88550057Y-106285713D02*
X88502438Y-106238094D01*
X88502438Y-106238094D02*
X88454819Y-106142856D01*
X88454819Y-106142856D02*
X88454819Y-105904761D01*
X88454819Y-105904761D02*
X88502438Y-105761904D01*
X88454819Y-105428570D02*
X89454819Y-105190475D01*
X89454819Y-105190475D02*
X88740533Y-104999999D01*
X88740533Y-104999999D02*
X89454819Y-104809523D01*
X89454819Y-104809523D02*
X88454819Y-104571428D01*
X89454819Y-103666666D02*
X89454819Y-104238094D01*
X89454819Y-103952380D02*
X88454819Y-103952380D01*
X88454819Y-103952380D02*
X88597676Y-104047618D01*
X88597676Y-104047618D02*
X88692914Y-104142856D01*
X88692914Y-104142856D02*
X88740533Y-104238094D01*
X89407200Y-124333332D02*
X89454819Y-124190475D01*
X89454819Y-124190475D02*
X89454819Y-123952380D01*
X89454819Y-123952380D02*
X89407200Y-123857142D01*
X89407200Y-123857142D02*
X89359580Y-123809523D01*
X89359580Y-123809523D02*
X89264342Y-123761904D01*
X89264342Y-123761904D02*
X89169104Y-123761904D01*
X89169104Y-123761904D02*
X89073866Y-123809523D01*
X89073866Y-123809523D02*
X89026247Y-123857142D01*
X89026247Y-123857142D02*
X88978628Y-123952380D01*
X88978628Y-123952380D02*
X88931009Y-124142856D01*
X88931009Y-124142856D02*
X88883390Y-124238094D01*
X88883390Y-124238094D02*
X88835771Y-124285713D01*
X88835771Y-124285713D02*
X88740533Y-124333332D01*
X88740533Y-124333332D02*
X88645295Y-124333332D01*
X88645295Y-124333332D02*
X88550057Y-124285713D01*
X88550057Y-124285713D02*
X88502438Y-124238094D01*
X88502438Y-124238094D02*
X88454819Y-124142856D01*
X88454819Y-124142856D02*
X88454819Y-123904761D01*
X88454819Y-123904761D02*
X88502438Y-123761904D01*
X88454819Y-123428570D02*
X89454819Y-123190475D01*
X89454819Y-123190475D02*
X88740533Y-122999999D01*
X88740533Y-122999999D02*
X89454819Y-122809523D01*
X89454819Y-122809523D02*
X88454819Y-122571428D01*
X88788152Y-121761904D02*
X89454819Y-121761904D01*
X88407200Y-121999999D02*
X89121485Y-122238094D01*
X89121485Y-122238094D02*
X89121485Y-121619047D01*
X107691666Y-76884819D02*
X107691666Y-77599104D01*
X107691666Y-77599104D02*
X107644047Y-77741961D01*
X107644047Y-77741961D02*
X107548809Y-77837200D01*
X107548809Y-77837200D02*
X107405952Y-77884819D01*
X107405952Y-77884819D02*
X107310714Y-77884819D01*
X108691666Y-77884819D02*
X108120238Y-77884819D01*
X108405952Y-77884819D02*
X108405952Y-76884819D01*
X108405952Y-76884819D02*
X108310714Y-77027676D01*
X108310714Y-77027676D02*
X108215476Y-77122914D01*
X108215476Y-77122914D02*
X108120238Y-77170533D01*
X128407200Y-124333332D02*
X128454819Y-124190475D01*
X128454819Y-124190475D02*
X128454819Y-123952380D01*
X128454819Y-123952380D02*
X128407200Y-123857142D01*
X128407200Y-123857142D02*
X128359580Y-123809523D01*
X128359580Y-123809523D02*
X128264342Y-123761904D01*
X128264342Y-123761904D02*
X128169104Y-123761904D01*
X128169104Y-123761904D02*
X128073866Y-123809523D01*
X128073866Y-123809523D02*
X128026247Y-123857142D01*
X128026247Y-123857142D02*
X127978628Y-123952380D01*
X127978628Y-123952380D02*
X127931009Y-124142856D01*
X127931009Y-124142856D02*
X127883390Y-124238094D01*
X127883390Y-124238094D02*
X127835771Y-124285713D01*
X127835771Y-124285713D02*
X127740533Y-124333332D01*
X127740533Y-124333332D02*
X127645295Y-124333332D01*
X127645295Y-124333332D02*
X127550057Y-124285713D01*
X127550057Y-124285713D02*
X127502438Y-124238094D01*
X127502438Y-124238094D02*
X127454819Y-124142856D01*
X127454819Y-124142856D02*
X127454819Y-123904761D01*
X127454819Y-123904761D02*
X127502438Y-123761904D01*
X127454819Y-123428570D02*
X128454819Y-123190475D01*
X128454819Y-123190475D02*
X127740533Y-122999999D01*
X127740533Y-122999999D02*
X128454819Y-122809523D01*
X128454819Y-122809523D02*
X127454819Y-122571428D01*
X127454819Y-121761904D02*
X127454819Y-121952380D01*
X127454819Y-121952380D02*
X127502438Y-122047618D01*
X127502438Y-122047618D02*
X127550057Y-122095237D01*
X127550057Y-122095237D02*
X127692914Y-122190475D01*
X127692914Y-122190475D02*
X127883390Y-122238094D01*
X127883390Y-122238094D02*
X128264342Y-122238094D01*
X128264342Y-122238094D02*
X128359580Y-122190475D01*
X128359580Y-122190475D02*
X128407200Y-122142856D01*
X128407200Y-122142856D02*
X128454819Y-122047618D01*
X128454819Y-122047618D02*
X128454819Y-121857142D01*
X128454819Y-121857142D02*
X128407200Y-121761904D01*
X128407200Y-121761904D02*
X128359580Y-121714285D01*
X128359580Y-121714285D02*
X128264342Y-121666666D01*
X128264342Y-121666666D02*
X128026247Y-121666666D01*
X128026247Y-121666666D02*
X127931009Y-121714285D01*
X127931009Y-121714285D02*
X127883390Y-121761904D01*
X127883390Y-121761904D02*
X127835771Y-121857142D01*
X127835771Y-121857142D02*
X127835771Y-122047618D01*
X127835771Y-122047618D02*
X127883390Y-122142856D01*
X127883390Y-122142856D02*
X127931009Y-122190475D01*
X127931009Y-122190475D02*
X128026247Y-122238094D01*
X127407200Y-106333332D02*
X127454819Y-106190475D01*
X127454819Y-106190475D02*
X127454819Y-105952380D01*
X127454819Y-105952380D02*
X127407200Y-105857142D01*
X127407200Y-105857142D02*
X127359580Y-105809523D01*
X127359580Y-105809523D02*
X127264342Y-105761904D01*
X127264342Y-105761904D02*
X127169104Y-105761904D01*
X127169104Y-105761904D02*
X127073866Y-105809523D01*
X127073866Y-105809523D02*
X127026247Y-105857142D01*
X127026247Y-105857142D02*
X126978628Y-105952380D01*
X126978628Y-105952380D02*
X126931009Y-106142856D01*
X126931009Y-106142856D02*
X126883390Y-106238094D01*
X126883390Y-106238094D02*
X126835771Y-106285713D01*
X126835771Y-106285713D02*
X126740533Y-106333332D01*
X126740533Y-106333332D02*
X126645295Y-106333332D01*
X126645295Y-106333332D02*
X126550057Y-106285713D01*
X126550057Y-106285713D02*
X126502438Y-106238094D01*
X126502438Y-106238094D02*
X126454819Y-106142856D01*
X126454819Y-106142856D02*
X126454819Y-105904761D01*
X126454819Y-105904761D02*
X126502438Y-105761904D01*
X126454819Y-105428570D02*
X127454819Y-105190475D01*
X127454819Y-105190475D02*
X126740533Y-104999999D01*
X126740533Y-104999999D02*
X127454819Y-104809523D01*
X127454819Y-104809523D02*
X126454819Y-104571428D01*
X126454819Y-104285713D02*
X126454819Y-103666666D01*
X126454819Y-103666666D02*
X126835771Y-103999999D01*
X126835771Y-103999999D02*
X126835771Y-103857142D01*
X126835771Y-103857142D02*
X126883390Y-103761904D01*
X126883390Y-103761904D02*
X126931009Y-103714285D01*
X126931009Y-103714285D02*
X127026247Y-103666666D01*
X127026247Y-103666666D02*
X127264342Y-103666666D01*
X127264342Y-103666666D02*
X127359580Y-103714285D01*
X127359580Y-103714285D02*
X127407200Y-103761904D01*
X127407200Y-103761904D02*
X127454819Y-103857142D01*
X127454819Y-103857142D02*
X127454819Y-104142856D01*
X127454819Y-104142856D02*
X127407200Y-104238094D01*
X127407200Y-104238094D02*
X127359580Y-104285713D01*
X108407200Y-124333332D02*
X108454819Y-124190475D01*
X108454819Y-124190475D02*
X108454819Y-123952380D01*
X108454819Y-123952380D02*
X108407200Y-123857142D01*
X108407200Y-123857142D02*
X108359580Y-123809523D01*
X108359580Y-123809523D02*
X108264342Y-123761904D01*
X108264342Y-123761904D02*
X108169104Y-123761904D01*
X108169104Y-123761904D02*
X108073866Y-123809523D01*
X108073866Y-123809523D02*
X108026247Y-123857142D01*
X108026247Y-123857142D02*
X107978628Y-123952380D01*
X107978628Y-123952380D02*
X107931009Y-124142856D01*
X107931009Y-124142856D02*
X107883390Y-124238094D01*
X107883390Y-124238094D02*
X107835771Y-124285713D01*
X107835771Y-124285713D02*
X107740533Y-124333332D01*
X107740533Y-124333332D02*
X107645295Y-124333332D01*
X107645295Y-124333332D02*
X107550057Y-124285713D01*
X107550057Y-124285713D02*
X107502438Y-124238094D01*
X107502438Y-124238094D02*
X107454819Y-124142856D01*
X107454819Y-124142856D02*
X107454819Y-123904761D01*
X107454819Y-123904761D02*
X107502438Y-123761904D01*
X107454819Y-123428570D02*
X108454819Y-123190475D01*
X108454819Y-123190475D02*
X107740533Y-122999999D01*
X107740533Y-122999999D02*
X108454819Y-122809523D01*
X108454819Y-122809523D02*
X107454819Y-122571428D01*
X107454819Y-121714285D02*
X107454819Y-122190475D01*
X107454819Y-122190475D02*
X107931009Y-122238094D01*
X107931009Y-122238094D02*
X107883390Y-122190475D01*
X107883390Y-122190475D02*
X107835771Y-122095237D01*
X107835771Y-122095237D02*
X107835771Y-121857142D01*
X107835771Y-121857142D02*
X107883390Y-121761904D01*
X107883390Y-121761904D02*
X107931009Y-121714285D01*
X107931009Y-121714285D02*
X108026247Y-121666666D01*
X108026247Y-121666666D02*
X108264342Y-121666666D01*
X108264342Y-121666666D02*
X108359580Y-121714285D01*
X108359580Y-121714285D02*
X108407200Y-121761904D01*
X108407200Y-121761904D02*
X108454819Y-121857142D01*
X108454819Y-121857142D02*
X108454819Y-122095237D01*
X108454819Y-122095237D02*
X108407200Y-122190475D01*
X108407200Y-122190475D02*
X108359580Y-122238094D01*
X127407200Y-144333332D02*
X127454819Y-144190475D01*
X127454819Y-144190475D02*
X127454819Y-143952380D01*
X127454819Y-143952380D02*
X127407200Y-143857142D01*
X127407200Y-143857142D02*
X127359580Y-143809523D01*
X127359580Y-143809523D02*
X127264342Y-143761904D01*
X127264342Y-143761904D02*
X127169104Y-143761904D01*
X127169104Y-143761904D02*
X127073866Y-143809523D01*
X127073866Y-143809523D02*
X127026247Y-143857142D01*
X127026247Y-143857142D02*
X126978628Y-143952380D01*
X126978628Y-143952380D02*
X126931009Y-144142856D01*
X126931009Y-144142856D02*
X126883390Y-144238094D01*
X126883390Y-144238094D02*
X126835771Y-144285713D01*
X126835771Y-144285713D02*
X126740533Y-144333332D01*
X126740533Y-144333332D02*
X126645295Y-144333332D01*
X126645295Y-144333332D02*
X126550057Y-144285713D01*
X126550057Y-144285713D02*
X126502438Y-144238094D01*
X126502438Y-144238094D02*
X126454819Y-144142856D01*
X126454819Y-144142856D02*
X126454819Y-143904761D01*
X126454819Y-143904761D02*
X126502438Y-143761904D01*
X126454819Y-143428570D02*
X127454819Y-143190475D01*
X127454819Y-143190475D02*
X126740533Y-142999999D01*
X126740533Y-142999999D02*
X127454819Y-142809523D01*
X127454819Y-142809523D02*
X126454819Y-142571428D01*
X127454819Y-142142856D02*
X127454819Y-141952380D01*
X127454819Y-141952380D02*
X127407200Y-141857142D01*
X127407200Y-141857142D02*
X127359580Y-141809523D01*
X127359580Y-141809523D02*
X127216723Y-141714285D01*
X127216723Y-141714285D02*
X127026247Y-141666666D01*
X127026247Y-141666666D02*
X126645295Y-141666666D01*
X126645295Y-141666666D02*
X126550057Y-141714285D01*
X126550057Y-141714285D02*
X126502438Y-141761904D01*
X126502438Y-141761904D02*
X126454819Y-141857142D01*
X126454819Y-141857142D02*
X126454819Y-142047618D01*
X126454819Y-142047618D02*
X126502438Y-142142856D01*
X126502438Y-142142856D02*
X126550057Y-142190475D01*
X126550057Y-142190475D02*
X126645295Y-142238094D01*
X126645295Y-142238094D02*
X126883390Y-142238094D01*
X126883390Y-142238094D02*
X126978628Y-142190475D01*
X126978628Y-142190475D02*
X127026247Y-142142856D01*
X127026247Y-142142856D02*
X127073866Y-142047618D01*
X127073866Y-142047618D02*
X127073866Y-141857142D01*
X127073866Y-141857142D02*
X127026247Y-141761904D01*
X127026247Y-141761904D02*
X126978628Y-141714285D01*
X126978628Y-141714285D02*
X126883390Y-141666666D01*
X108407200Y-144333332D02*
X108454819Y-144190475D01*
X108454819Y-144190475D02*
X108454819Y-143952380D01*
X108454819Y-143952380D02*
X108407200Y-143857142D01*
X108407200Y-143857142D02*
X108359580Y-143809523D01*
X108359580Y-143809523D02*
X108264342Y-143761904D01*
X108264342Y-143761904D02*
X108169104Y-143761904D01*
X108169104Y-143761904D02*
X108073866Y-143809523D01*
X108073866Y-143809523D02*
X108026247Y-143857142D01*
X108026247Y-143857142D02*
X107978628Y-143952380D01*
X107978628Y-143952380D02*
X107931009Y-144142856D01*
X107931009Y-144142856D02*
X107883390Y-144238094D01*
X107883390Y-144238094D02*
X107835771Y-144285713D01*
X107835771Y-144285713D02*
X107740533Y-144333332D01*
X107740533Y-144333332D02*
X107645295Y-144333332D01*
X107645295Y-144333332D02*
X107550057Y-144285713D01*
X107550057Y-144285713D02*
X107502438Y-144238094D01*
X107502438Y-144238094D02*
X107454819Y-144142856D01*
X107454819Y-144142856D02*
X107454819Y-143904761D01*
X107454819Y-143904761D02*
X107502438Y-143761904D01*
X107454819Y-143428570D02*
X108454819Y-143190475D01*
X108454819Y-143190475D02*
X107740533Y-142999999D01*
X107740533Y-142999999D02*
X108454819Y-142809523D01*
X108454819Y-142809523D02*
X107454819Y-142571428D01*
X107883390Y-142047618D02*
X107835771Y-142142856D01*
X107835771Y-142142856D02*
X107788152Y-142190475D01*
X107788152Y-142190475D02*
X107692914Y-142238094D01*
X107692914Y-142238094D02*
X107645295Y-142238094D01*
X107645295Y-142238094D02*
X107550057Y-142190475D01*
X107550057Y-142190475D02*
X107502438Y-142142856D01*
X107502438Y-142142856D02*
X107454819Y-142047618D01*
X107454819Y-142047618D02*
X107454819Y-141857142D01*
X107454819Y-141857142D02*
X107502438Y-141761904D01*
X107502438Y-141761904D02*
X107550057Y-141714285D01*
X107550057Y-141714285D02*
X107645295Y-141666666D01*
X107645295Y-141666666D02*
X107692914Y-141666666D01*
X107692914Y-141666666D02*
X107788152Y-141714285D01*
X107788152Y-141714285D02*
X107835771Y-141761904D01*
X107835771Y-141761904D02*
X107883390Y-141857142D01*
X107883390Y-141857142D02*
X107883390Y-142047618D01*
X107883390Y-142047618D02*
X107931009Y-142142856D01*
X107931009Y-142142856D02*
X107978628Y-142190475D01*
X107978628Y-142190475D02*
X108073866Y-142238094D01*
X108073866Y-142238094D02*
X108264342Y-142238094D01*
X108264342Y-142238094D02*
X108359580Y-142190475D01*
X108359580Y-142190475D02*
X108407200Y-142142856D01*
X108407200Y-142142856D02*
X108454819Y-142047618D01*
X108454819Y-142047618D02*
X108454819Y-141857142D01*
X108454819Y-141857142D02*
X108407200Y-141761904D01*
X108407200Y-141761904D02*
X108359580Y-141714285D01*
X108359580Y-141714285D02*
X108264342Y-141666666D01*
X108264342Y-141666666D02*
X108073866Y-141666666D01*
X108073866Y-141666666D02*
X107978628Y-141714285D01*
X107978628Y-141714285D02*
X107931009Y-141761904D01*
X107931009Y-141761904D02*
X107883390Y-141857142D01*
X89407200Y-144333332D02*
X89454819Y-144190475D01*
X89454819Y-144190475D02*
X89454819Y-143952380D01*
X89454819Y-143952380D02*
X89407200Y-143857142D01*
X89407200Y-143857142D02*
X89359580Y-143809523D01*
X89359580Y-143809523D02*
X89264342Y-143761904D01*
X89264342Y-143761904D02*
X89169104Y-143761904D01*
X89169104Y-143761904D02*
X89073866Y-143809523D01*
X89073866Y-143809523D02*
X89026247Y-143857142D01*
X89026247Y-143857142D02*
X88978628Y-143952380D01*
X88978628Y-143952380D02*
X88931009Y-144142856D01*
X88931009Y-144142856D02*
X88883390Y-144238094D01*
X88883390Y-144238094D02*
X88835771Y-144285713D01*
X88835771Y-144285713D02*
X88740533Y-144333332D01*
X88740533Y-144333332D02*
X88645295Y-144333332D01*
X88645295Y-144333332D02*
X88550057Y-144285713D01*
X88550057Y-144285713D02*
X88502438Y-144238094D01*
X88502438Y-144238094D02*
X88454819Y-144142856D01*
X88454819Y-144142856D02*
X88454819Y-143904761D01*
X88454819Y-143904761D02*
X88502438Y-143761904D01*
X88454819Y-143428570D02*
X89454819Y-143190475D01*
X89454819Y-143190475D02*
X88740533Y-142999999D01*
X88740533Y-142999999D02*
X89454819Y-142809523D01*
X89454819Y-142809523D02*
X88454819Y-142571428D01*
X88454819Y-142285713D02*
X88454819Y-141619047D01*
X88454819Y-141619047D02*
X89454819Y-142047618D01*
D11*
X121516985Y-81677333D02*
X122236652Y-81677333D01*
X122236652Y-81677333D02*
X122321318Y-81635000D01*
X122321318Y-81635000D02*
X122363652Y-81592666D01*
X122363652Y-81592666D02*
X122405985Y-81508000D01*
X122405985Y-81508000D02*
X122405985Y-81338666D01*
X122405985Y-81338666D02*
X122363652Y-81254000D01*
X122363652Y-81254000D02*
X122321318Y-81211666D01*
X122321318Y-81211666D02*
X122236652Y-81169333D01*
X122236652Y-81169333D02*
X121516985Y-81169333D01*
X122405985Y-80280333D02*
X122405985Y-80788333D01*
X122405985Y-80534333D02*
X121516985Y-80534333D01*
X121516985Y-80534333D02*
X121643985Y-80619000D01*
X121643985Y-80619000D02*
X121728652Y-80703667D01*
X121728652Y-80703667D02*
X121770985Y-80788333D01*
D10*
X118367200Y-85761904D02*
X118414819Y-85619047D01*
X118414819Y-85619047D02*
X118414819Y-85380952D01*
X118414819Y-85380952D02*
X118367200Y-85285714D01*
X118367200Y-85285714D02*
X118319580Y-85238095D01*
X118319580Y-85238095D02*
X118224342Y-85190476D01*
X118224342Y-85190476D02*
X118129104Y-85190476D01*
X118129104Y-85190476D02*
X118033866Y-85238095D01*
X118033866Y-85238095D02*
X117986247Y-85285714D01*
X117986247Y-85285714D02*
X117938628Y-85380952D01*
X117938628Y-85380952D02*
X117891009Y-85571428D01*
X117891009Y-85571428D02*
X117843390Y-85666666D01*
X117843390Y-85666666D02*
X117795771Y-85714285D01*
X117795771Y-85714285D02*
X117700533Y-85761904D01*
X117700533Y-85761904D02*
X117605295Y-85761904D01*
X117605295Y-85761904D02*
X117510057Y-85714285D01*
X117510057Y-85714285D02*
X117462438Y-85666666D01*
X117462438Y-85666666D02*
X117414819Y-85571428D01*
X117414819Y-85571428D02*
X117414819Y-85333333D01*
X117414819Y-85333333D02*
X117462438Y-85190476D01*
X118367200Y-84380952D02*
X118414819Y-84476190D01*
X118414819Y-84476190D02*
X118414819Y-84666666D01*
X118414819Y-84666666D02*
X118367200Y-84761904D01*
X118367200Y-84761904D02*
X118271961Y-84809523D01*
X118271961Y-84809523D02*
X117891009Y-84809523D01*
X117891009Y-84809523D02*
X117795771Y-84761904D01*
X117795771Y-84761904D02*
X117748152Y-84666666D01*
X117748152Y-84666666D02*
X117748152Y-84476190D01*
X117748152Y-84476190D02*
X117795771Y-84380952D01*
X117795771Y-84380952D02*
X117891009Y-84333333D01*
X117891009Y-84333333D02*
X117986247Y-84333333D01*
X117986247Y-84333333D02*
X118081485Y-84809523D01*
X118367200Y-83523809D02*
X118414819Y-83619047D01*
X118414819Y-83619047D02*
X118414819Y-83809523D01*
X118414819Y-83809523D02*
X118367200Y-83904761D01*
X118367200Y-83904761D02*
X118271961Y-83952380D01*
X118271961Y-83952380D02*
X117891009Y-83952380D01*
X117891009Y-83952380D02*
X117795771Y-83904761D01*
X117795771Y-83904761D02*
X117748152Y-83809523D01*
X117748152Y-83809523D02*
X117748152Y-83619047D01*
X117748152Y-83619047D02*
X117795771Y-83523809D01*
X117795771Y-83523809D02*
X117891009Y-83476190D01*
X117891009Y-83476190D02*
X117986247Y-83476190D01*
X117986247Y-83476190D02*
X118081485Y-83952380D01*
X118367200Y-82666666D02*
X118414819Y-82761904D01*
X118414819Y-82761904D02*
X118414819Y-82952380D01*
X118414819Y-82952380D02*
X118367200Y-83047618D01*
X118367200Y-83047618D02*
X118271961Y-83095237D01*
X118271961Y-83095237D02*
X117891009Y-83095237D01*
X117891009Y-83095237D02*
X117795771Y-83047618D01*
X117795771Y-83047618D02*
X117748152Y-82952380D01*
X117748152Y-82952380D02*
X117748152Y-82761904D01*
X117748152Y-82761904D02*
X117795771Y-82666666D01*
X117795771Y-82666666D02*
X117891009Y-82619047D01*
X117891009Y-82619047D02*
X117986247Y-82619047D01*
X117986247Y-82619047D02*
X118081485Y-83095237D01*
X118414819Y-81761904D02*
X117414819Y-81761904D01*
X118367200Y-81761904D02*
X118414819Y-81857142D01*
X118414819Y-81857142D02*
X118414819Y-82047618D01*
X118414819Y-82047618D02*
X118367200Y-82142856D01*
X118367200Y-82142856D02*
X118319580Y-82190475D01*
X118319580Y-82190475D02*
X118224342Y-82238094D01*
X118224342Y-82238094D02*
X117938628Y-82238094D01*
X117938628Y-82238094D02*
X117843390Y-82190475D01*
X117843390Y-82190475D02*
X117795771Y-82142856D01*
X117795771Y-82142856D02*
X117748152Y-82047618D01*
X117748152Y-82047618D02*
X117748152Y-81857142D01*
X117748152Y-81857142D02*
X117795771Y-81761904D01*
X118367200Y-80571427D02*
X118414819Y-80428570D01*
X118414819Y-80428570D02*
X118414819Y-80190475D01*
X118414819Y-80190475D02*
X118367200Y-80095237D01*
X118367200Y-80095237D02*
X118319580Y-80047618D01*
X118319580Y-80047618D02*
X118224342Y-79999999D01*
X118224342Y-79999999D02*
X118129104Y-79999999D01*
X118129104Y-79999999D02*
X118033866Y-80047618D01*
X118033866Y-80047618D02*
X117986247Y-80095237D01*
X117986247Y-80095237D02*
X117938628Y-80190475D01*
X117938628Y-80190475D02*
X117891009Y-80380951D01*
X117891009Y-80380951D02*
X117843390Y-80476189D01*
X117843390Y-80476189D02*
X117795771Y-80523808D01*
X117795771Y-80523808D02*
X117700533Y-80571427D01*
X117700533Y-80571427D02*
X117605295Y-80571427D01*
X117605295Y-80571427D02*
X117510057Y-80523808D01*
X117510057Y-80523808D02*
X117462438Y-80476189D01*
X117462438Y-80476189D02*
X117414819Y-80380951D01*
X117414819Y-80380951D02*
X117414819Y-80142856D01*
X117414819Y-80142856D02*
X117462438Y-79999999D01*
X117748152Y-79714284D02*
X117748152Y-79333332D01*
X117414819Y-79571427D02*
X118271961Y-79571427D01*
X118271961Y-79571427D02*
X118367200Y-79523808D01*
X118367200Y-79523808D02*
X118414819Y-79428570D01*
X118414819Y-79428570D02*
X118414819Y-79333332D01*
X117748152Y-78571427D02*
X118414819Y-78571427D01*
X117748152Y-78999998D02*
X118271961Y-78999998D01*
X118271961Y-78999998D02*
X118367200Y-78952379D01*
X118367200Y-78952379D02*
X118414819Y-78857141D01*
X118414819Y-78857141D02*
X118414819Y-78714284D01*
X118414819Y-78714284D02*
X118367200Y-78619046D01*
X118367200Y-78619046D02*
X118319580Y-78571427D01*
X118414819Y-77666665D02*
X117414819Y-77666665D01*
X118367200Y-77666665D02*
X118414819Y-77761903D01*
X118414819Y-77761903D02*
X118414819Y-77952379D01*
X118414819Y-77952379D02*
X118367200Y-78047617D01*
X118367200Y-78047617D02*
X118319580Y-78095236D01*
X118319580Y-78095236D02*
X118224342Y-78142855D01*
X118224342Y-78142855D02*
X117938628Y-78142855D01*
X117938628Y-78142855D02*
X117843390Y-78095236D01*
X117843390Y-78095236D02*
X117795771Y-78047617D01*
X117795771Y-78047617D02*
X117748152Y-77952379D01*
X117748152Y-77952379D02*
X117748152Y-77761903D01*
X117748152Y-77761903D02*
X117795771Y-77666665D01*
X118414819Y-77190474D02*
X117748152Y-77190474D01*
X117414819Y-77190474D02*
X117462438Y-77238093D01*
X117462438Y-77238093D02*
X117510057Y-77190474D01*
X117510057Y-77190474D02*
X117462438Y-77142855D01*
X117462438Y-77142855D02*
X117414819Y-77190474D01*
X117414819Y-77190474D02*
X117510057Y-77190474D01*
X118414819Y-76571427D02*
X118367200Y-76666665D01*
X118367200Y-76666665D02*
X118319580Y-76714284D01*
X118319580Y-76714284D02*
X118224342Y-76761903D01*
X118224342Y-76761903D02*
X117938628Y-76761903D01*
X117938628Y-76761903D02*
X117843390Y-76714284D01*
X117843390Y-76714284D02*
X117795771Y-76666665D01*
X117795771Y-76666665D02*
X117748152Y-76571427D01*
X117748152Y-76571427D02*
X117748152Y-76428570D01*
X117748152Y-76428570D02*
X117795771Y-76333332D01*
X117795771Y-76333332D02*
X117843390Y-76285713D01*
X117843390Y-76285713D02*
X117938628Y-76238094D01*
X117938628Y-76238094D02*
X118224342Y-76238094D01*
X118224342Y-76238094D02*
X118319580Y-76285713D01*
X118319580Y-76285713D02*
X118367200Y-76333332D01*
X118367200Y-76333332D02*
X118414819Y-76428570D01*
X118414819Y-76428570D02*
X118414819Y-76571427D01*
X119414819Y-82523808D02*
X120414819Y-81857142D01*
X119414819Y-81857142D02*
X120414819Y-82523808D01*
X120414819Y-81476189D02*
X119414819Y-81476189D01*
X120129104Y-81047618D02*
X120129104Y-80571428D01*
X120414819Y-81142856D02*
X119414819Y-80809523D01*
X119414819Y-80809523D02*
X120414819Y-80476190D01*
X119414819Y-79952380D02*
X119414819Y-79761904D01*
X119414819Y-79761904D02*
X119462438Y-79666666D01*
X119462438Y-79666666D02*
X119557676Y-79571428D01*
X119557676Y-79571428D02*
X119748152Y-79523809D01*
X119748152Y-79523809D02*
X120081485Y-79523809D01*
X120081485Y-79523809D02*
X120271961Y-79571428D01*
X120271961Y-79571428D02*
X120367200Y-79666666D01*
X120367200Y-79666666D02*
X120414819Y-79761904D01*
X120414819Y-79761904D02*
X120414819Y-79952380D01*
X120414819Y-79952380D02*
X120367200Y-80047618D01*
X120367200Y-80047618D02*
X120271961Y-80142856D01*
X120271961Y-80142856D02*
X120081485Y-80190475D01*
X120081485Y-80190475D02*
X119748152Y-80190475D01*
X119748152Y-80190475D02*
X119557676Y-80142856D01*
X119557676Y-80142856D02*
X119462438Y-80047618D01*
X119462438Y-80047618D02*
X119414819Y-79952380D01*
D12*
%TO.C,SW10*%
X87425000Y-78100000D02*
X88025000Y-78100000D01*
X87725000Y-78400000D02*
X87425000Y-78100000D01*
X88025000Y-78100000D02*
X87725000Y-78400000D01*
X89125000Y-76300000D02*
X89125000Y-88100000D01*
X93225000Y-76300000D02*
X89125000Y-76300000D01*
X93225000Y-88100000D02*
X89125000Y-88100000D01*
X94725000Y-82200000D02*
X95725000Y-82200000D01*
X95225000Y-81700000D02*
X95225000Y-82700000D01*
X97225000Y-76300000D02*
X101325000Y-76300000D01*
X101325000Y-76300000D02*
X101325000Y-78700000D01*
X101325000Y-80900000D02*
X101325000Y-83500000D01*
X101325000Y-85700000D02*
X101325000Y-88100000D01*
X101325000Y-88100000D02*
X97225000Y-88100000D01*
X98225000Y-82200000D02*
G75*
G02*
X92225000Y-82200000I-3000000J0D01*
G01*
X92225000Y-82200000D02*
G75*
G02*
X98225000Y-82200000I3000000J0D01*
G01*
%TO.C,SW2*%
X109525000Y-98095000D02*
X123495000Y-98095000D01*
X109525000Y-112065000D02*
X109525000Y-98095000D01*
X123495000Y-98095000D02*
X123495000Y-112065000D01*
X123495000Y-112065000D02*
X109525000Y-112065000D01*
%TO.C,SW1*%
X90475000Y-98095000D02*
X104445000Y-98095000D01*
X90475000Y-112065000D02*
X90475000Y-98095000D01*
X104445000Y-98095000D02*
X104445000Y-112065000D01*
X104445000Y-112065000D02*
X90475000Y-112065000D01*
%TO.C,SW4*%
X90475000Y-117145000D02*
X104445000Y-117145000D01*
X90475000Y-131115000D02*
X90475000Y-117145000D01*
X104445000Y-117145000D02*
X104445000Y-131115000D01*
X104445000Y-131115000D02*
X90475000Y-131115000D01*
%TO.C,J1*%
X106695000Y-81470000D02*
X106695000Y-89150000D01*
X106695000Y-81470000D02*
X109355000Y-81470000D01*
X106695000Y-89150000D02*
X109355000Y-89150000D01*
X108025000Y-78870000D02*
X109355000Y-78870000D01*
X109355000Y-78870000D02*
X109355000Y-80200000D01*
X109355000Y-81470000D02*
X109355000Y-89150000D01*
%TO.C,SW6*%
X128575000Y-117145000D02*
X142545000Y-117145000D01*
X128575000Y-131115000D02*
X128575000Y-117145000D01*
X142545000Y-117145000D02*
X142545000Y-131115000D01*
X142545000Y-131115000D02*
X128575000Y-131115000D01*
%TO.C,SW3*%
X128575000Y-98095000D02*
X142545000Y-98095000D01*
X128575000Y-112065000D02*
X128575000Y-98095000D01*
X142545000Y-98095000D02*
X142545000Y-112065000D01*
X142545000Y-112065000D02*
X128575000Y-112065000D01*
%TO.C,SW5*%
X109525000Y-117145000D02*
X123495000Y-117145000D01*
X109525000Y-131115000D02*
X109525000Y-117145000D01*
X123495000Y-117145000D02*
X123495000Y-131115000D01*
X123495000Y-131115000D02*
X109525000Y-131115000D01*
%TO.C,SW9*%
X128875000Y-136195000D02*
X142845000Y-136195000D01*
X128875000Y-150165000D02*
X128875000Y-136195000D01*
X142845000Y-136195000D02*
X142845000Y-150165000D01*
X142845000Y-150165000D02*
X128875000Y-150165000D01*
%TO.C,SW8*%
X109525000Y-136195000D02*
X123495000Y-136195000D01*
X109525000Y-150165000D02*
X109525000Y-136195000D01*
X123495000Y-136195000D02*
X123495000Y-150165000D01*
X123495000Y-150165000D02*
X109525000Y-150165000D01*
%TO.C,SW7*%
X90475000Y-136195000D02*
X104445000Y-136195000D01*
X90475000Y-150165000D02*
X90475000Y-136195000D01*
X104445000Y-136195000D02*
X104445000Y-150165000D01*
X104445000Y-150165000D02*
X90475000Y-150165000D01*
D13*
%TO.C,U1*%
X126100000Y-71500000D02*
X126100000Y-88500000D01*
X128100000Y-90500000D02*
X141900000Y-90500000D01*
X130500000Y-68075970D02*
X139500000Y-68075970D01*
X130500000Y-75429270D02*
X130500000Y-68075970D01*
X139500000Y-68075970D02*
X139500000Y-75429270D01*
X139500000Y-75429270D02*
X130500000Y-75429270D01*
X141900000Y-69500910D02*
X128100000Y-69500910D01*
X143900000Y-88500000D02*
X143900000Y-71500000D01*
D12*
X126100000Y-71500000D02*
G75*
G02*
X128100000Y-69500000I2044612J-44612D01*
G01*
X128100000Y-90500000D02*
G75*
G02*
X126100000Y-88500000I44857J2044857D01*
G01*
X141900000Y-69500000D02*
G75*
G02*
X143900000Y-71500000I-44610J-2044610D01*
G01*
X143900000Y-88500000D02*
G75*
G02*
X141900000Y-90500000I-2000000J0D01*
G01*
D14*
X124127000Y-71200000D02*
G75*
G02*
X123873000Y-71200000I-127000J0D01*
G01*
X123873000Y-71200000D02*
G75*
G02*
X124127000Y-71200000I127000J0D01*
G01*
D15*
X126112285Y-71438295D02*
X126115333Y-71389527D01*
X126119397Y-71340506D01*
X126112285Y-71438295D01*
X143887713Y-88570850D02*
X143884665Y-88619618D01*
X143880601Y-88668639D01*
X143875268Y-88717407D01*
X143868664Y-88766175D01*
X143861044Y-88814690D01*
X143852153Y-88862950D01*
X143842248Y-88910955D01*
X143889492Y-88521574D01*
X143887713Y-88570850D01*
D16*
%TO.C,*%
G36*
X88402706Y-71062531D02*
G01*
X88418512Y-71077595D01*
X88443286Y-71137131D01*
X88430508Y-71195602D01*
X88380648Y-71252120D01*
X88298403Y-71303683D01*
X88238686Y-71328942D01*
X88201045Y-71328175D01*
X88177061Y-71298070D01*
X88161879Y-71249958D01*
X88145168Y-71173505D01*
X88143078Y-71124122D01*
X88157490Y-71093052D01*
X88190288Y-71071539D01*
X88201258Y-71066762D01*
X88278608Y-71045175D01*
X88349317Y-71043942D01*
X88402706Y-71062531D01*
G37*
G36*
X88226743Y-70710117D02*
G01*
X88267776Y-70721162D01*
X88285178Y-70750124D01*
X88288946Y-70775484D01*
X88286350Y-70819222D01*
X88263893Y-70857778D01*
X88226495Y-70894309D01*
X88180209Y-70929950D01*
X88141384Y-70951386D01*
X88129513Y-70954186D01*
X88105164Y-70938247D01*
X88076536Y-70897891D01*
X88064050Y-70873385D01*
X88041971Y-70820759D01*
X88028667Y-70781389D01*
X88026956Y-70771862D01*
X88043473Y-70751954D01*
X88085633Y-70732386D01*
X88141211Y-70716935D01*
X88197980Y-70709380D01*
X88226743Y-70710117D01*
G37*
G36*
X83232384Y-70553672D02*
G01*
X83241782Y-70603304D01*
X83242982Y-70679389D01*
X83235554Y-70776500D01*
X83234801Y-70783078D01*
X83226695Y-70853491D01*
X83220529Y-70908718D01*
X83217466Y-70938294D01*
X83217343Y-70939927D01*
X83203089Y-70951864D01*
X83202249Y-70951745D01*
X83177160Y-70947531D01*
X83126510Y-70939070D01*
X83073919Y-70930302D01*
X83013010Y-70919623D01*
X82969620Y-70911010D01*
X82954603Y-70906902D01*
X82961584Y-70889939D01*
X82986129Y-70849884D01*
X83023055Y-70794117D01*
X83067177Y-70730015D01*
X83113313Y-70664957D01*
X83156279Y-70606322D01*
X83190893Y-70561488D01*
X83211969Y-70537833D01*
X83215218Y-70535922D01*
X83232384Y-70553672D01*
G37*
G36*
X82200621Y-69426814D02*
G01*
X82369703Y-69434469D01*
X82526123Y-69448302D01*
X82605012Y-69458832D01*
X82942425Y-69523745D01*
X83298143Y-69616714D01*
X83666766Y-69736063D01*
X84042893Y-69880117D01*
X84252661Y-69970006D01*
X84475621Y-70068131D01*
X84670030Y-70151038D01*
X84841318Y-70220578D01*
X84994914Y-70278601D01*
X85136244Y-70326959D01*
X85270738Y-70367501D01*
X85403825Y-70402078D01*
X85540931Y-70432539D01*
X85687487Y-70460737D01*
X85697571Y-70462554D01*
X85776959Y-70476160D01*
X85849397Y-70486684D01*
X85921530Y-70494505D01*
X86000000Y-70500000D01*
X86091450Y-70503547D01*
X86202525Y-70505524D01*
X86339866Y-70506308D01*
X86467556Y-70506337D01*
X86631743Y-70505803D01*
X86764715Y-70504347D01*
X86873277Y-70501583D01*
X86964235Y-70497122D01*
X87044394Y-70490577D01*
X87120560Y-70481561D01*
X87199536Y-70469685D01*
X87245308Y-70462021D01*
X87730109Y-70360703D01*
X88199769Y-70225902D01*
X88652370Y-70058282D01*
X89085993Y-69858507D01*
X89268589Y-69761528D01*
X89343932Y-69721116D01*
X89406600Y-69689942D01*
X89449552Y-69671349D01*
X89465479Y-69668076D01*
X89459906Y-69687011D01*
X89438912Y-69734870D01*
X89404773Y-69806921D01*
X89359766Y-69898433D01*
X89306167Y-70004675D01*
X89264766Y-70085253D01*
X89206584Y-70199103D01*
X89155566Y-70301689D01*
X89113963Y-70388249D01*
X89084030Y-70454026D01*
X89068017Y-70494258D01*
X89066292Y-70504667D01*
X89087975Y-70508101D01*
X89142278Y-70511162D01*
X89223798Y-70513710D01*
X89327133Y-70515602D01*
X89446878Y-70516695D01*
X89531653Y-70516910D01*
X89658268Y-70517481D01*
X89771130Y-70519083D01*
X89865047Y-70521553D01*
X89934827Y-70524728D01*
X89975277Y-70528442D01*
X89983383Y-70531169D01*
X89968175Y-70552034D01*
X89926990Y-70593224D01*
X89863679Y-70651483D01*
X89782092Y-70723554D01*
X89686081Y-70806178D01*
X89579494Y-70896099D01*
X89466184Y-70990060D01*
X89350000Y-71084804D01*
X89234794Y-71177073D01*
X89124415Y-71263609D01*
X89051297Y-71319627D01*
X88661791Y-71601577D01*
X88283182Y-71849314D01*
X87915912Y-72062613D01*
X87560427Y-72241249D01*
X87217171Y-72384997D01*
X86886587Y-72493632D01*
X86600640Y-72561125D01*
X86473675Y-72578447D01*
X86315045Y-72589133D01*
X86130496Y-72593353D01*
X85925773Y-72591279D01*
X85706621Y-72583082D01*
X85478785Y-72568933D01*
X85248010Y-72549004D01*
X85020041Y-72523466D01*
X84927586Y-72511257D01*
X84812733Y-72494806D01*
X84703207Y-72477733D01*
X84595666Y-72459205D01*
X84486767Y-72438388D01*
X84373170Y-72414450D01*
X84251532Y-72386558D01*
X84118510Y-72353878D01*
X83970764Y-72315579D01*
X83804950Y-72270828D01*
X83617728Y-72218790D01*
X83405754Y-72158635D01*
X83165687Y-72089528D01*
X82894185Y-72010637D01*
X82750715Y-71968756D01*
X82578455Y-71919718D01*
X82443333Y-71882923D01*
X84294297Y-71882923D01*
X84300767Y-71914161D01*
X84324606Y-71931397D01*
X84359145Y-71938688D01*
X84412875Y-71927177D01*
X84472606Y-71884786D01*
X84533758Y-71817157D01*
X84591749Y-71729930D01*
X84641998Y-71628748D01*
X84668452Y-71557816D01*
X84695283Y-71530758D01*
X84727364Y-71524545D01*
X84763455Y-71526159D01*
X84775564Y-71529298D01*
X84779035Y-71548639D01*
X84788484Y-71598236D01*
X84802555Y-71671033D01*
X84819889Y-71759978D01*
X84823838Y-71780155D01*
X84846565Y-71891426D01*
X84865886Y-71971195D01*
X84884336Y-72025521D01*
X84904448Y-72060460D01*
X84928755Y-72082069D01*
X84955444Y-72094799D01*
X84991776Y-72102833D01*
X85025206Y-72091465D01*
X85065423Y-72060548D01*
X85090078Y-72015812D01*
X85096970Y-71943197D01*
X85086867Y-71848023D01*
X85060537Y-71735614D01*
X85018747Y-71611291D01*
X85011665Y-71593957D01*
X85770775Y-71593957D01*
X85784273Y-71732907D01*
X85815407Y-71862444D01*
X85863336Y-71974221D01*
X85927217Y-72059895D01*
X85931216Y-72063721D01*
X86013968Y-72116557D01*
X86112222Y-72139407D01*
X86216988Y-72131370D01*
X86302018Y-72100818D01*
X86347235Y-72065791D01*
X86375572Y-72020448D01*
X86386264Y-71973697D01*
X86378547Y-71934446D01*
X86351657Y-71911604D01*
X86318335Y-71910620D01*
X86263230Y-71921214D01*
X86201455Y-71933217D01*
X86201383Y-71933231D01*
X86129198Y-71929751D01*
X86063372Y-71889496D01*
X86003332Y-71812065D01*
X85987738Y-71784162D01*
X85962204Y-71712581D01*
X85946846Y-71621986D01*
X85941736Y-71523785D01*
X85946949Y-71429387D01*
X85962557Y-71350199D01*
X85984631Y-71302584D01*
X86040317Y-71256238D01*
X86109999Y-71242854D01*
X86186717Y-71263662D01*
X86191343Y-71265999D01*
X86240849Y-71285103D01*
X86267706Y-71275679D01*
X86277168Y-71235031D01*
X86277437Y-71221795D01*
X86259791Y-71153794D01*
X86212261Y-71094008D01*
X86208305Y-71091620D01*
X86498188Y-71091620D01*
X86498908Y-71169495D01*
X86508545Y-71276245D01*
X86522328Y-71384719D01*
X86537361Y-71496377D01*
X86551646Y-71606109D01*
X86563797Y-71703009D01*
X86572424Y-71776171D01*
X86573998Y-71790713D01*
X86583398Y-71862858D01*
X86594756Y-71925571D01*
X86603846Y-71959746D01*
X86615107Y-71983669D01*
X86632657Y-71996111D01*
X86666054Y-71999286D01*
X86724856Y-71995405D01*
X86748531Y-71993228D01*
X86835154Y-71981319D01*
X86935041Y-71962065D01*
X87018482Y-71941752D01*
X87106526Y-71915379D01*
X87163354Y-71892569D01*
X87195086Y-71869680D01*
X87207842Y-71843074D01*
X87209023Y-71828443D01*
X87199973Y-71798992D01*
X87169965Y-71783582D01*
X87114712Y-71781752D01*
X87029931Y-71793040D01*
X86975756Y-71803332D01*
X86879430Y-71820399D01*
X86813574Y-71824358D01*
X86772287Y-71813190D01*
X86749666Y-71784879D01*
X86739812Y-71737406D01*
X86738648Y-71722245D01*
X86723006Y-71520457D01*
X86703049Y-71348655D01*
X86679116Y-71208183D01*
X86651545Y-71100385D01*
X86620676Y-71026604D01*
X86586846Y-70988184D01*
X86553065Y-70985352D01*
X86524913Y-71004138D01*
X86506739Y-71038031D01*
X86498188Y-71091620D01*
X86208305Y-71091620D01*
X86142955Y-71052173D01*
X86133255Y-71048720D01*
X86056413Y-71042148D01*
X85977710Y-71067689D01*
X85905519Y-71120837D01*
X85848217Y-71197087D01*
X85844513Y-71204076D01*
X85800053Y-71321196D01*
X85775754Y-71453938D01*
X85770775Y-71593957D01*
X85011665Y-71593957D01*
X84990682Y-71542594D01*
X84940678Y-71427295D01*
X85026358Y-71338083D01*
X85122793Y-71230283D01*
X85187731Y-71140636D01*
X85220897Y-71069638D01*
X85222015Y-71017785D01*
X85213168Y-71002200D01*
X85181870Y-70986201D01*
X85134959Y-70997047D01*
X85070525Y-71035783D01*
X84986661Y-71103454D01*
X84923807Y-71160645D01*
X84769202Y-71305907D01*
X84782151Y-71210847D01*
X84798827Y-71076887D01*
X84806981Y-70974208D01*
X84806545Y-70946950D01*
X87102047Y-70946950D01*
X87102798Y-71002061D01*
X87104036Y-71009394D01*
X87118740Y-71076524D01*
X87141584Y-71163357D01*
X87169794Y-71261022D01*
X87200593Y-71360646D01*
X87231208Y-71453358D01*
X87258861Y-71530287D01*
X87280779Y-71582560D01*
X87286878Y-71593873D01*
X87353681Y-71669574D01*
X87439966Y-71719868D01*
X87536398Y-71742012D01*
X87633639Y-71733268D01*
X87688879Y-71711852D01*
X87729746Y-71672198D01*
X87766626Y-71601583D01*
X87795892Y-71507069D01*
X87797348Y-71500695D01*
X87803190Y-71437500D01*
X87800605Y-71347708D01*
X87790680Y-71241538D01*
X87774504Y-71129207D01*
X87753168Y-71020932D01*
X87740986Y-70971813D01*
X87719665Y-70918246D01*
X87687084Y-70862389D01*
X87650854Y-70814964D01*
X87618586Y-70786696D01*
X87607023Y-70783078D01*
X87585431Y-70797362D01*
X87560191Y-70828786D01*
X87544270Y-70858533D01*
X87539795Y-70890047D01*
X87546637Y-70936023D01*
X87558608Y-70985634D01*
X87581780Y-71090503D01*
X87600590Y-71202647D01*
X87613826Y-71311635D01*
X87620281Y-71407040D01*
X87618744Y-71478433D01*
X87617145Y-71490287D01*
X87593114Y-71555926D01*
X87551272Y-71591477D01*
X87496614Y-71593914D01*
X87466083Y-71581794D01*
X87443112Y-71565092D01*
X87422445Y-71538118D01*
X87402132Y-71495798D01*
X87380226Y-71433059D01*
X87354780Y-71344826D01*
X87323843Y-71226026D01*
X87313167Y-71183531D01*
X87284231Y-71072743D01*
X87260176Y-70993607D01*
X87238807Y-70940416D01*
X87217932Y-70907461D01*
X87201424Y-70892688D01*
X87170414Y-70879708D01*
X87141335Y-70892854D01*
X87123260Y-70909581D01*
X87102047Y-70946950D01*
X84806545Y-70946950D01*
X84805744Y-70896846D01*
X84794250Y-70838838D01*
X84771631Y-70794218D01*
X84738916Y-70759063D01*
X87891053Y-70759063D01*
X87897700Y-70798768D01*
X87912104Y-70857430D01*
X87935234Y-70940275D01*
X87968058Y-71052529D01*
X87981505Y-71098003D01*
X88015262Y-71209280D01*
X88046733Y-71307913D01*
X88073945Y-71388120D01*
X88094927Y-71444116D01*
X88107705Y-71470117D01*
X88108696Y-71471015D01*
X88150026Y-71477611D01*
X88216829Y-71465004D01*
X88302676Y-71434680D01*
X88343694Y-71416635D01*
X88448074Y-71354390D01*
X88518927Y-71280894D01*
X88554662Y-71198075D01*
X88558874Y-71155961D01*
X88543375Y-71068789D01*
X88501750Y-70989803D01*
X88441306Y-70931561D01*
X88421957Y-70920658D01*
X88391249Y-70903737D01*
X88381634Y-70884757D01*
X88390344Y-70850540D01*
X88401266Y-70822169D01*
X88421404Y-70733913D01*
X88412461Y-70656050D01*
X88378194Y-70594521D01*
X88322360Y-70555268D01*
X88248718Y-70544231D01*
X88227058Y-70546726D01*
X88158570Y-70565322D01*
X88078615Y-70597395D01*
X88000253Y-70636614D01*
X87936541Y-70676647D01*
X87907957Y-70701426D01*
X87897151Y-70715618D01*
X87891193Y-70733088D01*
X87891053Y-70759063D01*
X84738916Y-70759063D01*
X84737019Y-70757024D01*
X84713408Y-70738202D01*
X84660831Y-70699167D01*
X84620169Y-70739829D01*
X84600329Y-70765937D01*
X84585837Y-70803296D01*
X84574703Y-70859999D01*
X84564938Y-70944136D01*
X84561913Y-70976657D01*
X84544792Y-71136111D01*
X84523118Y-71268912D01*
X84493916Y-71386401D01*
X84454208Y-71499916D01*
X84401019Y-71620797D01*
X84383140Y-71657845D01*
X84335078Y-71759501D01*
X84305599Y-71832948D01*
X84294297Y-71882923D01*
X82443333Y-71882923D01*
X82393254Y-71869286D01*
X82202877Y-71819409D01*
X82015093Y-71772031D01*
X81837668Y-71729099D01*
X81678368Y-71692559D01*
X81544960Y-71664356D01*
X81505431Y-71656742D01*
X81372212Y-71636627D01*
X81215707Y-71620469D01*
X81047586Y-71608861D01*
X80879523Y-71602395D01*
X80723188Y-71601664D01*
X80590254Y-71607260D01*
X80567878Y-71609155D01*
X80423810Y-71622656D01*
X80403428Y-71720943D01*
X80371187Y-71906107D01*
X80344729Y-72119747D01*
X80325023Y-72352622D01*
X80313724Y-72574957D01*
X80301969Y-72912419D01*
X80162233Y-72912419D01*
X80088264Y-72910949D01*
X80045137Y-72905546D01*
X80025749Y-72894723D01*
X80022497Y-72883152D01*
X80024963Y-72839342D01*
X80031687Y-72766599D01*
X80041661Y-72673645D01*
X80053872Y-72569205D01*
X80067311Y-72462001D01*
X80080968Y-72360758D01*
X80090663Y-72294530D01*
X80154261Y-71938284D01*
X80235254Y-71592036D01*
X80336250Y-71246902D01*
X80417280Y-71015561D01*
X81383324Y-71015561D01*
X81390244Y-71062070D01*
X81411037Y-71093246D01*
X81431646Y-71107493D01*
X81489185Y-71118149D01*
X81552067Y-71093627D01*
X81617827Y-71035961D01*
X81683999Y-70947185D01*
X81734317Y-70857649D01*
X81808897Y-70709316D01*
X81973091Y-70773775D01*
X82045183Y-70802455D01*
X82102302Y-70825893D01*
X82136334Y-70840723D01*
X82142223Y-70843927D01*
X82140798Y-70863762D01*
X82132867Y-70912202D01*
X82119904Y-70980680D01*
X82111795Y-71020727D01*
X82095891Y-71102697D01*
X82083616Y-71175502D01*
X82076853Y-71227559D01*
X82076109Y-71240316D01*
X82088652Y-71297585D01*
X82123172Y-71328181D01*
X82173619Y-71331123D01*
X82188678Y-71324710D01*
X82558969Y-71324710D01*
X82562103Y-71369501D01*
X82576955Y-71400596D01*
X82597391Y-71423886D01*
X82619452Y-71427682D01*
X82657510Y-71412923D01*
X82670608Y-71406731D01*
X82725086Y-71367436D01*
X82780644Y-71305381D01*
X82798812Y-71279359D01*
X82860925Y-71183502D01*
X82976928Y-71194870D01*
X83040560Y-71202870D01*
X83088353Y-71212137D01*
X83107401Y-71219210D01*
X83109584Y-71242780D01*
X83100238Y-71290295D01*
X83086600Y-71335587D01*
X83057279Y-71424184D01*
X83040537Y-71484815D01*
X83035627Y-71525125D01*
X83041800Y-71552760D01*
X83058310Y-71575365D01*
X83062712Y-71579880D01*
X83108542Y-71606288D01*
X83159251Y-71597042D01*
X83216838Y-71551611D01*
X83232455Y-71534637D01*
X83271243Y-71471808D01*
X83305390Y-71383870D01*
X83584990Y-71383870D01*
X83599490Y-71514857D01*
X83634501Y-71627580D01*
X83689093Y-71718533D01*
X83762332Y-71784214D01*
X83853290Y-71821118D01*
X83916143Y-71827992D01*
X83980156Y-71819236D01*
X84034692Y-71799873D01*
X84080926Y-71761280D01*
X84104310Y-71711697D01*
X84100350Y-71663292D01*
X84090854Y-71647876D01*
X84056524Y-71628170D01*
X84005997Y-71619616D01*
X84004238Y-71619605D01*
X83932558Y-71602617D01*
X83888214Y-71574128D01*
X83860467Y-71546473D01*
X83843660Y-71515331D01*
X83834274Y-71469693D01*
X83828793Y-71398555D01*
X83828148Y-71386145D01*
X83832888Y-71260739D01*
X83856849Y-71129519D01*
X83896622Y-71003118D01*
X83948795Y-70892170D01*
X84009959Y-70807308D01*
X84015661Y-70801440D01*
X84069778Y-70770482D01*
X84131805Y-70767778D01*
X84186572Y-70793275D01*
X84195625Y-70802090D01*
X84243718Y-70834829D01*
X84293061Y-70836686D01*
X84332665Y-70808336D01*
X84341417Y-70793148D01*
X84349961Y-70733009D01*
X84331692Y-70664379D01*
X84291392Y-70599930D01*
X84255916Y-70566482D01*
X84192540Y-70538700D01*
X84109929Y-70528357D01*
X84022761Y-70535695D01*
X83945711Y-70560953D01*
X83944849Y-70561397D01*
X83866038Y-70619083D01*
X83789170Y-70706302D01*
X83720538Y-70814811D01*
X83673866Y-70916357D01*
X83621246Y-71081116D01*
X83591931Y-71238121D01*
X83584990Y-71383870D01*
X83305390Y-71383870D01*
X83307911Y-71377379D01*
X83341155Y-71257764D01*
X83369673Y-71119379D01*
X83392164Y-70968637D01*
X83407325Y-70811955D01*
X83413854Y-70655745D01*
X83413982Y-70640488D01*
X83411237Y-70510442D01*
X83400491Y-70411478D01*
X83380247Y-70337215D01*
X83349009Y-70281272D01*
X83323002Y-70252554D01*
X83268632Y-70222424D01*
X83209870Y-70230051D01*
X83146732Y-70275421D01*
X83079235Y-70358522D01*
X83007392Y-70479343D01*
X82989915Y-70513140D01*
X82955909Y-70578761D01*
X82908085Y-70668729D01*
X82851202Y-70774209D01*
X82790015Y-70886370D01*
X82742263Y-70972989D01*
X82686857Y-71074052D01*
X82637713Y-71165738D01*
X82597937Y-71242083D01*
X82570639Y-71297123D01*
X82558969Y-71324710D01*
X82188678Y-71324710D01*
X82233942Y-71305434D01*
X82275885Y-71272636D01*
X82302386Y-71244930D01*
X82325532Y-71211737D01*
X82348105Y-71166760D01*
X82372887Y-71103698D01*
X82402662Y-71016255D01*
X82437544Y-70906656D01*
X82474715Y-70784863D01*
X82512321Y-70656386D01*
X82546768Y-70533851D01*
X82574459Y-70429882D01*
X82582716Y-70396828D01*
X82632684Y-70191192D01*
X82594732Y-70140166D01*
X82555971Y-70102569D01*
X82515405Y-70083014D01*
X82514812Y-70082921D01*
X82469488Y-70085636D01*
X82426382Y-70110362D01*
X82382110Y-70160834D01*
X82333289Y-70240781D01*
X82284732Y-70336692D01*
X82245137Y-70415149D01*
X82209011Y-70479058D01*
X82180491Y-70521576D01*
X82164319Y-70535922D01*
X82134457Y-70529116D01*
X82081868Y-70511409D01*
X82027534Y-70490457D01*
X81915783Y-70444992D01*
X81914898Y-70267066D01*
X81909344Y-70147898D01*
X81892551Y-70059125D01*
X81862287Y-69994200D01*
X81816322Y-69946576D01*
X81802287Y-69936719D01*
X81746017Y-69919855D01*
X81689607Y-69933867D01*
X81646954Y-69974291D01*
X81639683Y-69988946D01*
X81629025Y-70023955D01*
X81612923Y-70087177D01*
X81593579Y-70169575D01*
X81573592Y-70260248D01*
X81547300Y-70373607D01*
X81513539Y-70505245D01*
X81477006Y-70637417D01*
X81447967Y-70734739D01*
X81411970Y-70856825D01*
X81390494Y-70948789D01*
X81383324Y-71015561D01*
X80417280Y-71015561D01*
X80459858Y-70894001D01*
X80608684Y-70524449D01*
X80613977Y-70512049D01*
X80662716Y-70401259D01*
X80719952Y-70276311D01*
X80782346Y-70144011D01*
X80846562Y-70011164D01*
X80909263Y-69884577D01*
X80967112Y-69771056D01*
X81016771Y-69677408D01*
X81054904Y-69610439D01*
X81060379Y-69601595D01*
X81097333Y-69554658D01*
X81131116Y-69530868D01*
X81155207Y-69532936D01*
X81163215Y-69558839D01*
X81173231Y-69579888D01*
X81196486Y-69575899D01*
X81408388Y-69503751D01*
X81598361Y-69458120D01*
X81717745Y-69440990D01*
X81864606Y-69430067D01*
X82028910Y-69425344D01*
X82200621Y-69426814D01*
G37*
%TD*%
M02*
