%TF.GenerationSoftware,KiCad,Pcbnew,8.0.9*%
%TF.CreationDate,2026-07-09T20:50:47+05:30*%
%TF.ProjectId,HackPad1,4861636b-5061-4643-912e-6b696361645f,rev?*%
%TF.SameCoordinates,Original*%
%TF.FileFunction,Soldermask,Bot*%
%TF.FilePolarity,Negative*%
%FSLAX46Y46*%
G04 Gerber Fmt 4.6, Leading zero omitted, Abs format (unit mm)*
G04 Created by KiCad (PCBNEW 8.0.9) date 2026-07-09 20:50:47*
%MOMM*%
%LPD*%
G01*
G04 APERTURE LIST*
G04 Aperture macros list*
%AMRoundRect*
0 Rectangle with rounded corners*
0 $1 Rounding radius*
0 $2 $3 $4 $5 $6 $7 $8 $9 X,Y pos of 4 corners*
0 Add a 4 corners polygon primitive as box body*
4,1,4,$2,$3,$4,$5,$6,$7,$8,$9,$2,$3,0*
0 Add four circle primitives for the rounded corners*
1,1,$1+$1,$2,$3*
1,1,$1+$1,$4,$5*
1,1,$1+$1,$6,$7*
1,1,$1+$1,$8,$9*
0 Add four rect primitives between the rounded corners*
20,1,$1+$1,$2,$3,$4,$5,0*
20,1,$1+$1,$4,$5,$6,$7,0*
20,1,$1+$1,$6,$7,$8,$9,0*
20,1,$1+$1,$8,$9,$2,$3,0*%
G04 Aperture macros list end*
%ADD10R,2.000000X2.000000*%
%ADD11C,2.000000*%
%ADD12R,3.200000X2.000000*%
%ADD13RoundRect,0.082000X-0.328000X-0.718000X0.328000X-0.718000X0.328000X0.718000X-0.328000X0.718000X0*%
%ADD14C,1.700000*%
%ADD15C,4.000000*%
%ADD16C,2.200000*%
%ADD17R,1.700000X1.700000*%
%ADD18O,1.700000X1.700000*%
%ADD19R,3.500000X1.700000*%
%ADD20O,3.600000X1.700000*%
%ADD21O,3.700000X1.700000*%
%ADD22R,1.600000X1.600000*%
%ADD23O,1.600000X1.600000*%
G04 APERTURE END LIST*
D10*
%TO.C,SW10*%
X87725000Y-79700000D03*
D11*
X87725000Y-84700000D03*
X87725000Y-82200000D03*
D12*
X95225000Y-76600000D03*
X95225000Y-87800000D03*
D11*
X102225000Y-84700000D03*
X102225000Y-79700000D03*
%TD*%
D13*
%TO.C,D11*%
X126000000Y-116812500D03*
X127500000Y-116812500D03*
X127500000Y-111612500D03*
X126000000Y-111612500D03*
%TD*%
D14*
%TO.C,SW2*%
X111430000Y-105080000D03*
D15*
X116510000Y-105080000D03*
D14*
X121590000Y-105080000D03*
D16*
X119050000Y-100000000D03*
X112700000Y-102540000D03*
%TD*%
D13*
%TO.C,D10*%
X106152499Y-117062500D03*
X107652499Y-117062500D03*
X107652499Y-111862500D03*
X106152499Y-111862500D03*
%TD*%
D14*
%TO.C,SW1*%
X92380000Y-105080000D03*
D15*
X97460000Y-105080000D03*
D14*
X102540000Y-105080000D03*
D16*
X100000000Y-100000000D03*
X93650000Y-102540000D03*
%TD*%
D14*
%TO.C,SW4*%
X92380000Y-124130000D03*
D15*
X97460000Y-124130000D03*
D14*
X102540000Y-124130000D03*
D16*
X100000000Y-119050000D03*
X93650000Y-121590000D03*
%TD*%
D17*
%TO.C,J1*%
X108025000Y-80200000D03*
D18*
X108025000Y-82740000D03*
X108025000Y-85280000D03*
X108025000Y-87820000D03*
%TD*%
D14*
%TO.C,SW6*%
X130480000Y-124130000D03*
D15*
X135560000Y-124130000D03*
D14*
X140640000Y-124130000D03*
D16*
X138100000Y-119050000D03*
X131750000Y-121590000D03*
%TD*%
D14*
%TO.C,SW3*%
X130480000Y-105080000D03*
D15*
X135560000Y-105080000D03*
D14*
X140640000Y-105080000D03*
D16*
X138100000Y-100000000D03*
X131750000Y-102540000D03*
%TD*%
D14*
%TO.C,SW5*%
X111430000Y-124130000D03*
D15*
X116510000Y-124130000D03*
D14*
X121590000Y-124130000D03*
D16*
X119050000Y-119050000D03*
X112700000Y-121590000D03*
%TD*%
D14*
%TO.C,SW9*%
X130780000Y-143180000D03*
D15*
X135860000Y-143180000D03*
D14*
X140940000Y-143180000D03*
D16*
X138400000Y-138100000D03*
X132050000Y-140640000D03*
%TD*%
D13*
%TO.C,D13*%
X106299999Y-136800000D03*
X107799999Y-136800000D03*
X107799999Y-131600000D03*
X106299999Y-131600000D03*
%TD*%
D14*
%TO.C,SW8*%
X111430000Y-143180000D03*
D15*
X116510000Y-143180000D03*
D14*
X121590000Y-143180000D03*
D16*
X119050000Y-138100000D03*
X112700000Y-140640000D03*
%TD*%
D14*
%TO.C,SW7*%
X92380000Y-143180000D03*
D15*
X97460000Y-143180000D03*
D14*
X102540000Y-143180000D03*
D16*
X100000000Y-138100000D03*
X93650000Y-140640000D03*
%TD*%
D13*
%TO.C,D12*%
X125502499Y-136812500D03*
X127002499Y-136812500D03*
X127002499Y-131612500D03*
X125502499Y-131612500D03*
%TD*%
D19*
%TO.C,U1*%
X126375000Y-72380000D03*
D20*
X126375000Y-74920000D03*
X126375000Y-77460000D03*
X126375000Y-80000000D03*
X126375000Y-82540000D03*
X126375000Y-85080000D03*
X126375000Y-87620000D03*
X143625000Y-87620000D03*
X143625000Y-85080000D03*
X143625000Y-82540000D03*
D21*
X143625000Y-80000000D03*
X143625000Y-77460000D03*
X143625000Y-74920000D03*
X143625000Y-72380000D03*
%TD*%
D22*
%TO.C,D7*%
X102080000Y-134000000D03*
D23*
X91920000Y-134000000D03*
%TD*%
D22*
%TO.C,D6*%
X140160000Y-115000000D03*
D23*
X130000000Y-115000000D03*
%TD*%
D22*
%TO.C,D3*%
X139810000Y-95000000D03*
D23*
X132190000Y-95000000D03*
%TD*%
D22*
%TO.C,D8*%
X121000000Y-134000000D03*
D23*
X110840000Y-134000000D03*
%TD*%
D22*
%TO.C,D5*%
X121160000Y-115000000D03*
D23*
X111000000Y-115000000D03*
%TD*%
D22*
%TO.C,D9*%
X140080000Y-134000000D03*
D23*
X129920000Y-134000000D03*
%TD*%
D22*
%TO.C,D1*%
X101000000Y-95000000D03*
D23*
X93380000Y-95000000D03*
%TD*%
D22*
%TO.C,D4*%
X102080000Y-115000000D03*
D23*
X91920000Y-115000000D03*
%TD*%
D22*
%TO.C,D2*%
X119620000Y-95000000D03*
D23*
X112000000Y-95000000D03*
%TD*%
M02*
