%TF.GenerationSoftware,KiCad,Pcbnew,8.0.9*%
%TF.CreationDate,2026-07-09T20:50:47+05:30*%
%TF.ProjectId,HackPad1,4861636b-5061-4643-912e-6b696361645f,rev?*%
%TF.SameCoordinates,Original*%
%TF.FileFunction,Copper,L2,Bot*%
%TF.FilePolarity,Positive*%
%FSLAX46Y46*%
G04 Gerber Fmt 4.6, Leading zero omitted, Abs format (unit mm)*
G04 Created by KiCad (PCBNEW 8.0.9) date 2026-07-09 20:50:47*
%MOMM*%
%LPD*%
G01*
G04 APERTURE LIST*
G04 Aperture macros list*
%AMRoundRect*
0 Rectangle with rounded corners*
0 $1 Rounding radius*
0 $2 $3 $4 $5 $6 $7 $8 $9 X,Y pos of 4 corners*
0 Add a 4 corners polygon primitive as box body*
4,1,4,$2,$3,$4,$5,$6,$7,$8,$9,$2,$3,0*
0 Add four circle primitives for the rounded corners*
1,1,$1+$1,$2,$3*
1,1,$1+$1,$4,$5*
1,1,$1+$1,$6,$7*
1,1,$1+$1,$8,$9*
0 Add four rect primitives between the rounded corners*
20,1,$1+$1,$2,$3,$4,$5,0*
20,1,$1+$1,$4,$5,$6,$7,0*
20,1,$1+$1,$6,$7,$8,$9,0*
20,1,$1+$1,$8,$9,$2,$3,0*%
G04 Aperture macros list end*
%TA.AperFunction,ComponentPad*%
%ADD10R,2.000000X2.000000*%
%TD*%
%TA.AperFunction,ComponentPad*%
%ADD11C,2.000000*%
%TD*%
%TA.AperFunction,ComponentPad*%
%ADD12R,3.200000X2.000000*%
%TD*%
%TA.AperFunction,SMDPad,CuDef*%
%ADD13RoundRect,0.082000X-0.328000X-0.718000X0.328000X-0.718000X0.328000X0.718000X-0.328000X0.718000X0*%
%TD*%
%TA.AperFunction,ComponentPad*%
%ADD14C,2.200000*%
%TD*%
%TA.AperFunction,ComponentPad*%
%ADD15R,1.700000X1.700000*%
%TD*%
%TA.AperFunction,ComponentPad*%
%ADD16O,1.700000X1.700000*%
%TD*%
%TA.AperFunction,ComponentPad*%
%ADD17R,3.500000X1.700000*%
%TD*%
%TA.AperFunction,ComponentPad*%
%ADD18O,3.600000X1.700000*%
%TD*%
%TA.AperFunction,ComponentPad*%
%ADD19O,3.700000X1.700000*%
%TD*%
%TA.AperFunction,ComponentPad*%
%ADD20R,1.600000X1.600000*%
%TD*%
%TA.AperFunction,ComponentPad*%
%ADD21O,1.600000X1.600000*%
%TD*%
%TA.AperFunction,ViaPad*%
%ADD22C,0.600000*%
%TD*%
%TA.AperFunction,Conductor*%
%ADD23C,0.200000*%
%TD*%
%TA.AperFunction,Conductor*%
%ADD24C,0.500000*%
%TD*%
G04 APERTURE END LIST*
D10*
%TO.P,SW10,A,A*%
%TO.N,ENCA*%
X87725000Y-79700000D03*
D11*
%TO.P,SW10,B,B*%
%TO.N,ENCB*%
X87725000Y-84700000D03*
%TO.P,SW10,C,C*%
%TO.N,GND*%
X87725000Y-82200000D03*
D12*
%TO.P,SW10,MP*%
%TO.N,N/C*%
X95225000Y-76600000D03*
X95225000Y-87800000D03*
D11*
%TO.P,SW10,S1*%
X102225000Y-84700000D03*
%TO.P,SW10,S2*%
X102225000Y-79700000D03*
%TD*%
D13*
%TO.P,D11,1,VDD*%
%TO.N,+5V*%
X126000000Y-116812500D03*
%TO.P,D11,2,DOUT*%
%TO.N,Net-(D11-DOUT)*%
X127500000Y-116812500D03*
%TO.P,D11,3,VSS*%
%TO.N,GND*%
X127500000Y-111612500D03*
%TO.P,D11,4,DIN*%
%TO.N,Net-(D10-DOUT)*%
X126000000Y-111612500D03*
%TD*%
D14*
%TO.P,SW2,1,1*%
%TO.N,ROW2*%
X119050000Y-100000000D03*
%TO.P,SW2,2,2*%
%TO.N,Net-(D2-A)*%
X112700000Y-102540000D03*
%TD*%
D13*
%TO.P,D10,1,VDD*%
%TO.N,+5V*%
X106152499Y-117062500D03*
%TO.P,D10,2,DOUT*%
%TO.N,Net-(D10-DOUT)*%
X107652499Y-117062500D03*
%TO.P,D10,3,VSS*%
%TO.N,GND*%
X107652499Y-111862500D03*
%TO.P,D10,4,DIN*%
%TO.N,LED_DATA*%
X106152499Y-111862500D03*
%TD*%
D14*
%TO.P,SW1,1,1*%
%TO.N,ROW1*%
X100000000Y-100000000D03*
%TO.P,SW1,2,2*%
%TO.N,Net-(D1-A)*%
X93650000Y-102540000D03*
%TD*%
%TO.P,SW4,1,1*%
%TO.N,ROW1*%
X100000000Y-119050000D03*
%TO.P,SW4,2,2*%
%TO.N,Net-(D4-A)*%
X93650000Y-121590000D03*
%TD*%
D15*
%TO.P,J1,1,Pin_1*%
%TO.N,GND*%
X108025000Y-80200000D03*
D16*
%TO.P,J1,2,Pin_2*%
%TO.N,+3V3*%
X108025000Y-82740000D03*
%TO.P,J1,3,Pin_3*%
%TO.N,SCL*%
X108025000Y-85280000D03*
%TO.P,J1,4,Pin_4*%
%TO.N,SDA*%
X108025000Y-87820000D03*
%TD*%
D14*
%TO.P,SW6,1,1*%
%TO.N,ROW3*%
X138100000Y-119050000D03*
%TO.P,SW6,2,2*%
%TO.N,Net-(D6-A)*%
X131750000Y-121590000D03*
%TD*%
%TO.P,SW3,1,1*%
%TO.N,ROW3*%
X138100000Y-100000000D03*
%TO.P,SW3,2,2*%
%TO.N,Net-(D3-A)*%
X131750000Y-102540000D03*
%TD*%
%TO.P,SW5,1,1*%
%TO.N,ROW2*%
X119050000Y-119050000D03*
%TO.P,SW5,2,2*%
%TO.N,Net-(D5-A)*%
X112700000Y-121590000D03*
%TD*%
%TO.P,SW9,1,1*%
%TO.N,ROW3*%
X138400000Y-138100000D03*
%TO.P,SW9,2,2*%
%TO.N,Net-(D9-A)*%
X132050000Y-140640000D03*
%TD*%
D13*
%TO.P,D13,1,VDD*%
%TO.N,+5V*%
X106299999Y-136800000D03*
%TO.P,D13,2,DOUT*%
%TO.N,unconnected-(D13-DOUT-Pad2)*%
X107799999Y-136800000D03*
%TO.P,D13,3,VSS*%
%TO.N,GND*%
X107799999Y-131600000D03*
%TO.P,D13,4,DIN*%
%TO.N,Net-(D12-DOUT)*%
X106299999Y-131600000D03*
%TD*%
D14*
%TO.P,SW8,1,1*%
%TO.N,ROW2*%
X119050000Y-138100000D03*
%TO.P,SW8,2,2*%
%TO.N,Net-(D8-A)*%
X112700000Y-140640000D03*
%TD*%
%TO.P,SW7,1,1*%
%TO.N,ROW1*%
X100000000Y-138100000D03*
%TO.P,SW7,2,2*%
%TO.N,Net-(D7-A)*%
X93650000Y-140640000D03*
%TD*%
D13*
%TO.P,D12,1,VDD*%
%TO.N,+5V*%
X125502499Y-136812500D03*
%TO.P,D12,2,DOUT*%
%TO.N,Net-(D12-DOUT)*%
X127002499Y-136812500D03*
%TO.P,D12,3,VSS*%
%TO.N,GND*%
X127002499Y-131612500D03*
%TO.P,D12,4,DIN*%
%TO.N,Net-(D11-DOUT)*%
X125502499Y-131612500D03*
%TD*%
D17*
%TO.P,U1,1,PA02_A0_D0*%
%TO.N,COL1*%
X126375000Y-72380000D03*
D18*
%TO.P,U1,2,PA4_A1_D1*%
%TO.N,COL2*%
X126375000Y-74920000D03*
%TO.P,U1,3,PA10_A2_D2*%
%TO.N,COL3*%
X126375000Y-77460000D03*
%TO.P,U1,4,PA11_A3_D3*%
%TO.N,ROW1*%
X126375000Y-80000000D03*
%TO.P,U1,5,PA8_A4_D4_SDA*%
%TO.N,SDA*%
X126375000Y-82540000D03*
%TO.P,U1,6,PA9_A5_D5_SCL*%
%TO.N,SCL*%
X126375000Y-85080000D03*
%TO.P,U1,7,PB08_A6_D6_TX*%
%TO.N,ROW2*%
X126375000Y-87620000D03*
%TO.P,U1,8,PB09_A7_D7_RX*%
%TO.N,ROW3*%
X143625000Y-87620000D03*
%TO.P,U1,9,PA7_A8_D8_SCK*%
%TO.N,LED_DATA*%
X143625000Y-85080000D03*
%TO.P,U1,10,PA5_A9_D9_MISO*%
%TO.N,ENCA*%
X143625000Y-82540000D03*
D19*
%TO.P,U1,11,PA6_A10_D10_MOSI*%
%TO.N,ENCB*%
X143625000Y-80000000D03*
%TO.P,U1,12,3V3*%
%TO.N,+3V3*%
X143625000Y-77460000D03*
%TO.P,U1,13,GND*%
%TO.N,GND*%
X143625000Y-74920000D03*
%TO.P,U1,14,5V*%
%TO.N,+5V*%
X143625000Y-72380000D03*
%TD*%
D20*
%TO.P,D7,1,K*%
%TO.N,COL3*%
X102080000Y-134000000D03*
D21*
%TO.P,D7,2,A*%
%TO.N,Net-(D7-A)*%
X91920000Y-134000000D03*
%TD*%
D20*
%TO.P,D6,1,K*%
%TO.N,COL2*%
X140160000Y-115000000D03*
D21*
%TO.P,D6,2,A*%
%TO.N,Net-(D6-A)*%
X130000000Y-115000000D03*
%TD*%
D20*
%TO.P,D3,1,K*%
%TO.N,COL1*%
X139810000Y-95000000D03*
D21*
%TO.P,D3,2,A*%
%TO.N,Net-(D3-A)*%
X132190000Y-95000000D03*
%TD*%
D20*
%TO.P,D8,1,K*%
%TO.N,COL3*%
X121000000Y-134000000D03*
D21*
%TO.P,D8,2,A*%
%TO.N,Net-(D8-A)*%
X110840000Y-134000000D03*
%TD*%
D20*
%TO.P,D5,1,K*%
%TO.N,COL2*%
X121160000Y-115000000D03*
D21*
%TO.P,D5,2,A*%
%TO.N,Net-(D5-A)*%
X111000000Y-115000000D03*
%TD*%
D20*
%TO.P,D9,1,K*%
%TO.N,COL3*%
X140080000Y-134000000D03*
D21*
%TO.P,D9,2,A*%
%TO.N,Net-(D9-A)*%
X129920000Y-134000000D03*
%TD*%
D20*
%TO.P,D1,1,K*%
%TO.N,COL1*%
X101000000Y-95000000D03*
D21*
%TO.P,D1,2,A*%
%TO.N,Net-(D1-A)*%
X93380000Y-95000000D03*
%TD*%
D20*
%TO.P,D4,1,K*%
%TO.N,COL2*%
X102080000Y-115000000D03*
D21*
%TO.P,D4,2,A*%
%TO.N,Net-(D4-A)*%
X91920000Y-115000000D03*
%TD*%
D20*
%TO.P,D2,1,K*%
%TO.N,COL1*%
X119620000Y-95000000D03*
D21*
%TO.P,D2,2,A*%
%TO.N,Net-(D2-A)*%
X112000000Y-95000000D03*
%TD*%
D22*
%TO.N,GND*%
X95000000Y-72000000D03*
X96500000Y-73500000D03*
%TO.N,COL2*%
X123497200Y-118937800D03*
X126576500Y-119157400D03*
%TO.N,+5V*%
X122867700Y-114817000D03*
%TO.N,Net-(D12-DOUT)*%
X105116150Y-138883850D03*
X104000000Y-133500000D03*
%TD*%
D23*
%TO.N,COL1*%
X121823400Y-93898300D02*
X137606600Y-93898300D01*
X119620000Y-95000000D02*
X120721700Y-95000000D01*
X101000000Y-95000000D02*
X102101700Y-95000000D01*
X139810000Y-95000000D02*
X138708300Y-95000000D01*
X103203400Y-93898300D02*
X102101700Y-95000000D01*
X118518300Y-95000000D02*
X117416600Y-93898300D01*
X120721700Y-95000000D02*
X121823400Y-93898300D01*
X137606600Y-93898300D02*
X138708300Y-95000000D01*
X119620000Y-95000000D02*
X118518300Y-95000000D01*
X117416600Y-93898300D02*
X103203400Y-93898300D01*
D24*
%TO.N,GND*%
X108025000Y-80200000D02*
X106700000Y-80200000D01*
X87725000Y-82200000D02*
X86800000Y-82200000D01*
X107799999Y-131600000D02*
X109100000Y-131600000D01*
X109100000Y-131600000D02*
X109500000Y-132000000D01*
X107652499Y-111862500D02*
X108862500Y-111862500D01*
X108862500Y-111862500D02*
X109000000Y-112000000D01*
X142625000Y-74920000D02*
X146420000Y-74920000D01*
X106700000Y-80200000D02*
X106500000Y-80000000D01*
X86800000Y-82200000D02*
X86000000Y-83000000D01*
X146420000Y-74920000D02*
X146500000Y-75000000D01*
D23*
%TO.N,COL2*%
X121949200Y-120485800D02*
X113578200Y-120485800D01*
X134900900Y-119157400D02*
X139058300Y-115000000D01*
X102080000Y-115000000D02*
X103181700Y-115000000D01*
X126576500Y-119157400D02*
X134900900Y-119157400D01*
X107204400Y-119711300D02*
X103181700Y-115688600D01*
X112803700Y-119711300D02*
X107204400Y-119711300D01*
X113578200Y-120485800D02*
X112803700Y-119711300D01*
X123497200Y-118937800D02*
X121949200Y-120485800D01*
X140160000Y-115000000D02*
X139058300Y-115000000D01*
X103181700Y-115688600D02*
X103181700Y-115000000D01*
%TO.N,COL3*%
X121000000Y-134000000D02*
X119898300Y-134000000D01*
X103181700Y-133036000D02*
X103181700Y-134000000D01*
X116348900Y-130450600D02*
X105767100Y-130450600D01*
X119898300Y-134000000D02*
X116348900Y-130450600D01*
X105767100Y-130450600D02*
X103181700Y-133036000D01*
X102080000Y-134000000D02*
X103181700Y-134000000D01*
D24*
%TO.N,+5V*%
X121268900Y-139687500D02*
X115480600Y-139687500D01*
X125502500Y-136812500D02*
X124143900Y-136812500D01*
X116396500Y-118350600D02*
X117253300Y-117493800D01*
X124248900Y-119249200D02*
X124248900Y-118176100D01*
X107914600Y-138787300D02*
X106300000Y-137172700D01*
X123500000Y-136168600D02*
X123500000Y-119998100D01*
X106300000Y-137172700D02*
X106300000Y-136800000D01*
X122867700Y-114817000D02*
X122867700Y-116794900D01*
X114580400Y-138787300D02*
X107914600Y-138787300D01*
X124143900Y-136812500D02*
X121268900Y-139687500D01*
X122885300Y-116812500D02*
X122867700Y-116794900D01*
X123500000Y-118000000D02*
X123676100Y-118176100D01*
X117253300Y-117493800D02*
X123566600Y-117493800D01*
X123500000Y-117560400D02*
X123500000Y-118000000D01*
X124143900Y-136812500D02*
X123500000Y-136168600D01*
X123676100Y-118176100D02*
X124248900Y-118176100D01*
X122867700Y-116794900D02*
X123566600Y-117493800D01*
X115480600Y-139687500D02*
X114580400Y-138787300D01*
X107093700Y-118350600D02*
X116396500Y-118350600D01*
X126000000Y-116812500D02*
X122885300Y-116812500D01*
X123500000Y-119998100D02*
X124248900Y-119249200D01*
X106152500Y-117062500D02*
X106152500Y-117409400D01*
X106152500Y-117409400D02*
X107093700Y-118350600D01*
D23*
%TO.N,Net-(D10-DOUT)*%
X117419500Y-111612500D02*
X111969500Y-117062500D01*
X126000000Y-111612500D02*
X117419500Y-111612500D01*
X111969500Y-117062500D02*
X107652500Y-117062500D01*
%TO.N,LED_DATA*%
X141523300Y-85080000D02*
X141523300Y-95367300D01*
X142625000Y-85080000D02*
X141523300Y-85080000D01*
X132159800Y-98481600D02*
X121953600Y-108687800D01*
X121953600Y-108687800D02*
X109227900Y-108687800D01*
X109227900Y-108687800D02*
X106152500Y-111763200D01*
X141523300Y-95367300D02*
X138409000Y-98481600D01*
X138409000Y-98481600D02*
X132159800Y-98481600D01*
X106152500Y-111763200D02*
X106152500Y-111862500D01*
%TO.N,Net-(D11-DOUT)*%
X127000000Y-118500000D02*
X125705000Y-118500000D01*
X127500000Y-116812500D02*
X127500000Y-118000000D01*
X125705000Y-118500000D02*
X125502500Y-118702500D01*
X127500000Y-118000000D02*
X127000000Y-118500000D01*
X125502500Y-118702500D02*
X125502500Y-131612500D01*
%TO.N,Net-(D12-DOUT)*%
X110818700Y-144586400D02*
X105116150Y-138883850D01*
X105116150Y-138883850D02*
X105066900Y-138834600D01*
X115493100Y-140575300D02*
X113020200Y-143048200D01*
X123344800Y-140575300D02*
X115493100Y-140575300D01*
X127002500Y-136812500D02*
X127002500Y-136917600D01*
X127002500Y-136917600D02*
X123344800Y-140575300D01*
X105183386Y-131600000D02*
X103641693Y-133141693D01*
X113020200Y-143581300D02*
X112015100Y-144586400D01*
X106299999Y-131600000D02*
X105183386Y-131600000D01*
X112015100Y-144586400D02*
X110818700Y-144586400D01*
X106026700Y-131600000D02*
X106300000Y-131600000D01*
X103641693Y-133141693D02*
X104000000Y-133500000D01*
X113020200Y-143048200D02*
X113020200Y-143581300D01*
D24*
%TO.N,+3V3*%
X109326700Y-82740000D02*
X120993400Y-71073300D01*
X142625000Y-77460000D02*
X141323300Y-77460000D01*
X120993400Y-71073300D02*
X134936600Y-71073300D01*
X134936600Y-71073300D02*
X141323300Y-77460000D01*
X108025000Y-82740000D02*
X109326700Y-82740000D01*
D23*
%TO.N,SDA*%
X108025000Y-87820000D02*
X109176700Y-87820000D01*
X110566500Y-86430200D02*
X109176700Y-87820000D01*
X128476700Y-85626200D02*
X127672700Y-86430200D01*
X127375000Y-82540000D02*
X128476700Y-82540000D01*
X128476700Y-82540000D02*
X128476700Y-85626200D01*
X127672700Y-86430200D02*
X110566500Y-86430200D01*
%TO.N,SCL*%
X127375000Y-85080000D02*
X109210400Y-85080000D01*
X109210400Y-85080000D02*
X109010400Y-85280000D01*
X108025000Y-85280000D02*
X109010400Y-85280000D01*
%TO.N,ROW1*%
X127375000Y-80000000D02*
X128476700Y-80000000D01*
X99898300Y-99898300D02*
X100000000Y-100000000D01*
X101398800Y-92536900D02*
X99898300Y-94037400D01*
X128476700Y-80000000D02*
X128880900Y-80404200D01*
X99898300Y-94037400D02*
X99898300Y-99898300D01*
X124100700Y-92536900D02*
X101398800Y-92536900D01*
X128880900Y-80404200D02*
X128880900Y-87756700D01*
X128880900Y-87756700D02*
X124100700Y-92536900D01*
%TO.N,ENCA*%
X145726700Y-82540000D02*
X145793800Y-82472900D01*
X142625000Y-82540000D02*
X145726700Y-82540000D01*
X98263600Y-70463100D02*
X89026700Y-79700000D01*
X142194100Y-76190000D02*
X136467200Y-70463100D01*
X144993200Y-76190000D02*
X142194100Y-76190000D01*
X145793800Y-82472900D02*
X145793800Y-76990600D01*
X136467200Y-70463100D02*
X98263600Y-70463100D01*
X87725000Y-79700000D02*
X89026700Y-79700000D01*
X145793800Y-76990600D02*
X144993200Y-76190000D01*
%TO.N,ENCB*%
X141473300Y-80000000D02*
X140282700Y-78809400D01*
X140282700Y-78809400D02*
X114731000Y-78809400D01*
X142625000Y-80000000D02*
X141473300Y-80000000D01*
X89043300Y-83381700D02*
X87725000Y-84700000D01*
X103553000Y-83912700D02*
X103022000Y-83381700D01*
X109627700Y-83912700D02*
X103553000Y-83912700D01*
X114731000Y-78809400D02*
X109627700Y-83912700D01*
X103022000Y-83381700D02*
X89043300Y-83381700D01*
%TD*%
%TA.AperFunction,Conductor*%
%TO.N,GND*%
G36*
X119709410Y-71083285D02*
G01*
X119755165Y-71136089D01*
X119765109Y-71205247D01*
X119736084Y-71268803D01*
X119730052Y-71275281D01*
X109187795Y-81817536D01*
X109126472Y-81851021D01*
X109056780Y-81846037D01*
X109012433Y-81817537D01*
X108994797Y-81799901D01*
X108941179Y-81746283D01*
X108907696Y-81684963D01*
X108912680Y-81615271D01*
X108954551Y-81559337D01*
X108985529Y-81542422D01*
X109117086Y-81493354D01*
X109117093Y-81493350D01*
X109232187Y-81407190D01*
X109232190Y-81407187D01*
X109318350Y-81292093D01*
X109318354Y-81292086D01*
X109368596Y-81157379D01*
X109368598Y-81157372D01*
X109374999Y-81097844D01*
X109375000Y-81097827D01*
X109375000Y-80450000D01*
X108458012Y-80450000D01*
X108490925Y-80392993D01*
X108525000Y-80265826D01*
X108525000Y-80134174D01*
X108490925Y-80007007D01*
X108458012Y-79950000D01*
X109375000Y-79950000D01*
X109375000Y-79302172D01*
X109374999Y-79302155D01*
X109368598Y-79242627D01*
X109368596Y-79242620D01*
X109318354Y-79107913D01*
X109318350Y-79107906D01*
X109232190Y-78992812D01*
X109232187Y-78992809D01*
X109117093Y-78906649D01*
X109117086Y-78906645D01*
X108982379Y-78856403D01*
X108982372Y-78856401D01*
X108922844Y-78850000D01*
X108275000Y-78850000D01*
X108275000Y-79766988D01*
X108217993Y-79734075D01*
X108090826Y-79700000D01*
X107959174Y-79700000D01*
X107832007Y-79734075D01*
X107775000Y-79766988D01*
X107775000Y-78850000D01*
X107127155Y-78850000D01*
X107067627Y-78856401D01*
X107067620Y-78856403D01*
X106932913Y-78906645D01*
X106932906Y-78906649D01*
X106817812Y-78992809D01*
X106817809Y-78992812D01*
X106731649Y-79107906D01*
X106731645Y-79107913D01*
X106681403Y-79242620D01*
X106681401Y-79242627D01*
X106675000Y-79302155D01*
X106675000Y-79950000D01*
X107591988Y-79950000D01*
X107559075Y-80007007D01*
X107525000Y-80134174D01*
X107525000Y-80265826D01*
X107559075Y-80392993D01*
X107591988Y-80450000D01*
X106675000Y-80450000D01*
X106675000Y-81097844D01*
X106681401Y-81157372D01*
X106681403Y-81157379D01*
X106731645Y-81292086D01*
X106731649Y-81292093D01*
X106817809Y-81407187D01*
X106817812Y-81407190D01*
X106932906Y-81493350D01*
X106932913Y-81493354D01*
X107064470Y-81542421D01*
X107120403Y-81584292D01*
X107144821Y-81649756D01*
X107129970Y-81718029D01*
X107108819Y-81746284D01*
X106986503Y-81868600D01*
X106850965Y-82062169D01*
X106850964Y-82062171D01*
X106751098Y-82276335D01*
X106751094Y-82276344D01*
X106689938Y-82504586D01*
X106689936Y-82504596D01*
X106669341Y-82739999D01*
X106669341Y-82740000D01*
X106689936Y-82975403D01*
X106689938Y-82975413D01*
X106738354Y-83156107D01*
X106736691Y-83225957D01*
X106697528Y-83283819D01*
X106633299Y-83311323D01*
X106618579Y-83312200D01*
X103853097Y-83312200D01*
X103786058Y-83292515D01*
X103765416Y-83275881D01*
X103509590Y-83020055D01*
X103509588Y-83020052D01*
X103390717Y-82901181D01*
X103390716Y-82901180D01*
X103303904Y-82851060D01*
X103303904Y-82851059D01*
X103303900Y-82851058D01*
X103253785Y-82822123D01*
X103101057Y-82781199D01*
X102942943Y-82781199D01*
X102935347Y-82781199D01*
X102935331Y-82781200D01*
X89284484Y-82781200D01*
X89217445Y-82761515D01*
X89171690Y-82708711D01*
X89161746Y-82639553D01*
X89164278Y-82626759D01*
X89209612Y-82447738D01*
X89209614Y-82447729D01*
X89230141Y-82200005D01*
X89230141Y-82199994D01*
X89209614Y-81952270D01*
X89209612Y-81952261D01*
X89148587Y-81711282D01*
X89048732Y-81483632D01*
X88936515Y-81311870D01*
X88916328Y-81244981D01*
X88935508Y-81177795D01*
X88966013Y-81144782D01*
X88967329Y-81143796D01*
X88967331Y-81143796D01*
X89082546Y-81057546D01*
X89168796Y-80942331D01*
X89219091Y-80807483D01*
X89225500Y-80747873D01*
X89225499Y-80350210D01*
X89245183Y-80283172D01*
X89287494Y-80242827D01*
X89308604Y-80230639D01*
X89395416Y-80180520D01*
X89507220Y-80068716D01*
X89507220Y-80068714D01*
X89517428Y-80058507D01*
X89517430Y-80058504D01*
X89875940Y-79699994D01*
X100719357Y-79699994D01*
X100719357Y-79700005D01*
X100739890Y-79947812D01*
X100739892Y-79947824D01*
X100800936Y-80188881D01*
X100900826Y-80416606D01*
X101036833Y-80624782D01*
X101036836Y-80624785D01*
X101205256Y-80807738D01*
X101401491Y-80960474D01*
X101620190Y-81078828D01*
X101809435Y-81143796D01*
X101848980Y-81157372D01*
X101855386Y-81159571D01*
X102100665Y-81200500D01*
X102349335Y-81200500D01*
X102594614Y-81159571D01*
X102829810Y-81078828D01*
X103048509Y-80960474D01*
X103244744Y-80807738D01*
X103413164Y-80624785D01*
X103549173Y-80416607D01*
X103649063Y-80188881D01*
X103710108Y-79947821D01*
X103710109Y-79947812D01*
X103730643Y-79700005D01*
X103730643Y-79699994D01*
X103710109Y-79452187D01*
X103710107Y-79452175D01*
X103649063Y-79211118D01*
X103549173Y-78983393D01*
X103413166Y-78775217D01*
X103371541Y-78730000D01*
X103244744Y-78592262D01*
X103048509Y-78439526D01*
X103048507Y-78439525D01*
X103048506Y-78439524D01*
X102829811Y-78321172D01*
X102829802Y-78321169D01*
X102594616Y-78240429D01*
X102349335Y-78199500D01*
X102100665Y-78199500D01*
X101855383Y-78240429D01*
X101620197Y-78321169D01*
X101620188Y-78321172D01*
X101401493Y-78439524D01*
X101205257Y-78592261D01*
X101036833Y-78775217D01*
X100900826Y-78983393D01*
X100800936Y-79211118D01*
X100739892Y-79452175D01*
X100739890Y-79452187D01*
X100719357Y-79699994D01*
X89875940Y-79699994D01*
X92912821Y-76663112D01*
X92974142Y-76629629D01*
X93043834Y-76634613D01*
X93099767Y-76676485D01*
X93124184Y-76741949D01*
X93124500Y-76750795D01*
X93124500Y-77647870D01*
X93124501Y-77647876D01*
X93130908Y-77707483D01*
X93181202Y-77842328D01*
X93181206Y-77842335D01*
X93267452Y-77957544D01*
X93267455Y-77957547D01*
X93382664Y-78043793D01*
X93382671Y-78043797D01*
X93517517Y-78094091D01*
X93517516Y-78094091D01*
X93524444Y-78094835D01*
X93577127Y-78100500D01*
X96872872Y-78100499D01*
X96932483Y-78094091D01*
X97067331Y-78043796D01*
X97182546Y-77957546D01*
X97268796Y-77842331D01*
X97319091Y-77707483D01*
X97325500Y-77647873D01*
X97325499Y-75552128D01*
X97319091Y-75492517D01*
X97298838Y-75438217D01*
X97268797Y-75357671D01*
X97268793Y-75357664D01*
X97182547Y-75242455D01*
X97182544Y-75242452D01*
X97067335Y-75156206D01*
X97067328Y-75156202D01*
X96932482Y-75105908D01*
X96932483Y-75105908D01*
X96872883Y-75099501D01*
X96872881Y-75099500D01*
X96872873Y-75099500D01*
X96872865Y-75099500D01*
X94775796Y-75099500D01*
X94708757Y-75079815D01*
X94663002Y-75027011D01*
X94653058Y-74957853D01*
X94682083Y-74894297D01*
X94688115Y-74887819D01*
X98476016Y-71099919D01*
X98537339Y-71066434D01*
X98563697Y-71063600D01*
X119642371Y-71063600D01*
X119709410Y-71083285D01*
G37*
%TD.AperFunction*%
%TA.AperFunction,Conductor*%
G36*
X155442539Y-68020185D02*
G01*
X155488294Y-68072989D01*
X155499500Y-68124500D01*
X155499500Y-155375500D01*
X155479815Y-155442539D01*
X155427011Y-155488294D01*
X155375500Y-155499500D01*
X78124500Y-155499500D01*
X78057461Y-155479815D01*
X78011706Y-155427011D01*
X78000500Y-155375500D01*
X78000500Y-143093389D01*
X91279500Y-143093389D01*
X91279500Y-143266611D01*
X91306598Y-143437701D01*
X91360127Y-143602445D01*
X91438768Y-143756788D01*
X91540586Y-143896928D01*
X91663072Y-144019414D01*
X91803212Y-144121232D01*
X91957555Y-144199873D01*
X92122299Y-144253402D01*
X92293389Y-144280500D01*
X92293390Y-144280500D01*
X92466610Y-144280500D01*
X92466611Y-144280500D01*
X92637701Y-144253402D01*
X92802445Y-144199873D01*
X92956788Y-144121232D01*
X93096928Y-144019414D01*
X93219414Y-143896928D01*
X93321232Y-143756788D01*
X93399873Y-143602445D01*
X93453402Y-143437701D01*
X93480500Y-143266611D01*
X93480500Y-143093389D01*
X93470854Y-143032486D01*
X95209500Y-143032486D01*
X95209500Y-143327513D01*
X95232505Y-143502243D01*
X95248007Y-143619993D01*
X95322212Y-143896930D01*
X95324361Y-143904951D01*
X95324364Y-143904961D01*
X95437254Y-144177500D01*
X95437258Y-144177510D01*
X95584761Y-144432993D01*
X95764352Y-144667040D01*
X95764358Y-144667047D01*
X95972952Y-144875641D01*
X95972959Y-144875647D01*
X96207006Y-145055238D01*
X96462489Y-145202741D01*
X96462490Y-145202741D01*
X96462493Y-145202743D01*
X96735048Y-145315639D01*
X97020007Y-145391993D01*
X97312494Y-145430500D01*
X97312501Y-145430500D01*
X97607499Y-145430500D01*
X97607506Y-145430500D01*
X97899993Y-145391993D01*
X98184952Y-145315639D01*
X98457507Y-145202743D01*
X98712994Y-145055238D01*
X98947042Y-144875646D01*
X99155646Y-144667042D01*
X99335238Y-144432994D01*
X99482743Y-144177507D01*
X99595639Y-143904952D01*
X99671993Y-143619993D01*
X99710500Y-143327506D01*
X99710500Y-143093389D01*
X101439500Y-143093389D01*
X101439500Y-143266611D01*
X101466598Y-143437701D01*
X101520127Y-143602445D01*
X101598768Y-143756788D01*
X101700586Y-143896928D01*
X101823072Y-144019414D01*
X101963212Y-144121232D01*
X102117555Y-144199873D01*
X102282299Y-144253402D01*
X102453389Y-144280500D01*
X102453390Y-144280500D01*
X102626610Y-144280500D01*
X102626611Y-144280500D01*
X102797701Y-144253402D01*
X102962445Y-144199873D01*
X103116788Y-144121232D01*
X103256928Y-144019414D01*
X103379414Y-143896928D01*
X103481232Y-143756788D01*
X103559873Y-143602445D01*
X103613402Y-143437701D01*
X103640500Y-143266611D01*
X103640500Y-143093389D01*
X103613402Y-142922299D01*
X103559873Y-142757555D01*
X103481232Y-142603212D01*
X103379414Y-142463072D01*
X103256928Y-142340586D01*
X103116788Y-142238768D01*
X102962445Y-142160127D01*
X102797701Y-142106598D01*
X102797699Y-142106597D01*
X102797698Y-142106597D01*
X102666271Y-142085781D01*
X102626611Y-142079500D01*
X102453389Y-142079500D01*
X102413728Y-142085781D01*
X102282302Y-142106597D01*
X102117552Y-142160128D01*
X101963211Y-142238768D01*
X101883256Y-142296859D01*
X101823072Y-142340586D01*
X101823070Y-142340588D01*
X101823069Y-142340588D01*
X101700588Y-142463069D01*
X101700588Y-142463070D01*
X101700586Y-142463072D01*
X101656859Y-142523256D01*
X101598768Y-142603211D01*
X101520128Y-142757552D01*
X101466597Y-142922302D01*
X101440745Y-143085530D01*
X101439500Y-143093389D01*
X99710500Y-143093389D01*
X99710500Y-143032494D01*
X99671993Y-142740007D01*
X99595639Y-142455048D01*
X99482743Y-142182493D01*
X99418064Y-142070466D01*
X99335238Y-141927006D01*
X99155647Y-141692959D01*
X99155641Y-141692952D01*
X98947047Y-141484358D01*
X98947040Y-141484352D01*
X98712993Y-141304761D01*
X98457510Y-141157258D01*
X98457500Y-141157254D01*
X98184961Y-141044364D01*
X98184954Y-141044362D01*
X98184952Y-141044361D01*
X97899993Y-140968007D01*
X97851113Y-140961571D01*
X97607513Y-140929500D01*
X97607506Y-140929500D01*
X97312494Y-140929500D01*
X97312486Y-140929500D01*
X97034085Y-140966153D01*
X97020007Y-140968007D01*
X96735048Y-141044361D01*
X96735038Y-141044364D01*
X96462499Y-141157254D01*
X96462489Y-141157258D01*
X96207006Y-141304761D01*
X95972959Y-141484352D01*
X95972952Y-141484358D01*
X95764358Y-141692952D01*
X95764352Y-141692959D01*
X95584761Y-141927006D01*
X95437258Y-142182489D01*
X95437254Y-142182499D01*
X95324364Y-142455038D01*
X95324361Y-142455048D01*
X95273559Y-142644647D01*
X95248008Y-142740004D01*
X95248006Y-142740015D01*
X95209500Y-143032486D01*
X93470854Y-143032486D01*
X93453402Y-142922299D01*
X93399873Y-142757555D01*
X93321232Y-142603212D01*
X93219414Y-142463072D01*
X93161232Y-142404890D01*
X93127747Y-142343567D01*
X93132731Y-142273875D01*
X93174603Y-142217942D01*
X93240067Y-142193525D01*
X93277856Y-142196634D01*
X93398852Y-142225683D01*
X93650000Y-142245449D01*
X93901148Y-142225683D01*
X94146111Y-142166873D01*
X94378859Y-142070466D01*
X94593659Y-141938836D01*
X94785224Y-141775224D01*
X94948836Y-141583659D01*
X95080466Y-141368859D01*
X95176873Y-141136111D01*
X95235683Y-140891148D01*
X95255449Y-140640000D01*
X95235683Y-140388852D01*
X95176873Y-140143889D01*
X95080466Y-139911140D01*
X94948839Y-139696346D01*
X94948838Y-139696343D01*
X94889505Y-139626873D01*
X94785224Y-139504776D01*
X94627717Y-139370252D01*
X94593656Y-139341161D01*
X94593653Y-139341160D01*
X94378859Y-139209533D01*
X94146110Y-139113126D01*
X93901151Y-139054317D01*
X93650000Y-139034551D01*
X93398848Y-139054317D01*
X93153889Y-139113126D01*
X92921140Y-139209533D01*
X92706346Y-139341160D01*
X92706343Y-139341161D01*
X92514776Y-139504776D01*
X92351161Y-139696343D01*
X92351160Y-139696346D01*
X92219533Y-139911140D01*
X92123126Y-140143889D01*
X92064317Y-140388848D01*
X92044551Y-140640000D01*
X92064317Y-140891151D01*
X92123126Y-141136110D01*
X92219533Y-141368859D01*
X92351160Y-141583653D01*
X92351161Y-141583656D01*
X92351164Y-141583659D01*
X92514776Y-141775224D01*
X92628783Y-141872595D01*
X92666976Y-141931102D01*
X92667474Y-142000970D01*
X92630121Y-142060016D01*
X92566774Y-142089494D01*
X92528854Y-142089358D01*
X92466611Y-142079500D01*
X92293389Y-142079500D01*
X92253728Y-142085781D01*
X92122302Y-142106597D01*
X91957552Y-142160128D01*
X91803211Y-142238768D01*
X91723256Y-142296859D01*
X91663072Y-142340586D01*
X91663070Y-142340588D01*
X91663069Y-142340588D01*
X91540588Y-142463069D01*
X91540588Y-142463070D01*
X91540586Y-142463072D01*
X91496859Y-142523256D01*
X91438768Y-142603211D01*
X91360128Y-142757552D01*
X91306597Y-142922302D01*
X91280745Y-143085530D01*
X91279500Y-143093389D01*
X78000500Y-143093389D01*
X78000500Y-138100000D01*
X98394551Y-138100000D01*
X98414317Y-138351151D01*
X98473126Y-138596110D01*
X98569533Y-138828859D01*
X98701160Y-139043653D01*
X98701161Y-139043656D01*
X98717772Y-139063105D01*
X98864776Y-139235224D01*
X98900478Y-139265716D01*
X99056343Y-139398838D01*
X99056346Y-139398839D01*
X99271140Y-139530466D01*
X99503889Y-139626873D01*
X99748852Y-139685683D01*
X100000000Y-139705449D01*
X100251148Y-139685683D01*
X100496111Y-139626873D01*
X100728859Y-139530466D01*
X100943659Y-139398836D01*
X101135224Y-139235224D01*
X101298836Y-139043659D01*
X101430466Y-138828859D01*
X101526873Y-138596111D01*
X101585683Y-138351148D01*
X101605449Y-138100000D01*
X101585683Y-137848852D01*
X101526873Y-137603889D01*
X101430466Y-137371141D01*
X101430466Y-137371140D01*
X101298839Y-137156346D01*
X101298838Y-137156343D01*
X101261875Y-137113066D01*
X101135224Y-136964776D01*
X100956931Y-136812499D01*
X100943656Y-136801161D01*
X100943653Y-136801160D01*
X100728859Y-136669533D01*
X100496110Y-136573126D01*
X100251151Y-136514317D01*
X100000000Y-136494551D01*
X99748848Y-136514317D01*
X99503889Y-136573126D01*
X99271140Y-136669533D01*
X99056346Y-136801160D01*
X99056343Y-136801161D01*
X98864776Y-136964776D01*
X98701161Y-137156343D01*
X98701160Y-137156346D01*
X98569533Y-137371140D01*
X98473126Y-137603889D01*
X98414317Y-137848848D01*
X98394551Y-138100000D01*
X78000500Y-138100000D01*
X78000500Y-133999998D01*
X90614532Y-133999998D01*
X90614532Y-134000001D01*
X90634364Y-134226686D01*
X90634366Y-134226697D01*
X90693258Y-134446488D01*
X90693261Y-134446497D01*
X90789431Y-134652732D01*
X90789432Y-134652734D01*
X90919954Y-134839141D01*
X91080858Y-135000045D01*
X91080861Y-135000047D01*
X91267266Y-135130568D01*
X91473504Y-135226739D01*
X91693308Y-135285635D01*
X91855230Y-135299801D01*
X91919998Y-135305468D01*
X91920000Y-135305468D01*
X91920002Y-135305468D01*
X91976807Y-135300498D01*
X92146692Y-135285635D01*
X92366496Y-135226739D01*
X92572734Y-135130568D01*
X92759139Y-135000047D01*
X92920047Y-134839139D01*
X93050568Y-134652734D01*
X93146739Y-134446496D01*
X93205635Y-134226692D01*
X93225468Y-134000000D01*
X93205635Y-133773308D01*
X93146739Y-133553504D01*
X93050568Y-133347266D01*
X92920047Y-133160861D01*
X92920045Y-133160858D01*
X92759141Y-132999954D01*
X92572734Y-132869432D01*
X92572732Y-132869431D01*
X92366497Y-132773261D01*
X92366488Y-132773258D01*
X92146697Y-132714366D01*
X92146693Y-132714365D01*
X92146692Y-132714365D01*
X92146691Y-132714364D01*
X92146686Y-132714364D01*
X91920002Y-132694532D01*
X91919998Y-132694532D01*
X91693313Y-132714364D01*
X91693302Y-132714366D01*
X91473511Y-132773258D01*
X91473502Y-132773261D01*
X91267267Y-132869431D01*
X91267265Y-132869432D01*
X91080858Y-132999954D01*
X90919954Y-133160858D01*
X90789432Y-133347265D01*
X90789431Y-133347267D01*
X90693261Y-133553502D01*
X90693258Y-133553511D01*
X90634366Y-133773302D01*
X90634364Y-133773313D01*
X90614532Y-133999998D01*
X78000500Y-133999998D01*
X78000500Y-124043389D01*
X91279500Y-124043389D01*
X91279500Y-124216611D01*
X91306598Y-124387701D01*
X91360127Y-124552445D01*
X91438768Y-124706788D01*
X91540586Y-124846928D01*
X91663072Y-124969414D01*
X91803212Y-125071232D01*
X91957555Y-125149873D01*
X92122299Y-125203402D01*
X92293389Y-125230500D01*
X92293390Y-125230500D01*
X92466610Y-125230500D01*
X92466611Y-125230500D01*
X92637701Y-125203402D01*
X92802445Y-125149873D01*
X92956788Y-125071232D01*
X93096928Y-124969414D01*
X93219414Y-124846928D01*
X93321232Y-124706788D01*
X93399873Y-124552445D01*
X93453402Y-124387701D01*
X93480500Y-124216611D01*
X93480500Y-124043389D01*
X93470854Y-123982486D01*
X95209500Y-123982486D01*
X95209500Y-124277513D01*
X95241571Y-124521113D01*
X95248007Y-124569993D01*
X95322212Y-124846930D01*
X95324361Y-124854951D01*
X95324364Y-124854961D01*
X95437254Y-125127500D01*
X95437258Y-125127510D01*
X95584761Y-125382993D01*
X95764352Y-125617040D01*
X95764358Y-125617047D01*
X95972952Y-125825641D01*
X95972959Y-125825647D01*
X96207006Y-126005238D01*
X96462489Y-126152741D01*
X96462490Y-126152741D01*
X96462493Y-126152743D01*
X96735048Y-126265639D01*
X97020007Y-126341993D01*
X97312494Y-126380500D01*
X97312501Y-126380500D01*
X97607499Y-126380500D01*
X97607506Y-126380500D01*
X97899993Y-126341993D01*
X98184952Y-126265639D01*
X98457507Y-126152743D01*
X98712994Y-126005238D01*
X98947042Y-125825646D01*
X99155646Y-125617042D01*
X99335238Y-125382994D01*
X99482743Y-125127507D01*
X99595639Y-124854952D01*
X99671993Y-124569993D01*
X99710500Y-124277506D01*
X99710500Y-124043389D01*
X101439500Y-124043389D01*
X101439500Y-124216611D01*
X101466598Y-124387701D01*
X101520127Y-124552445D01*
X101598768Y-124706788D01*
X101700586Y-124846928D01*
X101823072Y-124969414D01*
X101963212Y-125071232D01*
X102117555Y-125149873D01*
X102282299Y-125203402D01*
X102453389Y-125230500D01*
X102453390Y-125230500D01*
X102626610Y-125230500D01*
X102626611Y-125230500D01*
X102797701Y-125203402D01*
X102962445Y-125149873D01*
X103116788Y-125071232D01*
X103256928Y-124969414D01*
X103379414Y-124846928D01*
X103481232Y-124706788D01*
X103559873Y-124552445D01*
X103613402Y-124387701D01*
X103640500Y-124216611D01*
X103640500Y-124043389D01*
X103613402Y-123872299D01*
X103559873Y-123707555D01*
X103481232Y-123553212D01*
X103379414Y-123413072D01*
X103256928Y-123290586D01*
X103116788Y-123188768D01*
X102962445Y-123110127D01*
X102797701Y-123056598D01*
X102797699Y-123056597D01*
X102797698Y-123056597D01*
X102666271Y-123035781D01*
X102626611Y-123029500D01*
X102453389Y-123029500D01*
X102413728Y-123035781D01*
X102282302Y-123056597D01*
X102117552Y-123110128D01*
X101963211Y-123188768D01*
X101883256Y-123246859D01*
X101823072Y-123290586D01*
X101823070Y-123290588D01*
X101823069Y-123290588D01*
X101700588Y-123413069D01*
X101700588Y-123413070D01*
X101700586Y-123413072D01*
X101657773Y-123471999D01*
X101598768Y-123553211D01*
X101520128Y-123707552D01*
X101466597Y-123872302D01*
X101449146Y-123982486D01*
X101439500Y-124043389D01*
X99710500Y-124043389D01*
X99710500Y-123982494D01*
X99671993Y-123690007D01*
X99595639Y-123405048D01*
X99482743Y-123132493D01*
X99418064Y-123020466D01*
X99335238Y-122877006D01*
X99155647Y-122642959D01*
X99155641Y-122642952D01*
X98947047Y-122434358D01*
X98947040Y-122434352D01*
X98712993Y-122254761D01*
X98457510Y-122107258D01*
X98457500Y-122107254D01*
X98184961Y-121994364D01*
X98184954Y-121994362D01*
X98184952Y-121994361D01*
X97899993Y-121918007D01*
X97851113Y-121911571D01*
X97607513Y-121879500D01*
X97607506Y-121879500D01*
X97312494Y-121879500D01*
X97312486Y-121879500D01*
X97034085Y-121916153D01*
X97020007Y-121918007D01*
X96735048Y-121994361D01*
X96735038Y-121994364D01*
X96462499Y-122107254D01*
X96462489Y-122107258D01*
X96207006Y-122254761D01*
X95972959Y-122434352D01*
X95972952Y-122434358D01*
X95764358Y-122642952D01*
X95764352Y-122642959D01*
X95584761Y-122877006D01*
X95437258Y-123132489D01*
X95437254Y-123132499D01*
X95324364Y-123405038D01*
X95324361Y-123405048D01*
X95248008Y-123690004D01*
X95248006Y-123690015D01*
X95209500Y-123982486D01*
X93470854Y-123982486D01*
X93453402Y-123872299D01*
X93399873Y-123707555D01*
X93321232Y-123553212D01*
X93219414Y-123413072D01*
X93161232Y-123354890D01*
X93127747Y-123293567D01*
X93132731Y-123223875D01*
X93174603Y-123167942D01*
X93240067Y-123143525D01*
X93277856Y-123146634D01*
X93398852Y-123175683D01*
X93650000Y-123195449D01*
X93901148Y-123175683D01*
X94146111Y-123116873D01*
X94378859Y-123020466D01*
X94593659Y-122888836D01*
X94785224Y-122725224D01*
X94948836Y-122533659D01*
X95080466Y-122318859D01*
X95176873Y-122086111D01*
X95235683Y-121841148D01*
X95255449Y-121590000D01*
X95235683Y-121338852D01*
X95176873Y-121093889D01*
X95144792Y-121016439D01*
X95080466Y-120861140D01*
X94948839Y-120646346D01*
X94948838Y-120646343D01*
X94853515Y-120534735D01*
X94785224Y-120454776D01*
X94614504Y-120308967D01*
X94593656Y-120291161D01*
X94593653Y-120291160D01*
X94378859Y-120159533D01*
X94146110Y-120063126D01*
X93901151Y-120004317D01*
X93650000Y-119984551D01*
X93398848Y-120004317D01*
X93153889Y-120063126D01*
X92921140Y-120159533D01*
X92706346Y-120291160D01*
X92706343Y-120291161D01*
X92514776Y-120454776D01*
X92351161Y-120646343D01*
X92351160Y-120646346D01*
X92219533Y-120861140D01*
X92123126Y-121093889D01*
X92064317Y-121338848D01*
X92044551Y-121590000D01*
X92064317Y-121841151D01*
X92123126Y-122086110D01*
X92219533Y-122318859D01*
X92351160Y-122533653D01*
X92351161Y-122533656D01*
X92351164Y-122533659D01*
X92514776Y-122725224D01*
X92628783Y-122822595D01*
X92666976Y-122881102D01*
X92667474Y-122950970D01*
X92630121Y-123010016D01*
X92566774Y-123039494D01*
X92528854Y-123039358D01*
X92466611Y-123029500D01*
X92293389Y-123029500D01*
X92253728Y-123035781D01*
X92122302Y-123056597D01*
X91957552Y-123110128D01*
X91803211Y-123188768D01*
X91723256Y-123246859D01*
X91663072Y-123290586D01*
X91663070Y-123290588D01*
X91663069Y-123290588D01*
X91540588Y-123413069D01*
X91540588Y-123413070D01*
X91540586Y-123413072D01*
X91497773Y-123471999D01*
X91438768Y-123553211D01*
X91360128Y-123707552D01*
X91306597Y-123872302D01*
X91289146Y-123982486D01*
X91279500Y-124043389D01*
X78000500Y-124043389D01*
X78000500Y-119050000D01*
X98394551Y-119050000D01*
X98414317Y-119301151D01*
X98473126Y-119546110D01*
X98569533Y-119778859D01*
X98701160Y-119993653D01*
X98701161Y-119993656D01*
X98719023Y-120014569D01*
X98864776Y-120185224D01*
X98988811Y-120291160D01*
X99056343Y-120348838D01*
X99056346Y-120348839D01*
X99271140Y-120480466D01*
X99402158Y-120534735D01*
X99503889Y-120576873D01*
X99748852Y-120635683D01*
X100000000Y-120655449D01*
X100251148Y-120635683D01*
X100496111Y-120576873D01*
X100728859Y-120480466D01*
X100943659Y-120348836D01*
X101135224Y-120185224D01*
X101298836Y-119993659D01*
X101430466Y-119778859D01*
X101526873Y-119546111D01*
X101585683Y-119301148D01*
X101605449Y-119050000D01*
X101585683Y-118798852D01*
X101526873Y-118553889D01*
X101498985Y-118486561D01*
X101430466Y-118321140D01*
X101298839Y-118106346D01*
X101298838Y-118106343D01*
X101228457Y-118023938D01*
X101135224Y-117914776D01*
X101008571Y-117806604D01*
X100943656Y-117751161D01*
X100943653Y-117751160D01*
X100728859Y-117619533D01*
X100496110Y-117523126D01*
X100251151Y-117464317D01*
X100000000Y-117444551D01*
X99748848Y-117464317D01*
X99503889Y-117523126D01*
X99271140Y-117619533D01*
X99056346Y-117751160D01*
X99056343Y-117751161D01*
X98864776Y-117914776D01*
X98701161Y-118106343D01*
X98701160Y-118106346D01*
X98569533Y-118321140D01*
X98473126Y-118553889D01*
X98414317Y-118798848D01*
X98394551Y-119050000D01*
X78000500Y-119050000D01*
X78000500Y-114999998D01*
X90614532Y-114999998D01*
X90614532Y-115000001D01*
X90634364Y-115226686D01*
X90634366Y-115226697D01*
X90693258Y-115446488D01*
X90693261Y-115446497D01*
X90789431Y-115652732D01*
X90789432Y-115652734D01*
X90919954Y-115839141D01*
X91080858Y-116000045D01*
X91114397Y-116023529D01*
X91267266Y-116130568D01*
X91473504Y-116226739D01*
X91693308Y-116285635D01*
X91844905Y-116298898D01*
X91919998Y-116305468D01*
X91920000Y-116305468D01*
X91920002Y-116305468D01*
X91995095Y-116298898D01*
X92146692Y-116285635D01*
X92366496Y-116226739D01*
X92572734Y-116130568D01*
X92759139Y-116000047D01*
X92920047Y-115839139D01*
X93050568Y-115652734D01*
X93146739Y-115446496D01*
X93205635Y-115226692D01*
X93225468Y-115000000D01*
X93225140Y-114996255D01*
X93209458Y-114817003D01*
X93205635Y-114773308D01*
X93146739Y-114553504D01*
X93050568Y-114347266D01*
X92920047Y-114160861D01*
X92920045Y-114160858D01*
X92759141Y-113999954D01*
X92572734Y-113869432D01*
X92572732Y-113869431D01*
X92366497Y-113773261D01*
X92366488Y-113773258D01*
X92146697Y-113714366D01*
X92146693Y-113714365D01*
X92146692Y-113714365D01*
X92146691Y-113714364D01*
X92146686Y-113714364D01*
X91920002Y-113694532D01*
X91919998Y-113694532D01*
X91693313Y-113714364D01*
X91693302Y-113714366D01*
X91473511Y-113773258D01*
X91473502Y-113773261D01*
X91267267Y-113869431D01*
X91267265Y-113869432D01*
X91080858Y-113999954D01*
X90919954Y-114160858D01*
X90789432Y-114347265D01*
X90789431Y-114347267D01*
X90693261Y-114553502D01*
X90693258Y-114553511D01*
X90634366Y-114773302D01*
X90634364Y-114773313D01*
X90614532Y-114999998D01*
X78000500Y-114999998D01*
X78000500Y-104993389D01*
X91279500Y-104993389D01*
X91279500Y-105166611D01*
X91306598Y-105337701D01*
X91360127Y-105502445D01*
X91438768Y-105656788D01*
X91540586Y-105796928D01*
X91663072Y-105919414D01*
X91803212Y-106021232D01*
X91957555Y-106099873D01*
X92122299Y-106153402D01*
X92293389Y-106180500D01*
X92293390Y-106180500D01*
X92466610Y-106180500D01*
X92466611Y-106180500D01*
X92637701Y-106153402D01*
X92802445Y-106099873D01*
X92956788Y-106021232D01*
X93096928Y-105919414D01*
X93219414Y-105796928D01*
X93321232Y-105656788D01*
X93399873Y-105502445D01*
X93453402Y-105337701D01*
X93480500Y-105166611D01*
X93480500Y-104993389D01*
X93470854Y-104932486D01*
X95209500Y-104932486D01*
X95209500Y-105227513D01*
X95241571Y-105471113D01*
X95248007Y-105519993D01*
X95322212Y-105796930D01*
X95324361Y-105804951D01*
X95324364Y-105804961D01*
X95437254Y-106077500D01*
X95437258Y-106077510D01*
X95584761Y-106332993D01*
X95764352Y-106567040D01*
X95764358Y-106567047D01*
X95972952Y-106775641D01*
X95972959Y-106775647D01*
X96207006Y-106955238D01*
X96462489Y-107102741D01*
X96462490Y-107102741D01*
X96462493Y-107102743D01*
X96735048Y-107215639D01*
X97020007Y-107291993D01*
X97312494Y-107330500D01*
X97312501Y-107330500D01*
X97607499Y-107330500D01*
X97607506Y-107330500D01*
X97899993Y-107291993D01*
X98184952Y-107215639D01*
X98457507Y-107102743D01*
X98712994Y-106955238D01*
X98947042Y-106775646D01*
X99155646Y-106567042D01*
X99335238Y-106332994D01*
X99482743Y-106077507D01*
X99595639Y-105804952D01*
X99671993Y-105519993D01*
X99710500Y-105227506D01*
X99710500Y-104993389D01*
X101439500Y-104993389D01*
X101439500Y-105166611D01*
X101466598Y-105337701D01*
X101520127Y-105502445D01*
X101598768Y-105656788D01*
X101700586Y-105796928D01*
X101823072Y-105919414D01*
X101963212Y-106021232D01*
X102117555Y-106099873D01*
X102282299Y-106153402D01*
X102453389Y-106180500D01*
X102453390Y-106180500D01*
X102626610Y-106180500D01*
X102626611Y-106180500D01*
X102797701Y-106153402D01*
X102962445Y-106099873D01*
X103116788Y-106021232D01*
X103256928Y-105919414D01*
X103379414Y-105796928D01*
X103481232Y-105656788D01*
X103559873Y-105502445D01*
X103613402Y-105337701D01*
X103640500Y-105166611D01*
X103640500Y-104993389D01*
X110329500Y-104993389D01*
X110329500Y-105166611D01*
X110356598Y-105337701D01*
X110410127Y-105502445D01*
X110488768Y-105656788D01*
X110590586Y-105796928D01*
X110713072Y-105919414D01*
X110853212Y-106021232D01*
X111007555Y-106099873D01*
X111172299Y-106153402D01*
X111343389Y-106180500D01*
X111343390Y-106180500D01*
X111516610Y-106180500D01*
X111516611Y-106180500D01*
X111687701Y-106153402D01*
X111852445Y-106099873D01*
X112006788Y-106021232D01*
X112146928Y-105919414D01*
X112269414Y-105796928D01*
X112371232Y-105656788D01*
X112449873Y-105502445D01*
X112503402Y-105337701D01*
X112530500Y-105166611D01*
X112530500Y-104993389D01*
X112520854Y-104932486D01*
X114259500Y-104932486D01*
X114259500Y-105227513D01*
X114291571Y-105471113D01*
X114298007Y-105519993D01*
X114372212Y-105796930D01*
X114374361Y-105804951D01*
X114374364Y-105804961D01*
X114487254Y-106077500D01*
X114487258Y-106077510D01*
X114634761Y-106332993D01*
X114814352Y-106567040D01*
X114814358Y-106567047D01*
X115022952Y-106775641D01*
X115022959Y-106775647D01*
X115257006Y-106955238D01*
X115512489Y-107102741D01*
X115512490Y-107102741D01*
X115512493Y-107102743D01*
X115785048Y-107215639D01*
X116070007Y-107291993D01*
X116362494Y-107330500D01*
X116362501Y-107330500D01*
X116657499Y-107330500D01*
X116657506Y-107330500D01*
X116949993Y-107291993D01*
X117234952Y-107215639D01*
X117507507Y-107102743D01*
X117762994Y-106955238D01*
X117997042Y-106775646D01*
X118205646Y-106567042D01*
X118385238Y-106332994D01*
X118532743Y-106077507D01*
X118645639Y-105804952D01*
X118721993Y-105519993D01*
X118760500Y-105227506D01*
X118760500Y-104993389D01*
X120489500Y-104993389D01*
X120489500Y-105166611D01*
X120516598Y-105337701D01*
X120570127Y-105502445D01*
X120648768Y-105656788D01*
X120750586Y-105796928D01*
X120873072Y-105919414D01*
X121013212Y-106021232D01*
X121167555Y-106099873D01*
X121332299Y-106153402D01*
X121503389Y-106180500D01*
X121503390Y-106180500D01*
X121676610Y-106180500D01*
X121676611Y-106180500D01*
X121847701Y-106153402D01*
X122012445Y-106099873D01*
X122166788Y-106021232D01*
X122306928Y-105919414D01*
X122429414Y-105796928D01*
X122531232Y-105656788D01*
X122609873Y-105502445D01*
X122663402Y-105337701D01*
X122690500Y-105166611D01*
X122690500Y-104993389D01*
X122663402Y-104822299D01*
X122609873Y-104657555D01*
X122531232Y-104503212D01*
X122429414Y-104363072D01*
X122306928Y-104240586D01*
X122166788Y-104138768D01*
X122012445Y-104060127D01*
X121847701Y-104006598D01*
X121847699Y-104006597D01*
X121847698Y-104006597D01*
X121716271Y-103985781D01*
X121676611Y-103979500D01*
X121503389Y-103979500D01*
X121463728Y-103985781D01*
X121332302Y-104006597D01*
X121167552Y-104060128D01*
X121013211Y-104138768D01*
X120933256Y-104196859D01*
X120873072Y-104240586D01*
X120873070Y-104240588D01*
X120873069Y-104240588D01*
X120750588Y-104363069D01*
X120750588Y-104363070D01*
X120750586Y-104363072D01*
X120706859Y-104423256D01*
X120648768Y-104503211D01*
X120570128Y-104657552D01*
X120516597Y-104822302D01*
X120499146Y-104932486D01*
X120489500Y-104993389D01*
X118760500Y-104993389D01*
X118760500Y-104932494D01*
X118721993Y-104640007D01*
X118645639Y-104355048D01*
X118532743Y-104082493D01*
X118468064Y-103970466D01*
X118385238Y-103827006D01*
X118205647Y-103592959D01*
X118205641Y-103592952D01*
X117997047Y-103384358D01*
X117997040Y-103384352D01*
X117762993Y-103204761D01*
X117507510Y-103057258D01*
X117507500Y-103057254D01*
X117234961Y-102944364D01*
X117234954Y-102944362D01*
X117234952Y-102944361D01*
X116949993Y-102868007D01*
X116901113Y-102861571D01*
X116657513Y-102829500D01*
X116657506Y-102829500D01*
X116362494Y-102829500D01*
X116362486Y-102829500D01*
X116084085Y-102866153D01*
X116070007Y-102868007D01*
X115785048Y-102944361D01*
X115785038Y-102944364D01*
X115512499Y-103057254D01*
X115512489Y-103057258D01*
X115257006Y-103204761D01*
X115022959Y-103384352D01*
X115022952Y-103384358D01*
X114814358Y-103592952D01*
X114814352Y-103592959D01*
X114634761Y-103827006D01*
X114487258Y-104082489D01*
X114487254Y-104082499D01*
X114374364Y-104355038D01*
X114374361Y-104355048D01*
X114298008Y-104640004D01*
X114298006Y-104640015D01*
X114259500Y-104932486D01*
X112520854Y-104932486D01*
X112503402Y-104822299D01*
X112449873Y-104657555D01*
X112371232Y-104503212D01*
X112269414Y-104363072D01*
X112211232Y-104304890D01*
X112177747Y-104243567D01*
X112182731Y-104173875D01*
X112224603Y-104117942D01*
X112290067Y-104093525D01*
X112327856Y-104096634D01*
X112448852Y-104125683D01*
X112700000Y-104145449D01*
X112951148Y-104125683D01*
X113196111Y-104066873D01*
X113428859Y-103970466D01*
X113643659Y-103838836D01*
X113835224Y-103675224D01*
X113998836Y-103483659D01*
X114130466Y-103268859D01*
X114226873Y-103036111D01*
X114285683Y-102791148D01*
X114305449Y-102540000D01*
X114285683Y-102288852D01*
X114226873Y-102043889D01*
X114130466Y-101811141D01*
X114130466Y-101811140D01*
X113998839Y-101596346D01*
X113998838Y-101596343D01*
X113857165Y-101430466D01*
X113835224Y-101404776D01*
X113708571Y-101296604D01*
X113643656Y-101241161D01*
X113643653Y-101241160D01*
X113428859Y-101109533D01*
X113196110Y-101013126D01*
X112951151Y-100954317D01*
X112700000Y-100934551D01*
X112448848Y-100954317D01*
X112203889Y-101013126D01*
X111971140Y-101109533D01*
X111756346Y-101241160D01*
X111756343Y-101241161D01*
X111564776Y-101404776D01*
X111401161Y-101596343D01*
X111401160Y-101596346D01*
X111269533Y-101811140D01*
X111173126Y-102043889D01*
X111114317Y-102288848D01*
X111094551Y-102540000D01*
X111114317Y-102791151D01*
X111173126Y-103036110D01*
X111269533Y-103268859D01*
X111401160Y-103483653D01*
X111401161Y-103483656D01*
X111401164Y-103483659D01*
X111564776Y-103675224D01*
X111678783Y-103772595D01*
X111716976Y-103831102D01*
X111717474Y-103900970D01*
X111680121Y-103960016D01*
X111616774Y-103989494D01*
X111578854Y-103989358D01*
X111516611Y-103979500D01*
X111343389Y-103979500D01*
X111303728Y-103985781D01*
X111172302Y-104006597D01*
X111007552Y-104060128D01*
X110853211Y-104138768D01*
X110773256Y-104196859D01*
X110713072Y-104240586D01*
X110713070Y-104240588D01*
X110713069Y-104240588D01*
X110590588Y-104363069D01*
X110590588Y-104363070D01*
X110590586Y-104363072D01*
X110546859Y-104423256D01*
X110488768Y-104503211D01*
X110410128Y-104657552D01*
X110356597Y-104822302D01*
X110339146Y-104932486D01*
X110329500Y-104993389D01*
X103640500Y-104993389D01*
X103613402Y-104822299D01*
X103559873Y-104657555D01*
X103481232Y-104503212D01*
X103379414Y-104363072D01*
X103256928Y-104240586D01*
X103116788Y-104138768D01*
X102962445Y-104060127D01*
X102797701Y-104006598D01*
X102797699Y-104006597D01*
X102797698Y-104006597D01*
X102666271Y-103985781D01*
X102626611Y-103979500D01*
X102453389Y-103979500D01*
X102413728Y-103985781D01*
X102282302Y-104006597D01*
X102117552Y-104060128D01*
X101963211Y-104138768D01*
X101883256Y-104196859D01*
X101823072Y-104240586D01*
X101823070Y-104240588D01*
X101823069Y-104240588D01*
X101700588Y-104363069D01*
X101700588Y-104363070D01*
X101700586Y-104363072D01*
X101656859Y-104423256D01*
X101598768Y-104503211D01*
X101520128Y-104657552D01*
X101466597Y-104822302D01*
X101449146Y-104932486D01*
X101439500Y-104993389D01*
X99710500Y-104993389D01*
X99710500Y-104932494D01*
X99671993Y-104640007D01*
X99595639Y-104355048D01*
X99482743Y-104082493D01*
X99418064Y-103970466D01*
X99335238Y-103827006D01*
X99155647Y-103592959D01*
X99155641Y-103592952D01*
X98947047Y-103384358D01*
X98947040Y-103384352D01*
X98712993Y-103204761D01*
X98457510Y-103057258D01*
X98457500Y-103057254D01*
X98184961Y-102944364D01*
X98184954Y-102944362D01*
X98184952Y-102944361D01*
X97899993Y-102868007D01*
X97851113Y-102861571D01*
X97607513Y-102829500D01*
X97607506Y-102829500D01*
X97312494Y-102829500D01*
X97312486Y-102829500D01*
X97034085Y-102866153D01*
X97020007Y-102868007D01*
X96735048Y-102944361D01*
X96735038Y-102944364D01*
X96462499Y-103057254D01*
X96462489Y-103057258D01*
X96207006Y-103204761D01*
X95972959Y-103384352D01*
X95972952Y-103384358D01*
X95764358Y-103592952D01*
X95764352Y-103592959D01*
X95584761Y-103827006D01*
X95437258Y-104082489D01*
X95437254Y-104082499D01*
X95324364Y-104355038D01*
X95324361Y-104355048D01*
X95248008Y-104640004D01*
X95248006Y-104640015D01*
X95209500Y-104932486D01*
X93470854Y-104932486D01*
X93453402Y-104822299D01*
X93399873Y-104657555D01*
X93321232Y-104503212D01*
X93219414Y-104363072D01*
X93161232Y-104304890D01*
X93127747Y-104243567D01*
X93132731Y-104173875D01*
X93174603Y-104117942D01*
X93240067Y-104093525D01*
X93277856Y-104096634D01*
X93398852Y-104125683D01*
X93650000Y-104145449D01*
X93901148Y-104125683D01*
X94146111Y-104066873D01*
X94378859Y-103970466D01*
X94593659Y-103838836D01*
X94785224Y-103675224D01*
X94948836Y-103483659D01*
X95080466Y-103268859D01*
X95176873Y-103036111D01*
X95235683Y-102791148D01*
X95255449Y-102540000D01*
X95235683Y-102288852D01*
X95176873Y-102043889D01*
X95080466Y-101811141D01*
X95080466Y-101811140D01*
X94948839Y-101596346D01*
X94948838Y-101596343D01*
X94807165Y-101430466D01*
X94785224Y-101404776D01*
X94658571Y-101296604D01*
X94593656Y-101241161D01*
X94593653Y-101241160D01*
X94378859Y-101109533D01*
X94146110Y-101013126D01*
X93901151Y-100954317D01*
X93650000Y-100934551D01*
X93398848Y-100954317D01*
X93153889Y-101013126D01*
X92921140Y-101109533D01*
X92706346Y-101241160D01*
X92706343Y-101241161D01*
X92514776Y-101404776D01*
X92351161Y-101596343D01*
X92351160Y-101596346D01*
X92219533Y-101811140D01*
X92123126Y-102043889D01*
X92064317Y-102288848D01*
X92044551Y-102540000D01*
X92064317Y-102791151D01*
X92123126Y-103036110D01*
X92219533Y-103268859D01*
X92351160Y-103483653D01*
X92351161Y-103483656D01*
X92351164Y-103483659D01*
X92514776Y-103675224D01*
X92628783Y-103772595D01*
X92666976Y-103831102D01*
X92667474Y-103900970D01*
X92630121Y-103960016D01*
X92566774Y-103989494D01*
X92528854Y-103989358D01*
X92466611Y-103979500D01*
X92293389Y-103979500D01*
X92253728Y-103985781D01*
X92122302Y-104006597D01*
X91957552Y-104060128D01*
X91803211Y-104138768D01*
X91723256Y-104196859D01*
X91663072Y-104240586D01*
X91663070Y-104240588D01*
X91663069Y-104240588D01*
X91540588Y-104363069D01*
X91540588Y-104363070D01*
X91540586Y-104363072D01*
X91496859Y-104423256D01*
X91438768Y-104503211D01*
X91360128Y-104657552D01*
X91306597Y-104822302D01*
X91289146Y-104932486D01*
X91279500Y-104993389D01*
X78000500Y-104993389D01*
X78000500Y-94999998D01*
X92074532Y-94999998D01*
X92074532Y-95000001D01*
X92094364Y-95226686D01*
X92094366Y-95226697D01*
X92153258Y-95446488D01*
X92153261Y-95446497D01*
X92249431Y-95652732D01*
X92249432Y-95652734D01*
X92379954Y-95839141D01*
X92540858Y-96000045D01*
X92540861Y-96000047D01*
X92727266Y-96130568D01*
X92933504Y-96226739D01*
X93153308Y-96285635D01*
X93315230Y-96299801D01*
X93379998Y-96305468D01*
X93380000Y-96305468D01*
X93380002Y-96305468D01*
X93436807Y-96300498D01*
X93606692Y-96285635D01*
X93826496Y-96226739D01*
X94032734Y-96130568D01*
X94219139Y-96000047D01*
X94380047Y-95839139D01*
X94510568Y-95652734D01*
X94606739Y-95446496D01*
X94665635Y-95226692D01*
X94685468Y-95000000D01*
X94665635Y-94773308D01*
X94615190Y-94585043D01*
X94606741Y-94553511D01*
X94606738Y-94553502D01*
X94510568Y-94347267D01*
X94510567Y-94347265D01*
X94380045Y-94160858D01*
X94219141Y-93999954D01*
X94032734Y-93869432D01*
X94032732Y-93869431D01*
X93826497Y-93773261D01*
X93826488Y-93773258D01*
X93606697Y-93714366D01*
X93606693Y-93714365D01*
X93606692Y-93714365D01*
X93606691Y-93714364D01*
X93606686Y-93714364D01*
X93380002Y-93694532D01*
X93379998Y-93694532D01*
X93153313Y-93714364D01*
X93153302Y-93714366D01*
X92933511Y-93773258D01*
X92933502Y-93773261D01*
X92727267Y-93869431D01*
X92727265Y-93869432D01*
X92540858Y-93999954D01*
X92379954Y-94160858D01*
X92249432Y-94347265D01*
X92249431Y-94347267D01*
X92153261Y-94553502D01*
X92153258Y-94553511D01*
X92094366Y-94773302D01*
X92094364Y-94773313D01*
X92074532Y-94999998D01*
X78000500Y-94999998D01*
X78000500Y-86752135D01*
X93124500Y-86752135D01*
X93124500Y-88847870D01*
X93124501Y-88847876D01*
X93130908Y-88907483D01*
X93181202Y-89042328D01*
X93181206Y-89042335D01*
X93267452Y-89157544D01*
X93267455Y-89157547D01*
X93382664Y-89243793D01*
X93382671Y-89243797D01*
X93517517Y-89294091D01*
X93517516Y-89294091D01*
X93524444Y-89294835D01*
X93577127Y-89300500D01*
X96872872Y-89300499D01*
X96932483Y-89294091D01*
X97067331Y-89243796D01*
X97182546Y-89157546D01*
X97268796Y-89042331D01*
X97319091Y-88907483D01*
X97325500Y-88847873D01*
X97325499Y-86752128D01*
X97319091Y-86692517D01*
X97301728Y-86645965D01*
X97268797Y-86557671D01*
X97268793Y-86557664D01*
X97182547Y-86442455D01*
X97182544Y-86442452D01*
X97067335Y-86356206D01*
X97067328Y-86356202D01*
X96932482Y-86305908D01*
X96932483Y-86305908D01*
X96872883Y-86299501D01*
X96872881Y-86299500D01*
X96872873Y-86299500D01*
X96872864Y-86299500D01*
X93577129Y-86299500D01*
X93577123Y-86299501D01*
X93517516Y-86305908D01*
X93382671Y-86356202D01*
X93382664Y-86356206D01*
X93267455Y-86442452D01*
X93267452Y-86442455D01*
X93181206Y-86557664D01*
X93181202Y-86557671D01*
X93130908Y-86692517D01*
X93125781Y-86740208D01*
X93124501Y-86752123D01*
X93124500Y-86752135D01*
X78000500Y-86752135D01*
X78000500Y-84699994D01*
X86219357Y-84699994D01*
X86219357Y-84700005D01*
X86239890Y-84947812D01*
X86239892Y-84947824D01*
X86300936Y-85188881D01*
X86400826Y-85416606D01*
X86536833Y-85624782D01*
X86536836Y-85624785D01*
X86705256Y-85807738D01*
X86901491Y-85960474D01*
X87120190Y-86078828D01*
X87355386Y-86159571D01*
X87600665Y-86200500D01*
X87849335Y-86200500D01*
X88094614Y-86159571D01*
X88329810Y-86078828D01*
X88548509Y-85960474D01*
X88744744Y-85807738D01*
X88913164Y-85624785D01*
X89049173Y-85416607D01*
X89149063Y-85188881D01*
X89210108Y-84947821D01*
X89210109Y-84947812D01*
X89230643Y-84700005D01*
X89230643Y-84699994D01*
X89210109Y-84452187D01*
X89210107Y-84452175D01*
X89148992Y-84210839D01*
X89151617Y-84141019D01*
X89181518Y-84092717D01*
X89255719Y-84018518D01*
X89317043Y-83985033D01*
X89343399Y-83982200D01*
X100711554Y-83982200D01*
X100778593Y-84001885D01*
X100824348Y-84054689D01*
X100834292Y-84123847D01*
X100825110Y-84156010D01*
X100800936Y-84211118D01*
X100739892Y-84452175D01*
X100739890Y-84452187D01*
X100719357Y-84699994D01*
X100719357Y-84700005D01*
X100739890Y-84947812D01*
X100739892Y-84947824D01*
X100800936Y-85188881D01*
X100900826Y-85416606D01*
X101036833Y-85624782D01*
X101036836Y-85624785D01*
X101205256Y-85807738D01*
X101401491Y-85960474D01*
X101620190Y-86078828D01*
X101855386Y-86159571D01*
X102100665Y-86200500D01*
X102349335Y-86200500D01*
X102594614Y-86159571D01*
X102829810Y-86078828D01*
X103048509Y-85960474D01*
X103244744Y-85807738D01*
X103413164Y-85624785D01*
X103549173Y-85416607D01*
X103649063Y-85188881D01*
X103710108Y-84947821D01*
X103710109Y-84947812D01*
X103730643Y-84700005D01*
X103730643Y-84699994D01*
X103726288Y-84647440D01*
X103740369Y-84579004D01*
X103789214Y-84529045D01*
X103849864Y-84513200D01*
X106697812Y-84513200D01*
X106764851Y-84532885D01*
X106810606Y-84585689D01*
X106820550Y-84654847D01*
X106810194Y-84689602D01*
X106800082Y-84711290D01*
X106751097Y-84816335D01*
X106751094Y-84816344D01*
X106689938Y-85044586D01*
X106689936Y-85044596D01*
X106669341Y-85279999D01*
X106669341Y-85280000D01*
X106689936Y-85515403D01*
X106689938Y-85515413D01*
X106751094Y-85743655D01*
X106751096Y-85743659D01*
X106751097Y-85743663D01*
X106807928Y-85865537D01*
X106850965Y-85957830D01*
X106850967Y-85957834D01*
X106986501Y-86151395D01*
X106986506Y-86151402D01*
X107153597Y-86318493D01*
X107153603Y-86318498D01*
X107339158Y-86448425D01*
X107382783Y-86503002D01*
X107389977Y-86572500D01*
X107358454Y-86634855D01*
X107339158Y-86651575D01*
X107153597Y-86781505D01*
X106986505Y-86948597D01*
X106850965Y-87142169D01*
X106850964Y-87142171D01*
X106751098Y-87356335D01*
X106751094Y-87356344D01*
X106689938Y-87584586D01*
X106689936Y-87584596D01*
X106669341Y-87819999D01*
X106669341Y-87820000D01*
X106689936Y-88055403D01*
X106689938Y-88055413D01*
X106751094Y-88283655D01*
X106751096Y-88283659D01*
X106751097Y-88283663D01*
X106814906Y-88420501D01*
X106850965Y-88497830D01*
X106850967Y-88497834D01*
X106957592Y-88650109D01*
X106986505Y-88691401D01*
X107153599Y-88858495D01*
X107239695Y-88918780D01*
X107347165Y-88994032D01*
X107347167Y-88994033D01*
X107347170Y-88994035D01*
X107561337Y-89093903D01*
X107789592Y-89155063D01*
X107977918Y-89171539D01*
X108024999Y-89175659D01*
X108025000Y-89175659D01*
X108025001Y-89175659D01*
X108064234Y-89172226D01*
X108260408Y-89155063D01*
X108488663Y-89093903D01*
X108702830Y-88994035D01*
X108896401Y-88858495D01*
X109063495Y-88691401D01*
X109199035Y-88497830D01*
X109207707Y-88479233D01*
X109253879Y-88426793D01*
X109287990Y-88411863D01*
X109408485Y-88379577D01*
X109458604Y-88350639D01*
X109545416Y-88300520D01*
X109657220Y-88188716D01*
X109657220Y-88188714D01*
X109667428Y-88178507D01*
X109667429Y-88178504D01*
X110778916Y-87067019D01*
X110840239Y-87033534D01*
X110866597Y-87030700D01*
X124025805Y-87030700D01*
X124092844Y-87050385D01*
X124138599Y-87103189D01*
X124148543Y-87172347D01*
X124143737Y-87193012D01*
X124109337Y-87298884D01*
X124107753Y-87303760D01*
X124099426Y-87356335D01*
X124074500Y-87513713D01*
X124074500Y-87726287D01*
X124107754Y-87936243D01*
X124169220Y-88125416D01*
X124173444Y-88138414D01*
X124269951Y-88327820D01*
X124394890Y-88499786D01*
X124545213Y-88650109D01*
X124717179Y-88775048D01*
X124717181Y-88775049D01*
X124717184Y-88775051D01*
X124906588Y-88871557D01*
X125108757Y-88937246D01*
X125318713Y-88970500D01*
X126518502Y-88970500D01*
X126585541Y-88990185D01*
X126631296Y-89042989D01*
X126641240Y-89112147D01*
X126612215Y-89175703D01*
X126606183Y-89182181D01*
X123888284Y-91900081D01*
X123826961Y-91933566D01*
X123800603Y-91936400D01*
X101319740Y-91936400D01*
X101278819Y-91947364D01*
X101278819Y-91947365D01*
X101241551Y-91957351D01*
X101167014Y-91977323D01*
X101167009Y-91977326D01*
X101030090Y-92056375D01*
X101030082Y-92056381D01*
X99417781Y-93668682D01*
X99417779Y-93668685D01*
X99367661Y-93755494D01*
X99367659Y-93755496D01*
X99338725Y-93805609D01*
X99338724Y-93805610D01*
X99338723Y-93805615D01*
X99297799Y-93958343D01*
X99297799Y-93958345D01*
X99297799Y-94126446D01*
X99297800Y-94126459D01*
X99297800Y-98483753D01*
X99278115Y-98550792D01*
X99238590Y-98589480D01*
X99056346Y-98701160D01*
X99056343Y-98701161D01*
X98864776Y-98864776D01*
X98701161Y-99056343D01*
X98701160Y-99056346D01*
X98569533Y-99271140D01*
X98473126Y-99503889D01*
X98414317Y-99748848D01*
X98394551Y-100000000D01*
X98414317Y-100251151D01*
X98473126Y-100496110D01*
X98569533Y-100728859D01*
X98701160Y-100943653D01*
X98701161Y-100943656D01*
X98756604Y-101008571D01*
X98864776Y-101135224D01*
X98988811Y-101241160D01*
X99056343Y-101298838D01*
X99056346Y-101298839D01*
X99271140Y-101430466D01*
X99503889Y-101526873D01*
X99748852Y-101585683D01*
X100000000Y-101605449D01*
X100251148Y-101585683D01*
X100496111Y-101526873D01*
X100728859Y-101430466D01*
X100943659Y-101298836D01*
X101135224Y-101135224D01*
X101298836Y-100943659D01*
X101430466Y-100728859D01*
X101526873Y-100496111D01*
X101585683Y-100251148D01*
X101605449Y-100000000D01*
X117444551Y-100000000D01*
X117464317Y-100251151D01*
X117523126Y-100496110D01*
X117619533Y-100728859D01*
X117751160Y-100943653D01*
X117751161Y-100943656D01*
X117806604Y-101008571D01*
X117914776Y-101135224D01*
X118038811Y-101241160D01*
X118106343Y-101298838D01*
X118106346Y-101298839D01*
X118321140Y-101430466D01*
X118553889Y-101526873D01*
X118798852Y-101585683D01*
X119050000Y-101605449D01*
X119301148Y-101585683D01*
X119546111Y-101526873D01*
X119778859Y-101430466D01*
X119993659Y-101298836D01*
X120185224Y-101135224D01*
X120348836Y-100943659D01*
X120480466Y-100728859D01*
X120576873Y-100496111D01*
X120635683Y-100251148D01*
X120655449Y-100000000D01*
X120635683Y-99748852D01*
X120576873Y-99503889D01*
X120480466Y-99271140D01*
X120348839Y-99056346D01*
X120348838Y-99056343D01*
X120311875Y-99013066D01*
X120185224Y-98864776D01*
X120058571Y-98756604D01*
X119993656Y-98701161D01*
X119993653Y-98701160D01*
X119778859Y-98569533D01*
X119546110Y-98473126D01*
X119301151Y-98414317D01*
X119050000Y-98394551D01*
X118798848Y-98414317D01*
X118553889Y-98473126D01*
X118321140Y-98569533D01*
X118106346Y-98701160D01*
X118106343Y-98701161D01*
X117914776Y-98864776D01*
X117751161Y-99056343D01*
X117751160Y-99056346D01*
X117619533Y-99271140D01*
X117523126Y-99503889D01*
X117464317Y-99748848D01*
X117444551Y-100000000D01*
X101605449Y-100000000D01*
X101585683Y-99748852D01*
X101526873Y-99503889D01*
X101430466Y-99271140D01*
X101298839Y-99056346D01*
X101298838Y-99056343D01*
X101261875Y-99013066D01*
X101135224Y-98864776D01*
X101008571Y-98756604D01*
X100943656Y-98701161D01*
X100943653Y-98701160D01*
X100728858Y-98569533D01*
X100728859Y-98569533D01*
X100575347Y-98505946D01*
X100520943Y-98462105D01*
X100498879Y-98395810D01*
X100498800Y-98391385D01*
X100498800Y-96424499D01*
X100518485Y-96357460D01*
X100571289Y-96311705D01*
X100622800Y-96300499D01*
X101847871Y-96300499D01*
X101847872Y-96300499D01*
X101907483Y-96294091D01*
X102042331Y-96243796D01*
X102157546Y-96157546D01*
X102243796Y-96042331D01*
X102294091Y-95907483D01*
X102300500Y-95847873D01*
X102300499Y-95650211D01*
X102320183Y-95583172D01*
X102362494Y-95542827D01*
X102383604Y-95530639D01*
X102470416Y-95480520D01*
X102582220Y-95368716D01*
X102582220Y-95368714D01*
X102592428Y-95358507D01*
X102592429Y-95358504D01*
X103415816Y-94535119D01*
X103477139Y-94501634D01*
X103503497Y-94498800D01*
X110626319Y-94498800D01*
X110693358Y-94518485D01*
X110739113Y-94571289D01*
X110749057Y-94640447D01*
X110746094Y-94654893D01*
X110714366Y-94773302D01*
X110714364Y-94773313D01*
X110694532Y-94999998D01*
X110694532Y-95000001D01*
X110714364Y-95226686D01*
X110714366Y-95226697D01*
X110773258Y-95446488D01*
X110773261Y-95446497D01*
X110869431Y-95652732D01*
X110869432Y-95652734D01*
X110999954Y-95839141D01*
X111160858Y-96000045D01*
X111160861Y-96000047D01*
X111347266Y-96130568D01*
X111553504Y-96226739D01*
X111773308Y-96285635D01*
X111935230Y-96299801D01*
X111999998Y-96305468D01*
X112000000Y-96305468D01*
X112000002Y-96305468D01*
X112056807Y-96300498D01*
X112226692Y-96285635D01*
X112446496Y-96226739D01*
X112652734Y-96130568D01*
X112839139Y-96000047D01*
X113000047Y-95839139D01*
X113130568Y-95652734D01*
X113226739Y-95446496D01*
X113285635Y-95226692D01*
X113305468Y-95000000D01*
X113285635Y-94773308D01*
X113253906Y-94654893D01*
X113255569Y-94585043D01*
X113294732Y-94527181D01*
X113358960Y-94499677D01*
X113373681Y-94498800D01*
X117116503Y-94498800D01*
X117183542Y-94518485D01*
X117204184Y-94535119D01*
X118033439Y-95364374D01*
X118033449Y-95364385D01*
X118037779Y-95368715D01*
X118037780Y-95368716D01*
X118149584Y-95480520D01*
X118236395Y-95530639D01*
X118236394Y-95530639D01*
X118249824Y-95538392D01*
X118257498Y-95542823D01*
X118305715Y-95593389D01*
X118319500Y-95650210D01*
X118319500Y-95847869D01*
X118319501Y-95847876D01*
X118325908Y-95907483D01*
X118376202Y-96042328D01*
X118376206Y-96042335D01*
X118462452Y-96157544D01*
X118462455Y-96157547D01*
X118577664Y-96243793D01*
X118577671Y-96243797D01*
X118712517Y-96294091D01*
X118712516Y-96294091D01*
X118719444Y-96294835D01*
X118772127Y-96300500D01*
X120467872Y-96300499D01*
X120527483Y-96294091D01*
X120662331Y-96243796D01*
X120777546Y-96157546D01*
X120863796Y-96042331D01*
X120914091Y-95907483D01*
X120920500Y-95847873D01*
X120920499Y-95650211D01*
X120940183Y-95583172D01*
X120982494Y-95542827D01*
X121003604Y-95530639D01*
X121090416Y-95480520D01*
X121202220Y-95368716D01*
X121202220Y-95368714D01*
X121212428Y-95358507D01*
X121212429Y-95358504D01*
X122035816Y-94535119D01*
X122097139Y-94501634D01*
X122123497Y-94498800D01*
X130816319Y-94498800D01*
X130883358Y-94518485D01*
X130929113Y-94571289D01*
X130939057Y-94640447D01*
X130936094Y-94654893D01*
X130904366Y-94773302D01*
X130904364Y-94773313D01*
X130884532Y-94999998D01*
X130884532Y-95000001D01*
X130904364Y-95226686D01*
X130904366Y-95226697D01*
X130963258Y-95446488D01*
X130963261Y-95446497D01*
X131059431Y-95652732D01*
X131059432Y-95652734D01*
X131189954Y-95839141D01*
X131350858Y-96000045D01*
X131350861Y-96000047D01*
X131537266Y-96130568D01*
X131743504Y-96226739D01*
X131963308Y-96285635D01*
X132125230Y-96299801D01*
X132189998Y-96305468D01*
X132190000Y-96305468D01*
X132190002Y-96305468D01*
X132246807Y-96300498D01*
X132416692Y-96285635D01*
X132636496Y-96226739D01*
X132842734Y-96130568D01*
X133029139Y-96000047D01*
X133190047Y-95839139D01*
X133320568Y-95652734D01*
X133416739Y-95446496D01*
X133475635Y-95226692D01*
X133495468Y-95000000D01*
X133475635Y-94773308D01*
X133443906Y-94654893D01*
X133445569Y-94585043D01*
X133484732Y-94527181D01*
X133548960Y-94499677D01*
X133563681Y-94498800D01*
X137306503Y-94498800D01*
X137373542Y-94518485D01*
X137394184Y-94535119D01*
X138223439Y-95364374D01*
X138223449Y-95364385D01*
X138227779Y-95368715D01*
X138227780Y-95368716D01*
X138339584Y-95480520D01*
X138426395Y-95530639D01*
X138426394Y-95530639D01*
X138439824Y-95538392D01*
X138447498Y-95542823D01*
X138495715Y-95593389D01*
X138509500Y-95650210D01*
X138509500Y-95847869D01*
X138509501Y-95847876D01*
X138515908Y-95907483D01*
X138566202Y-96042328D01*
X138566206Y-96042335D01*
X138652452Y-96157544D01*
X138652455Y-96157547D01*
X138767664Y-96243793D01*
X138767671Y-96243797D01*
X138812618Y-96260561D01*
X138902517Y-96294091D01*
X138962127Y-96300500D01*
X139441503Y-96300499D01*
X139508541Y-96320183D01*
X139554296Y-96372987D01*
X139564240Y-96442146D01*
X139535215Y-96505702D01*
X139529183Y-96512180D01*
X138196584Y-97844781D01*
X138135261Y-97878266D01*
X138108903Y-97881100D01*
X132080740Y-97881100D01*
X132039819Y-97892064D01*
X132039819Y-97892065D01*
X132002551Y-97902051D01*
X131928014Y-97922023D01*
X131928009Y-97922026D01*
X131791090Y-98001075D01*
X131791082Y-98001081D01*
X131679278Y-98112886D01*
X121741184Y-108050981D01*
X121679861Y-108084466D01*
X121653503Y-108087300D01*
X109148840Y-108087300D01*
X109107919Y-108098264D01*
X109107919Y-108098265D01*
X109070651Y-108108251D01*
X108996114Y-108128223D01*
X108996109Y-108128226D01*
X108859190Y-108207275D01*
X108859182Y-108207281D01*
X108747378Y-108319086D01*
X106540782Y-110525681D01*
X106479459Y-110559166D01*
X106453101Y-110562000D01*
X105786320Y-110562000D01*
X105672444Y-110576991D01*
X105672436Y-110576993D01*
X105530736Y-110635687D01*
X105409055Y-110729056D01*
X105315686Y-110850737D01*
X105256992Y-110992436D01*
X105256991Y-110992438D01*
X105241999Y-111106322D01*
X105241999Y-112243927D01*
X105222314Y-112310966D01*
X105192396Y-112343129D01*
X105092646Y-112417936D01*
X104968801Y-112552134D01*
X104968799Y-112552137D01*
X104871301Y-112706522D01*
X104803358Y-112876012D01*
X104803356Y-112876022D01*
X104767218Y-113055004D01*
X104764078Y-113237585D01*
X104794038Y-113417702D01*
X104794041Y-113417715D01*
X104856107Y-113589418D01*
X104856114Y-113589438D01*
X104864553Y-113603920D01*
X104865132Y-113605079D01*
X104885062Y-113639192D01*
X104901996Y-113701753D01*
X104901993Y-113742098D01*
X104902000Y-113742203D01*
X104902000Y-115183178D01*
X104901992Y-115183304D01*
X104901995Y-115223245D01*
X104885064Y-115285801D01*
X104865280Y-115319666D01*
X104864427Y-115321375D01*
X104856162Y-115335560D01*
X104856148Y-115335584D01*
X104794081Y-115507292D01*
X104794077Y-115507308D01*
X104764119Y-115687418D01*
X104767259Y-115869992D01*
X104803394Y-116048965D01*
X104803397Y-116048976D01*
X104853906Y-116174974D01*
X104860579Y-116244524D01*
X104828591Y-116306641D01*
X104768098Y-116341603D01*
X104698306Y-116338310D01*
X104651128Y-116308793D01*
X103818519Y-115476184D01*
X103785034Y-115414861D01*
X103782200Y-115388503D01*
X103782200Y-114920945D01*
X103782200Y-114920943D01*
X103741277Y-114768216D01*
X103666357Y-114638449D01*
X103662224Y-114631290D01*
X103662218Y-114631282D01*
X103550417Y-114519481D01*
X103550412Y-114519477D01*
X103442499Y-114457174D01*
X103394284Y-114406607D01*
X103380499Y-114349787D01*
X103380499Y-114152129D01*
X103380498Y-114152123D01*
X103380497Y-114152116D01*
X103374091Y-114092517D01*
X103351382Y-114031632D01*
X103323797Y-113957671D01*
X103323793Y-113957664D01*
X103237547Y-113842455D01*
X103237544Y-113842452D01*
X103122335Y-113756206D01*
X103122328Y-113756202D01*
X102987482Y-113705908D01*
X102987483Y-113705908D01*
X102927883Y-113699501D01*
X102927881Y-113699500D01*
X102927873Y-113699500D01*
X102927864Y-113699500D01*
X101232129Y-113699500D01*
X101232123Y-113699501D01*
X101172516Y-113705908D01*
X101037671Y-113756202D01*
X101037664Y-113756206D01*
X100922455Y-113842452D01*
X100922452Y-113842455D01*
X100836206Y-113957664D01*
X100836202Y-113957671D01*
X100785908Y-114092517D01*
X100782541Y-114123839D01*
X100779501Y-114152123D01*
X100779500Y-114152135D01*
X100779500Y-115847870D01*
X100779501Y-115847876D01*
X100785908Y-115907483D01*
X100836202Y-116042328D01*
X100836206Y-116042335D01*
X100922452Y-116157544D01*
X100922455Y-116157547D01*
X101037664Y-116243793D01*
X101037671Y-116243797D01*
X101172517Y-116294091D01*
X101172516Y-116294091D01*
X101179444Y-116294835D01*
X101232127Y-116300500D01*
X102893002Y-116300499D01*
X102960041Y-116320184D01*
X102980683Y-116336818D01*
X106719539Y-120075674D01*
X106719549Y-120075685D01*
X106723879Y-120080015D01*
X106723880Y-120080016D01*
X106835684Y-120191820D01*
X106922495Y-120241939D01*
X106922497Y-120241941D01*
X106960551Y-120263911D01*
X106972615Y-120270877D01*
X107125343Y-120311801D01*
X107125346Y-120311801D01*
X107291053Y-120311801D01*
X107291069Y-120311800D01*
X111417913Y-120311800D01*
X111484952Y-120331485D01*
X111530707Y-120384289D01*
X111540651Y-120453447D01*
X111512203Y-120516330D01*
X111440387Y-120600415D01*
X111401161Y-120646344D01*
X111401160Y-120646346D01*
X111269533Y-120861140D01*
X111173126Y-121093889D01*
X111114317Y-121338848D01*
X111094551Y-121590000D01*
X111114317Y-121841151D01*
X111173126Y-122086110D01*
X111269533Y-122318859D01*
X111401160Y-122533653D01*
X111401161Y-122533656D01*
X111401164Y-122533659D01*
X111564776Y-122725224D01*
X111678783Y-122822595D01*
X111716976Y-122881102D01*
X111717474Y-122950970D01*
X111680121Y-123010016D01*
X111616774Y-123039494D01*
X111578854Y-123039358D01*
X111516611Y-123029500D01*
X111343389Y-123029500D01*
X111303728Y-123035781D01*
X111172302Y-123056597D01*
X111007552Y-123110128D01*
X110853211Y-123188768D01*
X110773256Y-123246859D01*
X110713072Y-123290586D01*
X110713070Y-123290588D01*
X110713069Y-123290588D01*
X110590588Y-123413069D01*
X110590588Y-123413070D01*
X110590586Y-123413072D01*
X110547773Y-123471999D01*
X110488768Y-123553211D01*
X110410128Y-123707552D01*
X110356597Y-123872302D01*
X110339146Y-123982486D01*
X110329500Y-124043389D01*
X110329500Y-124216611D01*
X110356598Y-124387701D01*
X110410127Y-124552445D01*
X110488768Y-124706788D01*
X110590586Y-124846928D01*
X110713072Y-124969414D01*
X110853212Y-125071232D01*
X111007555Y-125149873D01*
X111172299Y-125203402D01*
X111343389Y-125230500D01*
X111343390Y-125230500D01*
X111516610Y-125230500D01*
X111516611Y-125230500D01*
X111687701Y-125203402D01*
X111852445Y-125149873D01*
X112006788Y-125071232D01*
X112146928Y-124969414D01*
X112269414Y-124846928D01*
X112371232Y-124706788D01*
X112449873Y-124552445D01*
X112503402Y-124387701D01*
X112530500Y-124216611D01*
X112530500Y-124043389D01*
X112520854Y-123982486D01*
X114259500Y-123982486D01*
X114259500Y-124277513D01*
X114291571Y-124521113D01*
X114298007Y-124569993D01*
X114372212Y-124846930D01*
X114374361Y-124854951D01*
X114374364Y-124854961D01*
X114487254Y-125127500D01*
X114487258Y-125127510D01*
X114634761Y-125382993D01*
X114814352Y-125617040D01*
X114814358Y-125617047D01*
X115022952Y-125825641D01*
X115022959Y-125825647D01*
X115257006Y-126005238D01*
X115512489Y-126152741D01*
X115512490Y-126152741D01*
X115512493Y-126152743D01*
X115785048Y-126265639D01*
X116070007Y-126341993D01*
X116362494Y-126380500D01*
X116362501Y-126380500D01*
X116657499Y-126380500D01*
X116657506Y-126380500D01*
X116949993Y-126341993D01*
X117234952Y-126265639D01*
X117507507Y-126152743D01*
X117762994Y-126005238D01*
X117997042Y-125825646D01*
X118205646Y-125617042D01*
X118385238Y-125382994D01*
X118532743Y-125127507D01*
X118645639Y-124854952D01*
X118721993Y-124569993D01*
X118760500Y-124277506D01*
X118760500Y-123982494D01*
X118721993Y-123690007D01*
X118645639Y-123405048D01*
X118532743Y-123132493D01*
X118468064Y-123020466D01*
X118385238Y-122877006D01*
X118205647Y-122642959D01*
X118205641Y-122642952D01*
X117997047Y-122434358D01*
X117997040Y-122434352D01*
X117762993Y-122254761D01*
X117507510Y-122107258D01*
X117507500Y-122107254D01*
X117234961Y-121994364D01*
X117234954Y-121994362D01*
X117234952Y-121994361D01*
X116949993Y-121918007D01*
X116901113Y-121911571D01*
X116657513Y-121879500D01*
X116657506Y-121879500D01*
X116362494Y-121879500D01*
X116362486Y-121879500D01*
X116084085Y-121916153D01*
X116070007Y-121918007D01*
X115785048Y-121994361D01*
X115785038Y-121994364D01*
X115512499Y-122107254D01*
X115512489Y-122107258D01*
X115257006Y-122254761D01*
X115022959Y-122434352D01*
X115022952Y-122434358D01*
X114814358Y-122642952D01*
X114814352Y-122642959D01*
X114634761Y-122877006D01*
X114487258Y-123132489D01*
X114487254Y-123132499D01*
X114374364Y-123405038D01*
X114374361Y-123405048D01*
X114298008Y-123690004D01*
X114298006Y-123690015D01*
X114259500Y-123982486D01*
X112520854Y-123982486D01*
X112503402Y-123872299D01*
X112449873Y-123707555D01*
X112371232Y-123553212D01*
X112269414Y-123413072D01*
X112211232Y-123354890D01*
X112177747Y-123293567D01*
X112182731Y-123223875D01*
X112224603Y-123167942D01*
X112290067Y-123143525D01*
X112327856Y-123146634D01*
X112448852Y-123175683D01*
X112700000Y-123195449D01*
X112951148Y-123175683D01*
X113196111Y-123116873D01*
X113428859Y-123020466D01*
X113643659Y-122888836D01*
X113835224Y-122725224D01*
X113998836Y-122533659D01*
X114130466Y-122318859D01*
X114226873Y-122086111D01*
X114285683Y-121841148D01*
X114305449Y-121590000D01*
X114285683Y-121338852D01*
X114261770Y-121239246D01*
X114265261Y-121169464D01*
X114305925Y-121112647D01*
X114370851Y-121086834D01*
X114382344Y-121086300D01*
X121862531Y-121086300D01*
X121862547Y-121086301D01*
X121870143Y-121086301D01*
X122028254Y-121086301D01*
X122028257Y-121086301D01*
X122180985Y-121045377D01*
X122231104Y-121016439D01*
X122317916Y-120966320D01*
X122429720Y-120854516D01*
X122429721Y-120854513D01*
X122537821Y-120746412D01*
X122599143Y-120712930D01*
X122668834Y-120717914D01*
X122724767Y-120759786D01*
X122749184Y-120825251D01*
X122749500Y-120834096D01*
X122749500Y-123471999D01*
X122729815Y-123539038D01*
X122677011Y-123584793D01*
X122607853Y-123594737D01*
X122544297Y-123565712D01*
X122525182Y-123544885D01*
X122520934Y-123539038D01*
X122429414Y-123413072D01*
X122306928Y-123290586D01*
X122166788Y-123188768D01*
X122012445Y-123110127D01*
X121847701Y-123056598D01*
X121847699Y-123056597D01*
X121847698Y-123056597D01*
X121716271Y-123035781D01*
X121676611Y-123029500D01*
X121503389Y-123029500D01*
X121463728Y-123035781D01*
X121332302Y-123056597D01*
X121167552Y-123110128D01*
X121013211Y-123188768D01*
X120933256Y-123246859D01*
X120873072Y-123290586D01*
X120873070Y-123290588D01*
X120873069Y-123290588D01*
X120750588Y-123413069D01*
X120750588Y-123413070D01*
X120750586Y-123413072D01*
X120707773Y-123471999D01*
X120648768Y-123553211D01*
X120570128Y-123707552D01*
X120516597Y-123872302D01*
X120499146Y-123982486D01*
X120489500Y-124043389D01*
X120489500Y-124216611D01*
X120516598Y-124387701D01*
X120570127Y-124552445D01*
X120648768Y-124706788D01*
X120750586Y-124846928D01*
X120873072Y-124969414D01*
X121013212Y-125071232D01*
X121167555Y-125149873D01*
X121332299Y-125203402D01*
X121503389Y-125230500D01*
X121503390Y-125230500D01*
X121676610Y-125230500D01*
X121676611Y-125230500D01*
X121847701Y-125203402D01*
X122012445Y-125149873D01*
X122166788Y-125071232D01*
X122306928Y-124969414D01*
X122429414Y-124846928D01*
X122525182Y-124715114D01*
X122580512Y-124672449D01*
X122650125Y-124666470D01*
X122711920Y-124699076D01*
X122746278Y-124759915D01*
X122749500Y-124788000D01*
X122749500Y-136242518D01*
X122749500Y-136242520D01*
X122749499Y-136242520D01*
X122778340Y-136387507D01*
X122778343Y-136387517D01*
X122834914Y-136524092D01*
X122867677Y-136573125D01*
X122867678Y-136573128D01*
X122917046Y-136647014D01*
X122917047Y-136647015D01*
X122917048Y-136647016D01*
X122994850Y-136724818D01*
X123028335Y-136786140D01*
X123023351Y-136855832D01*
X122994850Y-136900180D01*
X120994351Y-138900681D01*
X120933028Y-138934166D01*
X120906670Y-138937000D01*
X120621252Y-138937000D01*
X120554213Y-138917315D01*
X120508458Y-138864511D01*
X120498514Y-138795353D01*
X120506691Y-138765548D01*
X120576872Y-138596114D01*
X120576872Y-138596113D01*
X120576873Y-138596111D01*
X120635683Y-138351148D01*
X120655449Y-138100000D01*
X120635683Y-137848852D01*
X120576873Y-137603889D01*
X120480466Y-137371141D01*
X120480466Y-137371140D01*
X120348839Y-137156346D01*
X120348838Y-137156343D01*
X120311875Y-137113066D01*
X120185224Y-136964776D01*
X120006931Y-136812499D01*
X119993656Y-136801161D01*
X119993653Y-136801160D01*
X119778859Y-136669533D01*
X119546110Y-136573126D01*
X119301151Y-136514317D01*
X119050000Y-136494551D01*
X118798848Y-136514317D01*
X118553889Y-136573126D01*
X118321140Y-136669533D01*
X118106346Y-136801160D01*
X118106343Y-136801161D01*
X117914776Y-136964776D01*
X117751161Y-137156343D01*
X117751160Y-137156346D01*
X117619533Y-137371140D01*
X117523126Y-137603889D01*
X117464317Y-137848848D01*
X117444551Y-138100000D01*
X117464317Y-138351151D01*
X117523127Y-138596112D01*
X117523127Y-138596114D01*
X117593309Y-138765548D01*
X117600778Y-138835017D01*
X117569503Y-138897496D01*
X117509414Y-138933148D01*
X117478748Y-138937000D01*
X115842830Y-138937000D01*
X115775791Y-138917315D01*
X115755149Y-138900681D01*
X115058821Y-138204352D01*
X115058814Y-138204346D01*
X114985129Y-138155112D01*
X114985129Y-138155113D01*
X114935891Y-138122213D01*
X114799317Y-138065643D01*
X114799307Y-138065640D01*
X114654320Y-138036800D01*
X114654318Y-138036800D01*
X108715581Y-138036800D01*
X108648542Y-138017115D01*
X108602787Y-137964311D01*
X108592843Y-137895153D01*
X108617206Y-137837313D01*
X108636811Y-137811763D01*
X108636811Y-137811762D01*
X108695506Y-137670063D01*
X108710499Y-137556177D01*
X108710498Y-136418570D01*
X108730183Y-136351532D01*
X108760099Y-136319370D01*
X108859854Y-136244560D01*
X108983695Y-136110368D01*
X109081197Y-135955975D01*
X109149140Y-135786483D01*
X109185279Y-135607492D01*
X109188420Y-135424916D01*
X109158458Y-135244788D01*
X109158100Y-135243797D01*
X109096384Y-135073061D01*
X109089199Y-135060733D01*
X109087981Y-135058642D01*
X109087328Y-135057331D01*
X109067442Y-135023305D01*
X109050499Y-134960737D01*
X109050499Y-133999998D01*
X109534532Y-133999998D01*
X109534532Y-134000001D01*
X109554364Y-134226686D01*
X109554366Y-134226697D01*
X109613258Y-134446488D01*
X109613261Y-134446497D01*
X109709431Y-134652732D01*
X109709432Y-134652734D01*
X109839954Y-134839141D01*
X110000858Y-135000045D01*
X110000861Y-135000047D01*
X110187266Y-135130568D01*
X110393504Y-135226739D01*
X110613308Y-135285635D01*
X110775230Y-135299801D01*
X110839998Y-135305468D01*
X110840000Y-135305468D01*
X110840002Y-135305468D01*
X110896807Y-135300498D01*
X111066692Y-135285635D01*
X111286496Y-135226739D01*
X111492734Y-135130568D01*
X111679139Y-135000047D01*
X111840047Y-134839139D01*
X111970568Y-134652734D01*
X112066739Y-134446496D01*
X112125635Y-134226692D01*
X112145468Y-134000000D01*
X112125635Y-133773308D01*
X112066739Y-133553504D01*
X111970568Y-133347266D01*
X111840047Y-133160861D01*
X111840045Y-133160858D01*
X111679141Y-132999954D01*
X111492734Y-132869432D01*
X111492732Y-132869431D01*
X111286497Y-132773261D01*
X111286488Y-132773258D01*
X111066697Y-132714366D01*
X111066693Y-132714365D01*
X111066692Y-132714365D01*
X111066691Y-132714364D01*
X111066686Y-132714364D01*
X110840002Y-132694532D01*
X110839998Y-132694532D01*
X110613313Y-132714364D01*
X110613302Y-132714366D01*
X110393511Y-132773258D01*
X110393502Y-132773261D01*
X110187267Y-132869431D01*
X110187265Y-132869432D01*
X110000858Y-132999954D01*
X109839954Y-133160858D01*
X109709432Y-133347265D01*
X109709431Y-133347267D01*
X109613261Y-133553502D01*
X109613258Y-133553511D01*
X109554366Y-133773302D01*
X109554364Y-133773313D01*
X109534532Y-133999998D01*
X109050499Y-133999998D01*
X109050499Y-133479607D01*
X109050506Y-133479486D01*
X109050505Y-133471394D01*
X109050506Y-133471392D01*
X109050502Y-133439256D01*
X109067435Y-133376694D01*
X109083691Y-133348870D01*
X109083692Y-133348866D01*
X109087288Y-133342711D01*
X109088110Y-133341059D01*
X109096350Y-133326922D01*
X109158421Y-133155200D01*
X109188382Y-132975079D01*
X109185241Y-132792510D01*
X109185241Y-132792508D01*
X109149105Y-132613533D01*
X109149102Y-132613523D01*
X109086173Y-132456541D01*
X109081162Y-132444040D01*
X108991560Y-132302158D01*
X108983666Y-132289658D01*
X108983657Y-132289646D01*
X108859831Y-132155470D01*
X108817293Y-132123569D01*
X108759601Y-132080303D01*
X108717780Y-132024334D01*
X108709999Y-131981101D01*
X108709999Y-131850000D01*
X107923999Y-131850000D01*
X107856960Y-131830315D01*
X107811205Y-131777511D01*
X107799999Y-131726000D01*
X107799999Y-131474000D01*
X107819684Y-131406961D01*
X107872488Y-131361206D01*
X107923999Y-131350000D01*
X108709999Y-131350000D01*
X108709999Y-131175100D01*
X108729684Y-131108061D01*
X108782488Y-131062306D01*
X108833999Y-131051100D01*
X116048803Y-131051100D01*
X116115842Y-131070785D01*
X116136483Y-131087418D01*
X119529584Y-134480520D01*
X119529586Y-134480521D01*
X119529590Y-134480524D01*
X119637499Y-134542825D01*
X119685715Y-134593391D01*
X119699500Y-134650211D01*
X119699500Y-134847869D01*
X119699501Y-134847876D01*
X119705908Y-134907483D01*
X119756202Y-135042328D01*
X119756206Y-135042335D01*
X119842452Y-135157544D01*
X119842455Y-135157547D01*
X119957664Y-135243793D01*
X119957671Y-135243797D01*
X120092517Y-135294091D01*
X120092516Y-135294091D01*
X120099444Y-135294835D01*
X120152127Y-135300500D01*
X121847872Y-135300499D01*
X121907483Y-135294091D01*
X122042331Y-135243796D01*
X122157546Y-135157546D01*
X122243796Y-135042331D01*
X122294091Y-134907483D01*
X122300500Y-134847873D01*
X122300499Y-133152128D01*
X122294091Y-133092517D01*
X122289495Y-133080195D01*
X122243797Y-132957671D01*
X122243793Y-132957664D01*
X122157547Y-132842455D01*
X122157544Y-132842452D01*
X122042335Y-132756206D01*
X122042328Y-132756202D01*
X121907482Y-132705908D01*
X121907483Y-132705908D01*
X121847883Y-132699501D01*
X121847881Y-132699500D01*
X121847873Y-132699500D01*
X121847864Y-132699500D01*
X120152129Y-132699500D01*
X120152123Y-132699501D01*
X120092516Y-132705908D01*
X119957671Y-132756202D01*
X119957664Y-132756206D01*
X119842455Y-132842452D01*
X119842452Y-132842455D01*
X119820126Y-132872278D01*
X119764191Y-132914147D01*
X119694500Y-132919129D01*
X119633181Y-132885645D01*
X116836490Y-130088955D01*
X116836488Y-130088952D01*
X116717617Y-129970081D01*
X116717616Y-129970080D01*
X116630804Y-129919960D01*
X116630804Y-129919959D01*
X116630800Y-129919958D01*
X116580685Y-129891023D01*
X116427957Y-129850099D01*
X116269843Y-129850099D01*
X116262247Y-129850099D01*
X116262231Y-129850100D01*
X105853770Y-129850100D01*
X105853754Y-129850099D01*
X105846158Y-129850099D01*
X105688043Y-129850099D01*
X105611679Y-129870561D01*
X105535314Y-129891023D01*
X105535309Y-129891026D01*
X105398390Y-129970075D01*
X105398382Y-129970081D01*
X104018464Y-131350000D01*
X102812986Y-132555478D01*
X102812984Y-132555480D01*
X102754941Y-132613523D01*
X102705282Y-132663182D01*
X102643959Y-132696666D01*
X102617601Y-132699500D01*
X101232129Y-132699500D01*
X101232123Y-132699501D01*
X101172516Y-132705908D01*
X101037671Y-132756202D01*
X101037664Y-132756206D01*
X100922455Y-132842452D01*
X100922452Y-132842455D01*
X100836206Y-132957664D01*
X100836202Y-132957671D01*
X100785908Y-133092517D01*
X100779677Y-133150478D01*
X100779501Y-133152123D01*
X100779500Y-133152135D01*
X100779500Y-134847870D01*
X100779501Y-134847876D01*
X100785908Y-134907483D01*
X100836202Y-135042328D01*
X100836206Y-135042335D01*
X100922452Y-135157544D01*
X100922455Y-135157547D01*
X101037664Y-135243793D01*
X101037671Y-135243797D01*
X101172517Y-135294091D01*
X101172516Y-135294091D01*
X101179444Y-135294835D01*
X101232127Y-135300500D01*
X102927872Y-135300499D01*
X102987483Y-135294091D01*
X103122331Y-135243796D01*
X103237546Y-135157546D01*
X103323796Y-135042331D01*
X103374091Y-134907483D01*
X103380500Y-134847873D01*
X103380499Y-134650212D01*
X103400183Y-134583173D01*
X103442497Y-134542825D01*
X103550416Y-134480520D01*
X103662220Y-134368716D01*
X103677526Y-134342203D01*
X103728091Y-134293988D01*
X103796697Y-134280763D01*
X103813804Y-134284514D01*
X103813963Y-134283820D01*
X103820748Y-134285369D01*
X103999996Y-134305565D01*
X104000000Y-134305565D01*
X104000004Y-134305565D01*
X104179249Y-134285369D01*
X104179252Y-134285368D01*
X104179255Y-134285368D01*
X104349522Y-134225789D01*
X104502262Y-134129816D01*
X104629816Y-134002262D01*
X104725789Y-133849522D01*
X104785368Y-133679255D01*
X104799537Y-133553502D01*
X104802280Y-133529159D01*
X104829346Y-133464745D01*
X104886941Y-133425190D01*
X104956778Y-133423052D01*
X105016684Y-133459010D01*
X105047640Y-133521648D01*
X105049500Y-133543042D01*
X105049500Y-134920678D01*
X105049492Y-134920804D01*
X105049495Y-134960745D01*
X105032564Y-135023301D01*
X105012780Y-135057166D01*
X105011927Y-135058875D01*
X105003662Y-135073060D01*
X105003648Y-135073084D01*
X104941581Y-135244792D01*
X104941577Y-135244808D01*
X104911619Y-135424918D01*
X104914759Y-135607492D01*
X104950894Y-135786465D01*
X104950897Y-135786476D01*
X105018837Y-135955957D01*
X105018837Y-135955958D01*
X105116332Y-136110338D01*
X105116334Y-136110341D01*
X105116337Y-136110345D01*
X105238314Y-136242518D01*
X105240173Y-136244532D01*
X105339895Y-136319318D01*
X105381718Y-136375288D01*
X105389499Y-136418521D01*
X105389499Y-137556178D01*
X105404490Y-137670054D01*
X105404491Y-137670060D01*
X105404492Y-137670063D01*
X105409669Y-137682561D01*
X105463186Y-137811762D01*
X105463187Y-137811763D01*
X105556555Y-137933444D01*
X105557168Y-137933914D01*
X105557555Y-137934444D01*
X105562302Y-137939191D01*
X105561561Y-137939931D01*
X105598371Y-137990341D01*
X105602526Y-138060087D01*
X105568314Y-138121008D01*
X105506597Y-138153761D01*
X105440728Y-138149332D01*
X105295407Y-138098482D01*
X105295399Y-138098480D01*
X105116154Y-138078285D01*
X105116146Y-138078285D01*
X104936900Y-138098480D01*
X104936895Y-138098481D01*
X104766626Y-138158061D01*
X104613887Y-138254034D01*
X104486334Y-138381587D01*
X104390361Y-138534326D01*
X104330781Y-138704595D01*
X104330780Y-138704600D01*
X104310585Y-138883846D01*
X104310585Y-138883853D01*
X104330780Y-139063099D01*
X104330781Y-139063104D01*
X104390361Y-139233373D01*
X104410684Y-139265716D01*
X104486334Y-139386112D01*
X104613888Y-139513666D01*
X104766628Y-139609639D01*
X104936895Y-139669218D01*
X105023819Y-139679011D01*
X105088230Y-139706076D01*
X105097614Y-139714549D01*
X110449984Y-145066920D01*
X110449986Y-145066921D01*
X110449990Y-145066924D01*
X110586909Y-145145973D01*
X110586916Y-145145977D01*
X110739643Y-145186901D01*
X110739645Y-145186901D01*
X110905354Y-145186901D01*
X110905370Y-145186900D01*
X111928431Y-145186900D01*
X111928447Y-145186901D01*
X111936043Y-145186901D01*
X112094154Y-145186901D01*
X112094157Y-145186901D01*
X112246885Y-145145977D01*
X112297004Y-145117039D01*
X112383816Y-145066920D01*
X112495620Y-144955116D01*
X112495620Y-144955114D01*
X112505828Y-144944907D01*
X112505830Y-144944904D01*
X113388913Y-144061821D01*
X113388916Y-144061820D01*
X113500720Y-143950016D01*
X113550839Y-143863204D01*
X113579777Y-143813085D01*
X113620700Y-143660357D01*
X113620700Y-143502243D01*
X113620700Y-143348297D01*
X113640385Y-143281258D01*
X113657019Y-143260616D01*
X113832105Y-143085530D01*
X114057959Y-142859675D01*
X114119280Y-142826192D01*
X114188971Y-142831176D01*
X114244905Y-142873047D01*
X114269322Y-142938512D01*
X114268577Y-142963543D01*
X114259501Y-143032483D01*
X114259500Y-143032500D01*
X114259500Y-143327513D01*
X114282505Y-143502243D01*
X114298007Y-143619993D01*
X114372212Y-143896930D01*
X114374361Y-143904951D01*
X114374364Y-143904961D01*
X114487254Y-144177500D01*
X114487258Y-144177510D01*
X114634761Y-144432993D01*
X114814352Y-144667040D01*
X114814358Y-144667047D01*
X115022952Y-144875641D01*
X115022959Y-144875647D01*
X115257006Y-145055238D01*
X115512489Y-145202741D01*
X115512490Y-145202741D01*
X115512493Y-145202743D01*
X115785048Y-145315639D01*
X116070007Y-145391993D01*
X116362494Y-145430500D01*
X116362501Y-145430500D01*
X116657499Y-145430500D01*
X116657506Y-145430500D01*
X116949993Y-145391993D01*
X117234952Y-145315639D01*
X117507507Y-145202743D01*
X117762994Y-145055238D01*
X117997042Y-144875646D01*
X118205646Y-144667042D01*
X118385238Y-144432994D01*
X118532743Y-144177507D01*
X118645639Y-143904952D01*
X118721993Y-143619993D01*
X118760500Y-143327506D01*
X118760500Y-143093389D01*
X120489500Y-143093389D01*
X120489500Y-143266611D01*
X120516598Y-143437701D01*
X120570127Y-143602445D01*
X120648768Y-143756788D01*
X120750586Y-143896928D01*
X120873072Y-144019414D01*
X121013212Y-144121232D01*
X121167555Y-144199873D01*
X121332299Y-144253402D01*
X121503389Y-144280500D01*
X121503390Y-144280500D01*
X121676610Y-144280500D01*
X121676611Y-144280500D01*
X121847701Y-144253402D01*
X122012445Y-144199873D01*
X122166788Y-144121232D01*
X122306928Y-144019414D01*
X122429414Y-143896928D01*
X122531232Y-143756788D01*
X122609873Y-143602445D01*
X122663402Y-143437701D01*
X122690500Y-143266611D01*
X122690500Y-143093389D01*
X129679500Y-143093389D01*
X129679500Y-143266611D01*
X129706598Y-143437701D01*
X129760127Y-143602445D01*
X129838768Y-143756788D01*
X129940586Y-143896928D01*
X130063072Y-144019414D01*
X130203212Y-144121232D01*
X130357555Y-144199873D01*
X130522299Y-144253402D01*
X130693389Y-144280500D01*
X130693390Y-144280500D01*
X130866610Y-144280500D01*
X130866611Y-144280500D01*
X131037701Y-144253402D01*
X131202445Y-144199873D01*
X131356788Y-144121232D01*
X131496928Y-144019414D01*
X131619414Y-143896928D01*
X131721232Y-143756788D01*
X131799873Y-143602445D01*
X131853402Y-143437701D01*
X131880500Y-143266611D01*
X131880500Y-143093389D01*
X131870854Y-143032486D01*
X133609500Y-143032486D01*
X133609500Y-143327513D01*
X133632505Y-143502243D01*
X133648007Y-143619993D01*
X133722212Y-143896930D01*
X133724361Y-143904951D01*
X133724364Y-143904961D01*
X133837254Y-144177500D01*
X133837258Y-144177510D01*
X133984761Y-144432993D01*
X134164352Y-144667040D01*
X134164358Y-144667047D01*
X134372952Y-144875641D01*
X134372959Y-144875647D01*
X134607006Y-145055238D01*
X134862489Y-145202741D01*
X134862490Y-145202741D01*
X134862493Y-145202743D01*
X135135048Y-145315639D01*
X135420007Y-145391993D01*
X135712494Y-145430500D01*
X135712501Y-145430500D01*
X136007499Y-145430500D01*
X136007506Y-145430500D01*
X136299993Y-145391993D01*
X136584952Y-145315639D01*
X136857507Y-145202743D01*
X137112994Y-145055238D01*
X137347042Y-144875646D01*
X137555646Y-144667042D01*
X137735238Y-144432994D01*
X137882743Y-144177507D01*
X137995639Y-143904952D01*
X138071993Y-143619993D01*
X138110500Y-143327506D01*
X138110500Y-143093389D01*
X139839500Y-143093389D01*
X139839500Y-143266611D01*
X139866598Y-143437701D01*
X139920127Y-143602445D01*
X139998768Y-143756788D01*
X140100586Y-143896928D01*
X140223072Y-144019414D01*
X140363212Y-144121232D01*
X140517555Y-144199873D01*
X140682299Y-144253402D01*
X140853389Y-144280500D01*
X140853390Y-144280500D01*
X141026610Y-144280500D01*
X141026611Y-144280500D01*
X141197701Y-144253402D01*
X141362445Y-144199873D01*
X141516788Y-144121232D01*
X141656928Y-144019414D01*
X141779414Y-143896928D01*
X141881232Y-143756788D01*
X141959873Y-143602445D01*
X142013402Y-143437701D01*
X142040500Y-143266611D01*
X142040500Y-143093389D01*
X142013402Y-142922299D01*
X141959873Y-142757555D01*
X141881232Y-142603212D01*
X141779414Y-142463072D01*
X141656928Y-142340586D01*
X141516788Y-142238768D01*
X141362445Y-142160127D01*
X141197701Y-142106598D01*
X141197699Y-142106597D01*
X141197698Y-142106597D01*
X141066271Y-142085781D01*
X141026611Y-142079500D01*
X140853389Y-142079500D01*
X140813728Y-142085781D01*
X140682302Y-142106597D01*
X140517552Y-142160128D01*
X140363211Y-142238768D01*
X140283256Y-142296859D01*
X140223072Y-142340586D01*
X140223070Y-142340588D01*
X140223069Y-142340588D01*
X140100588Y-142463069D01*
X140100588Y-142463070D01*
X140100586Y-142463072D01*
X140056859Y-142523256D01*
X139998768Y-142603211D01*
X139920128Y-142757552D01*
X139866597Y-142922302D01*
X139840745Y-143085530D01*
X139839500Y-143093389D01*
X138110500Y-143093389D01*
X138110500Y-143032494D01*
X138071993Y-142740007D01*
X137995639Y-142455048D01*
X137882743Y-142182493D01*
X137818064Y-142070466D01*
X137735238Y-141927006D01*
X137555647Y-141692959D01*
X137555641Y-141692952D01*
X137347047Y-141484358D01*
X137347040Y-141484352D01*
X137112993Y-141304761D01*
X136857510Y-141157258D01*
X136857500Y-141157254D01*
X136584961Y-141044364D01*
X136584954Y-141044362D01*
X136584952Y-141044361D01*
X136299993Y-140968007D01*
X136251113Y-140961571D01*
X136007513Y-140929500D01*
X136007506Y-140929500D01*
X135712494Y-140929500D01*
X135712486Y-140929500D01*
X135434085Y-140966153D01*
X135420007Y-140968007D01*
X135135048Y-141044361D01*
X135135038Y-141044364D01*
X134862499Y-141157254D01*
X134862489Y-141157258D01*
X134607006Y-141304761D01*
X134372959Y-141484352D01*
X134372952Y-141484358D01*
X134164358Y-141692952D01*
X134164352Y-141692959D01*
X133984761Y-141927006D01*
X133837258Y-142182489D01*
X133837254Y-142182499D01*
X133724364Y-142455038D01*
X133724361Y-142455048D01*
X133673559Y-142644647D01*
X133648008Y-142740004D01*
X133648006Y-142740015D01*
X133609500Y-143032486D01*
X131870854Y-143032486D01*
X131853402Y-142922299D01*
X131799873Y-142757555D01*
X131721232Y-142603212D01*
X131619414Y-142463072D01*
X131561232Y-142404890D01*
X131527747Y-142343567D01*
X131532731Y-142273875D01*
X131574603Y-142217942D01*
X131640067Y-142193525D01*
X131677856Y-142196634D01*
X131798852Y-142225683D01*
X132050000Y-142245449D01*
X132301148Y-142225683D01*
X132546111Y-142166873D01*
X132778859Y-142070466D01*
X132993659Y-141938836D01*
X133185224Y-141775224D01*
X133348836Y-141583659D01*
X133480466Y-141368859D01*
X133576873Y-141136111D01*
X133635683Y-140891148D01*
X133655449Y-140640000D01*
X133635683Y-140388852D01*
X133576873Y-140143889D01*
X133480466Y-139911140D01*
X133348839Y-139696346D01*
X133348838Y-139696343D01*
X133289505Y-139626873D01*
X133185224Y-139504776D01*
X133027717Y-139370252D01*
X132993656Y-139341161D01*
X132993653Y-139341160D01*
X132778859Y-139209533D01*
X132546110Y-139113126D01*
X132301151Y-139054317D01*
X132050000Y-139034551D01*
X131798848Y-139054317D01*
X131553889Y-139113126D01*
X131321140Y-139209533D01*
X131106346Y-139341160D01*
X131106343Y-139341161D01*
X130914776Y-139504776D01*
X130751161Y-139696343D01*
X130751160Y-139696346D01*
X130619533Y-139911140D01*
X130523126Y-140143889D01*
X130464317Y-140388848D01*
X130444551Y-140640000D01*
X130464317Y-140891151D01*
X130523126Y-141136110D01*
X130619533Y-141368859D01*
X130751160Y-141583653D01*
X130751161Y-141583656D01*
X130751164Y-141583659D01*
X130914776Y-141775224D01*
X131028783Y-141872595D01*
X131066976Y-141931102D01*
X131067474Y-142000970D01*
X131030121Y-142060016D01*
X130966774Y-142089494D01*
X130928854Y-142089358D01*
X130866611Y-142079500D01*
X130693389Y-142079500D01*
X130653728Y-142085781D01*
X130522302Y-142106597D01*
X130357552Y-142160128D01*
X130203211Y-142238768D01*
X130123256Y-142296859D01*
X130063072Y-142340586D01*
X130063070Y-142340588D01*
X130063069Y-142340588D01*
X129940588Y-142463069D01*
X129940588Y-142463070D01*
X129940586Y-142463072D01*
X129896859Y-142523256D01*
X129838768Y-142603211D01*
X129760128Y-142757552D01*
X129706597Y-142922302D01*
X129680745Y-143085530D01*
X129679500Y-143093389D01*
X122690500Y-143093389D01*
X122663402Y-142922299D01*
X122609873Y-142757555D01*
X122531232Y-142603212D01*
X122429414Y-142463072D01*
X122306928Y-142340586D01*
X122166788Y-142238768D01*
X122012445Y-142160127D01*
X121847701Y-142106598D01*
X121847699Y-142106597D01*
X121847698Y-142106597D01*
X121716271Y-142085781D01*
X121676611Y-142079500D01*
X121503389Y-142079500D01*
X121463728Y-142085781D01*
X121332302Y-142106597D01*
X121167552Y-142160128D01*
X121013211Y-142238768D01*
X120933256Y-142296859D01*
X120873072Y-142340586D01*
X120873070Y-142340588D01*
X120873069Y-142340588D01*
X120750588Y-142463069D01*
X120750588Y-142463070D01*
X120750586Y-142463072D01*
X120706859Y-142523256D01*
X120648768Y-142603211D01*
X120570128Y-142757552D01*
X120516597Y-142922302D01*
X120490745Y-143085530D01*
X120489500Y-143093389D01*
X118760500Y-143093389D01*
X118760500Y-143032494D01*
X118721993Y-142740007D01*
X118645639Y-142455048D01*
X118532743Y-142182493D01*
X118468064Y-142070466D01*
X118385238Y-141927006D01*
X118205647Y-141692959D01*
X118205641Y-141692952D01*
X117997047Y-141484358D01*
X117884733Y-141398176D01*
X117843531Y-141341748D01*
X117839376Y-141272002D01*
X117873589Y-141211081D01*
X117935306Y-141178329D01*
X117960220Y-141175800D01*
X123258131Y-141175800D01*
X123258147Y-141175801D01*
X123265743Y-141175801D01*
X123423854Y-141175801D01*
X123423857Y-141175801D01*
X123576585Y-141134877D01*
X123626704Y-141105939D01*
X123713516Y-141055820D01*
X123825320Y-140944016D01*
X123825320Y-140944014D01*
X123835528Y-140933807D01*
X123835530Y-140933804D01*
X126620016Y-138149318D01*
X126681339Y-138115833D01*
X126707697Y-138112999D01*
X127368677Y-138112999D01*
X127435594Y-138104189D01*
X127467420Y-138100000D01*
X136794551Y-138100000D01*
X136814317Y-138351151D01*
X136873126Y-138596110D01*
X136969533Y-138828859D01*
X137101160Y-139043653D01*
X137101161Y-139043656D01*
X137117772Y-139063105D01*
X137264776Y-139235224D01*
X137300478Y-139265716D01*
X137456343Y-139398838D01*
X137456346Y-139398839D01*
X137671140Y-139530466D01*
X137903889Y-139626873D01*
X138148852Y-139685683D01*
X138400000Y-139705449D01*
X138651148Y-139685683D01*
X138896111Y-139626873D01*
X139128859Y-139530466D01*
X139343659Y-139398836D01*
X139535224Y-139235224D01*
X139698836Y-139043659D01*
X139830466Y-138828859D01*
X139926873Y-138596111D01*
X139985683Y-138351148D01*
X140005449Y-138100000D01*
X139985683Y-137848852D01*
X139926873Y-137603889D01*
X139830466Y-137371141D01*
X139830466Y-137371140D01*
X139698839Y-137156346D01*
X139698838Y-137156343D01*
X139661875Y-137113066D01*
X139535224Y-136964776D01*
X139356931Y-136812499D01*
X139343656Y-136801161D01*
X139343653Y-136801160D01*
X139128859Y-136669533D01*
X138896110Y-136573126D01*
X138651151Y-136514317D01*
X138400000Y-136494551D01*
X138148848Y-136514317D01*
X137903889Y-136573126D01*
X137671140Y-136669533D01*
X137456346Y-136801160D01*
X137456343Y-136801161D01*
X137264776Y-136964776D01*
X137101161Y-137156343D01*
X137101160Y-137156346D01*
X136969533Y-137371140D01*
X136873126Y-137603889D01*
X136814317Y-137848848D01*
X136794551Y-138100000D01*
X127467420Y-138100000D01*
X127482562Y-138098007D01*
X127624262Y-138039312D01*
X127745943Y-137945944D01*
X127839311Y-137824263D01*
X127898006Y-137682563D01*
X127912999Y-137568677D01*
X127912998Y-136431070D01*
X127932683Y-136364032D01*
X127962599Y-136331870D01*
X128062354Y-136257060D01*
X128186195Y-136122868D01*
X128283697Y-135968475D01*
X128351640Y-135798983D01*
X128387779Y-135619992D01*
X128390920Y-135437416D01*
X128360958Y-135257288D01*
X128356440Y-135244788D01*
X128298884Y-135085561D01*
X128291699Y-135073233D01*
X128290481Y-135071142D01*
X128289828Y-135069831D01*
X128269942Y-135035805D01*
X128252999Y-134973237D01*
X128252999Y-133999998D01*
X128614532Y-133999998D01*
X128614532Y-134000001D01*
X128634364Y-134226686D01*
X128634366Y-134226697D01*
X128693258Y-134446488D01*
X128693261Y-134446497D01*
X128789431Y-134652732D01*
X128789432Y-134652734D01*
X128919954Y-134839141D01*
X129080858Y-135000045D01*
X129080861Y-135000047D01*
X129267266Y-135130568D01*
X129473504Y-135226739D01*
X129693308Y-135285635D01*
X129855230Y-135299801D01*
X129919998Y-135305468D01*
X129920000Y-135305468D01*
X129920002Y-135305468D01*
X129976807Y-135300498D01*
X130146692Y-135285635D01*
X130366496Y-135226739D01*
X130572734Y-135130568D01*
X130759139Y-135000047D01*
X130920047Y-134839139D01*
X131050568Y-134652734D01*
X131146739Y-134446496D01*
X131205635Y-134226692D01*
X131225468Y-134000000D01*
X131205635Y-133773308D01*
X131146739Y-133553504D01*
X131050568Y-133347266D01*
X130920047Y-133160861D01*
X130920045Y-133160858D01*
X130911322Y-133152135D01*
X138779500Y-133152135D01*
X138779500Y-134847870D01*
X138779501Y-134847876D01*
X138785908Y-134907483D01*
X138836202Y-135042328D01*
X138836206Y-135042335D01*
X138922452Y-135157544D01*
X138922455Y-135157547D01*
X139037664Y-135243793D01*
X139037671Y-135243797D01*
X139172517Y-135294091D01*
X139172516Y-135294091D01*
X139179444Y-135294835D01*
X139232127Y-135300500D01*
X140927872Y-135300499D01*
X140987483Y-135294091D01*
X141122331Y-135243796D01*
X141237546Y-135157546D01*
X141323796Y-135042331D01*
X141374091Y-134907483D01*
X141380500Y-134847873D01*
X141380499Y-133152128D01*
X141374091Y-133092517D01*
X141369495Y-133080195D01*
X141323797Y-132957671D01*
X141323793Y-132957664D01*
X141237547Y-132842455D01*
X141237544Y-132842452D01*
X141122335Y-132756206D01*
X141122328Y-132756202D01*
X140987482Y-132705908D01*
X140987483Y-132705908D01*
X140927883Y-132699501D01*
X140927881Y-132699500D01*
X140927873Y-132699500D01*
X140927864Y-132699500D01*
X139232129Y-132699500D01*
X139232123Y-132699501D01*
X139172516Y-132705908D01*
X139037671Y-132756202D01*
X139037664Y-132756206D01*
X138922455Y-132842452D01*
X138922452Y-132842455D01*
X138836206Y-132957664D01*
X138836202Y-132957671D01*
X138785908Y-133092517D01*
X138779677Y-133150478D01*
X138779501Y-133152123D01*
X138779500Y-133152135D01*
X130911322Y-133152135D01*
X130759141Y-132999954D01*
X130572734Y-132869432D01*
X130572732Y-132869431D01*
X130366497Y-132773261D01*
X130366488Y-132773258D01*
X130146697Y-132714366D01*
X130146693Y-132714365D01*
X130146692Y-132714365D01*
X130146691Y-132714364D01*
X130146686Y-132714364D01*
X129920002Y-132694532D01*
X129919998Y-132694532D01*
X129693313Y-132714364D01*
X129693302Y-132714366D01*
X129473511Y-132773258D01*
X129473502Y-132773261D01*
X129267267Y-132869431D01*
X129267265Y-132869432D01*
X129080858Y-132999954D01*
X128919954Y-133160858D01*
X128789432Y-133347265D01*
X128789431Y-133347267D01*
X128693261Y-133553502D01*
X128693258Y-133553511D01*
X128634366Y-133773302D01*
X128634364Y-133773313D01*
X128614532Y-133999998D01*
X128252999Y-133999998D01*
X128252999Y-133492107D01*
X128253006Y-133491986D01*
X128253005Y-133483894D01*
X128253006Y-133483892D01*
X128253002Y-133451756D01*
X128269935Y-133389194D01*
X128286191Y-133361370D01*
X128286192Y-133361366D01*
X128289788Y-133355211D01*
X128290610Y-133353559D01*
X128298850Y-133339422D01*
X128360921Y-133167700D01*
X128390882Y-132987579D01*
X128387741Y-132805010D01*
X128387741Y-132805008D01*
X128351605Y-132626033D01*
X128351602Y-132626023D01*
X128283662Y-132456541D01*
X128283662Y-132456540D01*
X128186166Y-132302158D01*
X128186157Y-132302146D01*
X128062331Y-132167970D01*
X128003125Y-132123569D01*
X127962101Y-132092803D01*
X127920280Y-132036834D01*
X127912499Y-131993601D01*
X127912499Y-131862500D01*
X127126499Y-131862500D01*
X127059460Y-131842815D01*
X127013705Y-131790011D01*
X127002499Y-131738500D01*
X127002499Y-131612500D01*
X126876499Y-131612500D01*
X126809460Y-131592815D01*
X126763705Y-131540011D01*
X126752499Y-131488500D01*
X126752499Y-131362500D01*
X127252499Y-131362500D01*
X127912499Y-131362500D01*
X127912499Y-130856353D01*
X127897519Y-130742569D01*
X127897517Y-130742564D01*
X127838877Y-130600993D01*
X127838877Y-130600992D01*
X127745585Y-130479413D01*
X127624005Y-130386121D01*
X127482434Y-130327481D01*
X127482429Y-130327479D01*
X127368646Y-130312500D01*
X127252499Y-130312500D01*
X127252499Y-131362500D01*
X126752499Y-131362500D01*
X126752499Y-130312500D01*
X126636352Y-130312500D01*
X126522568Y-130327479D01*
X126522563Y-130327481D01*
X126380992Y-130386121D01*
X126380988Y-130386123D01*
X126328394Y-130426480D01*
X126263225Y-130451673D01*
X126194780Y-130437634D01*
X126177422Y-130426478D01*
X126151513Y-130406597D01*
X126110310Y-130350169D01*
X126103000Y-130308222D01*
X126103000Y-120014569D01*
X126122685Y-119947530D01*
X126175489Y-119901775D01*
X126244647Y-119891831D01*
X126267955Y-119897528D01*
X126397237Y-119942766D01*
X126397243Y-119942767D01*
X126397245Y-119942768D01*
X126397246Y-119942768D01*
X126397250Y-119942769D01*
X126576496Y-119962965D01*
X126576500Y-119962965D01*
X126576504Y-119962965D01*
X126755749Y-119942769D01*
X126755752Y-119942768D01*
X126755755Y-119942768D01*
X126926022Y-119883189D01*
X127078762Y-119787216D01*
X127078767Y-119787210D01*
X127081597Y-119784955D01*
X127083775Y-119784065D01*
X127084658Y-119783511D01*
X127084755Y-119783665D01*
X127146283Y-119758545D01*
X127158912Y-119757900D01*
X131479100Y-119757900D01*
X131546139Y-119777585D01*
X131591894Y-119830389D01*
X131601838Y-119899547D01*
X131572813Y-119963103D01*
X131514035Y-120000877D01*
X131500405Y-120003944D01*
X131253889Y-120063126D01*
X131021140Y-120159533D01*
X130806346Y-120291160D01*
X130806343Y-120291161D01*
X130614776Y-120454776D01*
X130451161Y-120646343D01*
X130451160Y-120646346D01*
X130319533Y-120861140D01*
X130223126Y-121093889D01*
X130164317Y-121338848D01*
X130144551Y-121590000D01*
X130164317Y-121841151D01*
X130223126Y-122086110D01*
X130319533Y-122318859D01*
X130451160Y-122533653D01*
X130451161Y-122533656D01*
X130451164Y-122533659D01*
X130614776Y-122725224D01*
X130728783Y-122822595D01*
X130766976Y-122881102D01*
X130767474Y-122950970D01*
X130730121Y-123010016D01*
X130666774Y-123039494D01*
X130628854Y-123039358D01*
X130566611Y-123029500D01*
X130393389Y-123029500D01*
X130353728Y-123035781D01*
X130222302Y-123056597D01*
X130057552Y-123110128D01*
X129903211Y-123188768D01*
X129823256Y-123246859D01*
X129763072Y-123290586D01*
X129763070Y-123290588D01*
X129763069Y-123290588D01*
X129640588Y-123413069D01*
X129640588Y-123413070D01*
X129640586Y-123413072D01*
X129597773Y-123471999D01*
X129538768Y-123553211D01*
X129460128Y-123707552D01*
X129406597Y-123872302D01*
X129389146Y-123982486D01*
X129379500Y-124043389D01*
X129379500Y-124216611D01*
X129406598Y-124387701D01*
X129460127Y-124552445D01*
X129538768Y-124706788D01*
X129640586Y-124846928D01*
X129763072Y-124969414D01*
X129903212Y-125071232D01*
X130057555Y-125149873D01*
X130222299Y-125203402D01*
X130393389Y-125230500D01*
X130393390Y-125230500D01*
X130566610Y-125230500D01*
X130566611Y-125230500D01*
X130737701Y-125203402D01*
X130902445Y-125149873D01*
X131056788Y-125071232D01*
X131196928Y-124969414D01*
X131319414Y-124846928D01*
X131421232Y-124706788D01*
X131499873Y-124552445D01*
X131553402Y-124387701D01*
X131580500Y-124216611D01*
X131580500Y-124043389D01*
X131570854Y-123982486D01*
X133309500Y-123982486D01*
X133309500Y-124277513D01*
X133341571Y-124521113D01*
X133348007Y-124569993D01*
X133422212Y-124846930D01*
X133424361Y-124854951D01*
X133424364Y-124854961D01*
X133537254Y-125127500D01*
X133537258Y-125127510D01*
X133684761Y-125382993D01*
X133864352Y-125617040D01*
X133864358Y-125617047D01*
X134072952Y-125825641D01*
X134072959Y-125825647D01*
X134307006Y-126005238D01*
X134562489Y-126152741D01*
X134562490Y-126152741D01*
X134562493Y-126152743D01*
X134835048Y-126265639D01*
X135120007Y-126341993D01*
X135412494Y-126380500D01*
X135412501Y-126380500D01*
X135707499Y-126380500D01*
X135707506Y-126380500D01*
X135999993Y-126341993D01*
X136284952Y-126265639D01*
X136557507Y-126152743D01*
X136812994Y-126005238D01*
X137047042Y-125825646D01*
X137255646Y-125617042D01*
X137435238Y-125382994D01*
X137582743Y-125127507D01*
X137695639Y-124854952D01*
X137771993Y-124569993D01*
X137810500Y-124277506D01*
X137810500Y-124043389D01*
X139539500Y-124043389D01*
X139539500Y-124216611D01*
X139566598Y-124387701D01*
X139620127Y-124552445D01*
X139698768Y-124706788D01*
X139800586Y-124846928D01*
X139923072Y-124969414D01*
X140063212Y-125071232D01*
X140217555Y-125149873D01*
X140382299Y-125203402D01*
X140553389Y-125230500D01*
X140553390Y-125230500D01*
X140726610Y-125230500D01*
X140726611Y-125230500D01*
X140897701Y-125203402D01*
X141062445Y-125149873D01*
X141216788Y-125071232D01*
X141356928Y-124969414D01*
X141479414Y-124846928D01*
X141581232Y-124706788D01*
X141659873Y-124552445D01*
X141713402Y-124387701D01*
X141740500Y-124216611D01*
X141740500Y-124043389D01*
X141713402Y-123872299D01*
X141659873Y-123707555D01*
X141581232Y-123553212D01*
X141479414Y-123413072D01*
X141356928Y-123290586D01*
X141216788Y-123188768D01*
X141062445Y-123110127D01*
X140897701Y-123056598D01*
X140897699Y-123056597D01*
X140897698Y-123056597D01*
X140766271Y-123035781D01*
X140726611Y-123029500D01*
X140553389Y-123029500D01*
X140513728Y-123035781D01*
X140382302Y-123056597D01*
X140217552Y-123110128D01*
X140063211Y-123188768D01*
X139983256Y-123246859D01*
X139923072Y-123290586D01*
X139923070Y-123290588D01*
X139923069Y-123290588D01*
X139800588Y-123413069D01*
X139800588Y-123413070D01*
X139800586Y-123413072D01*
X139757773Y-123471999D01*
X139698768Y-123553211D01*
X139620128Y-123707552D01*
X139566597Y-123872302D01*
X139549146Y-123982486D01*
X139539500Y-124043389D01*
X137810500Y-124043389D01*
X137810500Y-123982494D01*
X137771993Y-123690007D01*
X137695639Y-123405048D01*
X137582743Y-123132493D01*
X137518064Y-123020466D01*
X137435238Y-122877006D01*
X137255647Y-122642959D01*
X137255641Y-122642952D01*
X137047047Y-122434358D01*
X137047040Y-122434352D01*
X136812993Y-122254761D01*
X136557510Y-122107258D01*
X136557500Y-122107254D01*
X136284961Y-121994364D01*
X136284954Y-121994362D01*
X136284952Y-121994361D01*
X135999993Y-121918007D01*
X135951113Y-121911571D01*
X135707513Y-121879500D01*
X135707506Y-121879500D01*
X135412494Y-121879500D01*
X135412486Y-121879500D01*
X135134085Y-121916153D01*
X135120007Y-121918007D01*
X134835048Y-121994361D01*
X134835038Y-121994364D01*
X134562499Y-122107254D01*
X134562489Y-122107258D01*
X134307006Y-122254761D01*
X134072959Y-122434352D01*
X134072952Y-122434358D01*
X133864358Y-122642952D01*
X133864352Y-122642959D01*
X133684761Y-122877006D01*
X133537258Y-123132489D01*
X133537254Y-123132499D01*
X133424364Y-123405038D01*
X133424361Y-123405048D01*
X133348008Y-123690004D01*
X133348006Y-123690015D01*
X133309500Y-123982486D01*
X131570854Y-123982486D01*
X131553402Y-123872299D01*
X131499873Y-123707555D01*
X131421232Y-123553212D01*
X131319414Y-123413072D01*
X131261232Y-123354890D01*
X131227747Y-123293567D01*
X131232731Y-123223875D01*
X131274603Y-123167942D01*
X131340067Y-123143525D01*
X131377856Y-123146634D01*
X131498852Y-123175683D01*
X131750000Y-123195449D01*
X132001148Y-123175683D01*
X132246111Y-123116873D01*
X132478859Y-123020466D01*
X132693659Y-122888836D01*
X132885224Y-122725224D01*
X133048836Y-122533659D01*
X133180466Y-122318859D01*
X133276873Y-122086111D01*
X133335683Y-121841148D01*
X133355449Y-121590000D01*
X133335683Y-121338852D01*
X133276873Y-121093889D01*
X133244792Y-121016439D01*
X133180466Y-120861140D01*
X133048839Y-120646346D01*
X133048838Y-120646343D01*
X132953515Y-120534735D01*
X132885224Y-120454776D01*
X132714504Y-120308967D01*
X132693656Y-120291161D01*
X132693653Y-120291160D01*
X132478859Y-120159533D01*
X132246110Y-120063126D01*
X132043851Y-120014569D01*
X132001148Y-120004317D01*
X132001146Y-120004316D01*
X131996411Y-120003180D01*
X131996674Y-120002084D01*
X131938369Y-119974445D01*
X131901437Y-119915134D01*
X131902433Y-119845272D01*
X131941042Y-119787038D01*
X132005005Y-119758923D01*
X132020900Y-119757900D01*
X134814231Y-119757900D01*
X134814247Y-119757901D01*
X134821843Y-119757901D01*
X134979954Y-119757901D01*
X134979957Y-119757901D01*
X135132685Y-119716977D01*
X135182804Y-119688039D01*
X135269616Y-119637920D01*
X135381420Y-119526116D01*
X135381420Y-119526114D01*
X135391628Y-119515907D01*
X135391630Y-119515904D01*
X136331575Y-118575958D01*
X136392896Y-118542475D01*
X136462588Y-118547459D01*
X136518521Y-118589331D01*
X136542938Y-118654795D01*
X136539828Y-118692587D01*
X136514318Y-118798847D01*
X136514317Y-118798852D01*
X136500206Y-118978145D01*
X136494551Y-119050000D01*
X136514317Y-119301151D01*
X136573126Y-119546110D01*
X136669533Y-119778859D01*
X136801160Y-119993653D01*
X136801161Y-119993656D01*
X136819023Y-120014569D01*
X136964776Y-120185224D01*
X137088811Y-120291160D01*
X137156343Y-120348838D01*
X137156346Y-120348839D01*
X137371140Y-120480466D01*
X137502158Y-120534735D01*
X137603889Y-120576873D01*
X137848852Y-120635683D01*
X138100000Y-120655449D01*
X138351148Y-120635683D01*
X138596111Y-120576873D01*
X138828859Y-120480466D01*
X139043659Y-120348836D01*
X139235224Y-120185224D01*
X139398836Y-119993659D01*
X139530466Y-119778859D01*
X139626873Y-119546111D01*
X139685683Y-119301148D01*
X139705449Y-119050000D01*
X139685683Y-118798852D01*
X139626873Y-118553889D01*
X139598985Y-118486561D01*
X139530466Y-118321140D01*
X139398839Y-118106346D01*
X139398838Y-118106343D01*
X139328457Y-118023938D01*
X139235224Y-117914776D01*
X139108571Y-117806604D01*
X139043656Y-117751161D01*
X139043653Y-117751160D01*
X138828859Y-117619533D01*
X138596110Y-117523126D01*
X138351151Y-117464317D01*
X138100000Y-117444551D01*
X137848852Y-117464317D01*
X137848848Y-117464317D01*
X137848847Y-117464318D01*
X137742587Y-117489828D01*
X137672805Y-117486337D01*
X137615988Y-117445673D01*
X137590175Y-117380746D01*
X137603561Y-117312171D01*
X137625957Y-117281576D01*
X138793183Y-116114350D01*
X138854504Y-116080867D01*
X138924196Y-116085851D01*
X138980127Y-116127722D01*
X139002453Y-116157544D01*
X139002454Y-116157546D01*
X139002455Y-116157547D01*
X139117664Y-116243793D01*
X139117671Y-116243797D01*
X139252517Y-116294091D01*
X139252516Y-116294091D01*
X139259444Y-116294835D01*
X139312127Y-116300500D01*
X141007872Y-116300499D01*
X141067483Y-116294091D01*
X141202331Y-116243796D01*
X141317546Y-116157546D01*
X141403796Y-116042331D01*
X141454091Y-115907483D01*
X141460500Y-115847873D01*
X141460499Y-114152128D01*
X141454091Y-114092517D01*
X141431382Y-114031632D01*
X141403797Y-113957671D01*
X141403793Y-113957664D01*
X141317547Y-113842455D01*
X141317544Y-113842452D01*
X141202335Y-113756206D01*
X141202328Y-113756202D01*
X141067482Y-113705908D01*
X141067483Y-113705908D01*
X141007883Y-113699501D01*
X141007881Y-113699500D01*
X141007873Y-113699500D01*
X141007864Y-113699500D01*
X139312129Y-113699500D01*
X139312123Y-113699501D01*
X139252516Y-113705908D01*
X139117671Y-113756202D01*
X139117664Y-113756206D01*
X139002455Y-113842452D01*
X139002452Y-113842455D01*
X138916206Y-113957664D01*
X138916202Y-113957671D01*
X138865908Y-114092517D01*
X138862541Y-114123839D01*
X138859501Y-114152123D01*
X138859500Y-114152135D01*
X138859500Y-114349787D01*
X138839815Y-114416826D01*
X138797500Y-114457174D01*
X138689587Y-114519477D01*
X138689582Y-114519481D01*
X138577778Y-114631286D01*
X134688484Y-118520581D01*
X134627161Y-118554066D01*
X134600803Y-118556900D01*
X128086646Y-118556900D01*
X128019607Y-118537215D01*
X127973852Y-118484411D01*
X127963908Y-118415253D01*
X127979259Y-118370900D01*
X127980520Y-118368716D01*
X128059577Y-118231784D01*
X128097510Y-118090217D01*
X128133874Y-118030560D01*
X128141786Y-118023947D01*
X128243444Y-117945944D01*
X128336812Y-117824263D01*
X128395507Y-117682563D01*
X128410500Y-117568677D01*
X128410499Y-116431070D01*
X128430184Y-116364032D01*
X128460100Y-116331870D01*
X128559855Y-116257060D01*
X128595479Y-116218459D01*
X128612727Y-116199769D01*
X128683696Y-116122868D01*
X128781198Y-115968476D01*
X128810892Y-115894399D01*
X128854107Y-115839498D01*
X128920144Y-115816676D01*
X128988037Y-115833179D01*
X129013670Y-115852857D01*
X129160858Y-116000045D01*
X129194397Y-116023529D01*
X129347266Y-116130568D01*
X129553504Y-116226739D01*
X129773308Y-116285635D01*
X129924905Y-116298898D01*
X129999998Y-116305468D01*
X130000000Y-116305468D01*
X130000002Y-116305468D01*
X130075095Y-116298898D01*
X130226692Y-116285635D01*
X130446496Y-116226739D01*
X130652734Y-116130568D01*
X130839139Y-116000047D01*
X131000047Y-115839139D01*
X131130568Y-115652734D01*
X131226739Y-115446496D01*
X131285635Y-115226692D01*
X131305468Y-115000000D01*
X131305140Y-114996255D01*
X131289458Y-114817003D01*
X131285635Y-114773308D01*
X131226739Y-114553504D01*
X131130568Y-114347266D01*
X131000047Y-114160861D01*
X131000045Y-114160858D01*
X130839141Y-113999954D01*
X130652734Y-113869432D01*
X130652732Y-113869431D01*
X130446497Y-113773261D01*
X130446488Y-113773258D01*
X130226697Y-113714366D01*
X130226693Y-113714365D01*
X130226692Y-113714365D01*
X130226691Y-113714364D01*
X130226686Y-113714364D01*
X130000002Y-113694532D01*
X129999998Y-113694532D01*
X129773313Y-113714364D01*
X129773302Y-113714366D01*
X129553511Y-113773258D01*
X129553502Y-113773261D01*
X129347267Y-113869431D01*
X129347265Y-113869432D01*
X129160858Y-113999954D01*
X128999954Y-114160858D01*
X128976075Y-114194962D01*
X128921498Y-114238587D01*
X128852000Y-114245781D01*
X128789645Y-114214258D01*
X128754231Y-114154029D01*
X128750500Y-114123839D01*
X128750500Y-113492107D01*
X128750507Y-113491986D01*
X128750506Y-113483894D01*
X128750507Y-113483892D01*
X128750504Y-113451753D01*
X128767438Y-113389189D01*
X128783692Y-113361370D01*
X128783692Y-113361369D01*
X128787263Y-113355258D01*
X128788100Y-113353576D01*
X128796350Y-113339421D01*
X128858422Y-113167699D01*
X128888382Y-112987578D01*
X128885241Y-112805010D01*
X128885240Y-112805006D01*
X128849104Y-112626032D01*
X128849102Y-112626022D01*
X128835397Y-112591835D01*
X128781163Y-112456540D01*
X128683663Y-112302154D01*
X128559828Y-112167967D01*
X128559827Y-112167966D01*
X128559826Y-112167965D01*
X128459604Y-112092805D01*
X128417781Y-112036835D01*
X128410000Y-111993602D01*
X128410000Y-111862500D01*
X127624000Y-111862500D01*
X127556961Y-111842815D01*
X127511206Y-111790011D01*
X127500000Y-111738500D01*
X127500000Y-111612500D01*
X127374000Y-111612500D01*
X127306961Y-111592815D01*
X127261206Y-111540011D01*
X127250000Y-111488500D01*
X127250000Y-111362500D01*
X127750000Y-111362500D01*
X128410000Y-111362500D01*
X128410000Y-110856353D01*
X128395020Y-110742569D01*
X128395018Y-110742564D01*
X128336378Y-110600993D01*
X128336378Y-110600992D01*
X128243086Y-110479413D01*
X128121506Y-110386121D01*
X127979935Y-110327481D01*
X127979930Y-110327479D01*
X127866147Y-110312500D01*
X127750000Y-110312500D01*
X127750000Y-111362500D01*
X127250000Y-111362500D01*
X127250000Y-110312500D01*
X127133853Y-110312500D01*
X127020069Y-110327479D01*
X127020064Y-110327481D01*
X126878493Y-110386121D01*
X126878489Y-110386123D01*
X126825895Y-110426480D01*
X126760726Y-110451673D01*
X126692281Y-110437634D01*
X126674924Y-110426479D01*
X126621762Y-110385687D01*
X126480063Y-110326993D01*
X126480061Y-110326992D01*
X126366177Y-110312000D01*
X125633821Y-110312000D01*
X125519945Y-110326991D01*
X125519937Y-110326993D01*
X125378237Y-110385687D01*
X125256556Y-110479056D01*
X125163187Y-110600737D01*
X125104493Y-110742436D01*
X125104492Y-110742438D01*
X125089500Y-110856322D01*
X125089500Y-110888000D01*
X125069815Y-110955039D01*
X125017011Y-111000794D01*
X124965500Y-111012000D01*
X117506169Y-111012000D01*
X117506153Y-111011999D01*
X117498557Y-111011999D01*
X117340443Y-111011999D01*
X117233087Y-111040765D01*
X117187710Y-111052924D01*
X117187709Y-111052925D01*
X117137596Y-111081859D01*
X117137595Y-111081860D01*
X117095225Y-111106322D01*
X117050785Y-111131979D01*
X117050782Y-111131981D01*
X116938978Y-111243786D01*
X112199769Y-115982994D01*
X112138446Y-116016479D01*
X112068754Y-116011495D01*
X112012821Y-115969623D01*
X111988404Y-115904159D01*
X112003256Y-115835886D01*
X112010502Y-115824206D01*
X112130568Y-115652734D01*
X112226739Y-115446496D01*
X112285635Y-115226692D01*
X112305468Y-115000000D01*
X112305140Y-114996255D01*
X112289458Y-114817003D01*
X112285635Y-114773308D01*
X112226739Y-114553504D01*
X112130568Y-114347266D01*
X112000047Y-114160861D01*
X112000045Y-114160858D01*
X111839141Y-113999954D01*
X111652734Y-113869432D01*
X111652732Y-113869431D01*
X111446497Y-113773261D01*
X111446488Y-113773258D01*
X111226697Y-113714366D01*
X111226693Y-113714365D01*
X111226692Y-113714365D01*
X111226691Y-113714364D01*
X111226686Y-113714364D01*
X111000002Y-113694532D01*
X110999998Y-113694532D01*
X110773313Y-113714364D01*
X110773302Y-113714366D01*
X110553511Y-113773258D01*
X110553502Y-113773261D01*
X110347267Y-113869431D01*
X110347265Y-113869432D01*
X110160858Y-113999954D01*
X109999954Y-114160858D01*
X109869432Y-114347265D01*
X109869431Y-114347267D01*
X109773261Y-114553502D01*
X109773258Y-114553511D01*
X109714366Y-114773302D01*
X109714364Y-114773313D01*
X109694532Y-114999998D01*
X109694532Y-115000001D01*
X109714364Y-115226686D01*
X109714366Y-115226697D01*
X109773258Y-115446488D01*
X109773261Y-115446497D01*
X109869431Y-115652732D01*
X109869432Y-115652734D01*
X109999954Y-115839141D01*
X110160858Y-116000045D01*
X110194397Y-116023529D01*
X110347266Y-116130568D01*
X110473669Y-116189511D01*
X110551100Y-116225618D01*
X110603539Y-116271791D01*
X110622691Y-116338984D01*
X110602475Y-116405865D01*
X110549310Y-116451200D01*
X110498695Y-116462000D01*
X109004872Y-116462000D01*
X108937833Y-116442315D01*
X108892078Y-116389511D01*
X108882134Y-116320353D01*
X108900028Y-116271790D01*
X108909586Y-116256653D01*
X108933697Y-116218475D01*
X109001640Y-116048983D01*
X109037779Y-115869992D01*
X109040920Y-115687416D01*
X109010958Y-115507288D01*
X109010085Y-115504872D01*
X108948884Y-115335561D01*
X108941699Y-115323233D01*
X108940481Y-115321142D01*
X108939828Y-115319831D01*
X108919942Y-115285805D01*
X108902999Y-115223237D01*
X108902999Y-113742107D01*
X108903006Y-113741986D01*
X108903005Y-113733894D01*
X108903006Y-113733892D01*
X108903002Y-113701756D01*
X108919936Y-113639192D01*
X108936191Y-113611370D01*
X108936192Y-113611366D01*
X108939788Y-113605211D01*
X108940610Y-113603559D01*
X108948850Y-113589422D01*
X109010921Y-113417700D01*
X109040882Y-113237579D01*
X109037741Y-113055010D01*
X109037741Y-113055008D01*
X109001605Y-112876033D01*
X109001602Y-112876023D01*
X108933662Y-112706541D01*
X108933662Y-112706540D01*
X108836166Y-112552158D01*
X108836157Y-112552146D01*
X108712331Y-112417970D01*
X108627894Y-112354647D01*
X108612101Y-112342803D01*
X108570280Y-112286834D01*
X108562499Y-112243601D01*
X108562499Y-112112500D01*
X107776499Y-112112500D01*
X107709460Y-112092815D01*
X107663705Y-112040011D01*
X107652499Y-111988500D01*
X107652499Y-111736500D01*
X107672184Y-111669461D01*
X107724988Y-111623706D01*
X107776499Y-111612500D01*
X108562499Y-111612500D01*
X108562499Y-111106353D01*
X108547519Y-110992569D01*
X108547517Y-110992564D01*
X108488877Y-110850993D01*
X108488877Y-110850992D01*
X108395583Y-110729411D01*
X108304027Y-110659156D01*
X108262824Y-110602728D01*
X108258670Y-110532982D01*
X108291831Y-110473103D01*
X109440316Y-109324619D01*
X109501639Y-109291134D01*
X109527997Y-109288300D01*
X121866931Y-109288300D01*
X121866947Y-109288301D01*
X121874543Y-109288301D01*
X122032654Y-109288301D01*
X122032657Y-109288301D01*
X122185385Y-109247377D01*
X122235504Y-109218439D01*
X122322316Y-109168320D01*
X122434120Y-109056516D01*
X122434120Y-109056514D01*
X122444328Y-109046307D01*
X122444329Y-109046304D01*
X126497245Y-104993389D01*
X129379500Y-104993389D01*
X129379500Y-105166611D01*
X129406598Y-105337701D01*
X129460127Y-105502445D01*
X129538768Y-105656788D01*
X129640586Y-105796928D01*
X129763072Y-105919414D01*
X129903212Y-106021232D01*
X130057555Y-106099873D01*
X130222299Y-106153402D01*
X130393389Y-106180500D01*
X130393390Y-106180500D01*
X130566610Y-106180500D01*
X130566611Y-106180500D01*
X130737701Y-106153402D01*
X130902445Y-106099873D01*
X131056788Y-106021232D01*
X131196928Y-105919414D01*
X131319414Y-105796928D01*
X131421232Y-105656788D01*
X131499873Y-105502445D01*
X131553402Y-105337701D01*
X131580500Y-105166611D01*
X131580500Y-104993389D01*
X131570854Y-104932486D01*
X133309500Y-104932486D01*
X133309500Y-105227513D01*
X133341571Y-105471113D01*
X133348007Y-105519993D01*
X133422212Y-105796930D01*
X133424361Y-105804951D01*
X133424364Y-105804961D01*
X133537254Y-106077500D01*
X133537258Y-106077510D01*
X133684761Y-106332993D01*
X133864352Y-106567040D01*
X133864358Y-106567047D01*
X134072952Y-106775641D01*
X134072959Y-106775647D01*
X134307006Y-106955238D01*
X134562489Y-107102741D01*
X134562490Y-107102741D01*
X134562493Y-107102743D01*
X134835048Y-107215639D01*
X135120007Y-107291993D01*
X135412494Y-107330500D01*
X135412501Y-107330500D01*
X135707499Y-107330500D01*
X135707506Y-107330500D01*
X135999993Y-107291993D01*
X136284952Y-107215639D01*
X136557507Y-107102743D01*
X136812994Y-106955238D01*
X137047042Y-106775646D01*
X137255646Y-106567042D01*
X137435238Y-106332994D01*
X137582743Y-106077507D01*
X137695639Y-105804952D01*
X137771993Y-105519993D01*
X137810500Y-105227506D01*
X137810500Y-104993389D01*
X139539500Y-104993389D01*
X139539500Y-105166611D01*
X139566598Y-105337701D01*
X139620127Y-105502445D01*
X139698768Y-105656788D01*
X139800586Y-105796928D01*
X139923072Y-105919414D01*
X140063212Y-106021232D01*
X140217555Y-106099873D01*
X140382299Y-106153402D01*
X140553389Y-106180500D01*
X140553390Y-106180500D01*
X140726610Y-106180500D01*
X140726611Y-106180500D01*
X140897701Y-106153402D01*
X141062445Y-106099873D01*
X141216788Y-106021232D01*
X141356928Y-105919414D01*
X141479414Y-105796928D01*
X141581232Y-105656788D01*
X141659873Y-105502445D01*
X141713402Y-105337701D01*
X141740500Y-105166611D01*
X141740500Y-104993389D01*
X141713402Y-104822299D01*
X141659873Y-104657555D01*
X141581232Y-104503212D01*
X141479414Y-104363072D01*
X141356928Y-104240586D01*
X141216788Y-104138768D01*
X141062445Y-104060127D01*
X140897701Y-104006598D01*
X140897699Y-104006597D01*
X140897698Y-104006597D01*
X140766271Y-103985781D01*
X140726611Y-103979500D01*
X140553389Y-103979500D01*
X140513728Y-103985781D01*
X140382302Y-104006597D01*
X140217552Y-104060128D01*
X140063211Y-104138768D01*
X139983256Y-104196859D01*
X139923072Y-104240586D01*
X139923070Y-104240588D01*
X139923069Y-104240588D01*
X139800588Y-104363069D01*
X139800588Y-104363070D01*
X139800586Y-104363072D01*
X139756859Y-104423256D01*
X139698768Y-104503211D01*
X139620128Y-104657552D01*
X139566597Y-104822302D01*
X139549146Y-104932486D01*
X139539500Y-104993389D01*
X137810500Y-104993389D01*
X137810500Y-104932494D01*
X137771993Y-104640007D01*
X137695639Y-104355048D01*
X137582743Y-104082493D01*
X137518064Y-103970466D01*
X137435238Y-103827006D01*
X137255647Y-103592959D01*
X137255641Y-103592952D01*
X137047047Y-103384358D01*
X137047040Y-103384352D01*
X136812993Y-103204761D01*
X136557510Y-103057258D01*
X136557500Y-103057254D01*
X136284961Y-102944364D01*
X136284954Y-102944362D01*
X136284952Y-102944361D01*
X135999993Y-102868007D01*
X135951113Y-102861571D01*
X135707513Y-102829500D01*
X135707506Y-102829500D01*
X135412494Y-102829500D01*
X135412486Y-102829500D01*
X135134085Y-102866153D01*
X135120007Y-102868007D01*
X134835048Y-102944361D01*
X134835038Y-102944364D01*
X134562499Y-103057254D01*
X134562489Y-103057258D01*
X134307006Y-103204761D01*
X134072959Y-103384352D01*
X134072952Y-103384358D01*
X133864358Y-103592952D01*
X133864352Y-103592959D01*
X133684761Y-103827006D01*
X133537258Y-104082489D01*
X133537254Y-104082499D01*
X133424364Y-104355038D01*
X133424361Y-104355048D01*
X133348008Y-104640004D01*
X133348006Y-104640015D01*
X133309500Y-104932486D01*
X131570854Y-104932486D01*
X131553402Y-104822299D01*
X131499873Y-104657555D01*
X131421232Y-104503212D01*
X131319414Y-104363072D01*
X131261232Y-104304890D01*
X131227747Y-104243567D01*
X131232731Y-104173875D01*
X131274603Y-104117942D01*
X131340067Y-104093525D01*
X131377856Y-104096634D01*
X131498852Y-104125683D01*
X131750000Y-104145449D01*
X132001148Y-104125683D01*
X132246111Y-104066873D01*
X132478859Y-103970466D01*
X132693659Y-103838836D01*
X132885224Y-103675224D01*
X133048836Y-103483659D01*
X133180466Y-103268859D01*
X133276873Y-103036111D01*
X133335683Y-102791148D01*
X133355449Y-102540000D01*
X133335683Y-102288852D01*
X133276873Y-102043889D01*
X133180466Y-101811141D01*
X133180466Y-101811140D01*
X133048839Y-101596346D01*
X133048838Y-101596343D01*
X132907165Y-101430466D01*
X132885224Y-101404776D01*
X132758571Y-101296604D01*
X132693656Y-101241161D01*
X132693653Y-101241160D01*
X132478859Y-101109533D01*
X132246110Y-101013126D01*
X132001151Y-100954317D01*
X131750000Y-100934551D01*
X131498848Y-100954317D01*
X131253889Y-101013126D01*
X131021140Y-101109533D01*
X130806346Y-101241160D01*
X130806343Y-101241161D01*
X130614776Y-101404776D01*
X130451161Y-101596343D01*
X130451160Y-101596346D01*
X130319533Y-101811140D01*
X130223126Y-102043889D01*
X130164317Y-102288848D01*
X130144551Y-102540000D01*
X130164317Y-102791151D01*
X130223126Y-103036110D01*
X130319533Y-103268859D01*
X130451160Y-103483653D01*
X130451161Y-103483656D01*
X130451164Y-103483659D01*
X130614776Y-103675224D01*
X130728783Y-103772595D01*
X130766976Y-103831102D01*
X130767474Y-103900970D01*
X130730121Y-103960016D01*
X130666774Y-103989494D01*
X130628854Y-103989358D01*
X130566611Y-103979500D01*
X130393389Y-103979500D01*
X130353728Y-103985781D01*
X130222302Y-104006597D01*
X130057552Y-104060128D01*
X129903211Y-104138768D01*
X129823256Y-104196859D01*
X129763072Y-104240586D01*
X129763070Y-104240588D01*
X129763069Y-104240588D01*
X129640588Y-104363069D01*
X129640588Y-104363070D01*
X129640586Y-104363072D01*
X129596859Y-104423256D01*
X129538768Y-104503211D01*
X129460128Y-104657552D01*
X129406597Y-104822302D01*
X129389146Y-104932486D01*
X129379500Y-104993389D01*
X126497245Y-104993389D01*
X132372216Y-99118419D01*
X132433539Y-99084934D01*
X132459897Y-99082100D01*
X136563960Y-99082100D01*
X136630999Y-99101785D01*
X136676754Y-99154589D01*
X136686698Y-99223747D01*
X136671254Y-99266553D01*
X136671744Y-99266803D01*
X136669757Y-99270701D01*
X136669692Y-99270883D01*
X136669533Y-99271142D01*
X136573126Y-99503889D01*
X136514317Y-99748848D01*
X136494551Y-100000000D01*
X136514317Y-100251151D01*
X136573126Y-100496110D01*
X136669533Y-100728859D01*
X136801160Y-100943653D01*
X136801161Y-100943656D01*
X136856604Y-101008571D01*
X136964776Y-101135224D01*
X137088811Y-101241160D01*
X137156343Y-101298838D01*
X137156346Y-101298839D01*
X137371140Y-101430466D01*
X137603889Y-101526873D01*
X137848852Y-101585683D01*
X138100000Y-101605449D01*
X138351148Y-101585683D01*
X138596111Y-101526873D01*
X138828859Y-101430466D01*
X139043659Y-101298836D01*
X139235224Y-101135224D01*
X139398836Y-100943659D01*
X139530466Y-100728859D01*
X139626873Y-100496111D01*
X139685683Y-100251148D01*
X139705449Y-100000000D01*
X139685683Y-99748852D01*
X139626873Y-99503889D01*
X139530466Y-99271140D01*
X139398839Y-99056346D01*
X139398838Y-99056343D01*
X139361875Y-99013066D01*
X139235224Y-98864776D01*
X139181927Y-98819256D01*
X139142970Y-98785983D01*
X139104777Y-98727476D01*
X139104279Y-98657608D01*
X139135819Y-98604014D01*
X141881806Y-95858028D01*
X141881811Y-95858024D01*
X141892014Y-95847820D01*
X141892016Y-95847820D01*
X142003820Y-95736016D01*
X142082045Y-95600524D01*
X142082064Y-95600506D01*
X142082058Y-95600503D01*
X142082184Y-95600283D01*
X142082877Y-95599085D01*
X142123800Y-95446358D01*
X142123800Y-95288243D01*
X142123800Y-89031574D01*
X142143485Y-88964535D01*
X142196289Y-88918780D01*
X142265447Y-88908836D01*
X142286104Y-88913639D01*
X142358757Y-88937246D01*
X142568713Y-88970500D01*
X142568714Y-88970500D01*
X144681286Y-88970500D01*
X144681287Y-88970500D01*
X144891243Y-88937246D01*
X145093412Y-88871557D01*
X145282816Y-88775051D01*
X145397950Y-88691402D01*
X145454786Y-88650109D01*
X145454788Y-88650106D01*
X145454792Y-88650104D01*
X145605104Y-88499792D01*
X145605106Y-88499788D01*
X145605109Y-88499786D01*
X145730048Y-88327820D01*
X145730047Y-88327820D01*
X145730051Y-88327816D01*
X145826557Y-88138412D01*
X145892246Y-87936243D01*
X145925500Y-87726287D01*
X145925500Y-87513713D01*
X145892246Y-87303757D01*
X145826557Y-87101588D01*
X145730051Y-86912184D01*
X145730049Y-86912181D01*
X145730048Y-86912179D01*
X145605109Y-86740213D01*
X145454786Y-86589890D01*
X145282820Y-86464951D01*
X145282115Y-86464591D01*
X145274054Y-86460485D01*
X145223259Y-86412512D01*
X145206463Y-86344692D01*
X145228999Y-86278556D01*
X145274054Y-86239515D01*
X145282816Y-86235051D01*
X145330372Y-86200500D01*
X145454786Y-86110109D01*
X145454788Y-86110106D01*
X145454792Y-86110104D01*
X145605104Y-85959792D01*
X145605106Y-85959788D01*
X145605109Y-85959786D01*
X145730048Y-85787820D01*
X145730047Y-85787820D01*
X145730051Y-85787816D01*
X145826557Y-85598412D01*
X145892246Y-85396243D01*
X145925500Y-85186287D01*
X145925500Y-84973713D01*
X145892246Y-84763757D01*
X145826557Y-84561588D01*
X145730051Y-84372184D01*
X145730049Y-84372181D01*
X145730048Y-84372179D01*
X145605109Y-84200213D01*
X145454786Y-84049890D01*
X145282820Y-83924951D01*
X145282115Y-83924591D01*
X145274054Y-83920485D01*
X145223259Y-83872512D01*
X145206463Y-83804692D01*
X145228999Y-83738556D01*
X145274054Y-83699515D01*
X145282816Y-83695051D01*
X145304789Y-83679086D01*
X145454786Y-83570109D01*
X145454788Y-83570106D01*
X145454792Y-83570104D01*
X145605104Y-83419792D01*
X145605106Y-83419788D01*
X145605109Y-83419786D01*
X145692678Y-83299255D01*
X145730051Y-83247816D01*
X145756342Y-83196216D01*
X145804316Y-83145421D01*
X145834727Y-83132738D01*
X145958485Y-83099577D01*
X146008604Y-83070639D01*
X146095416Y-83020520D01*
X146207220Y-82908716D01*
X146274320Y-82841616D01*
X146353377Y-82704684D01*
X146363720Y-82666083D01*
X146394301Y-82551957D01*
X146394301Y-82393842D01*
X146394301Y-82386247D01*
X146394300Y-82386229D01*
X146394300Y-76911545D01*
X146394300Y-76911543D01*
X146353377Y-76758816D01*
X146298124Y-76663114D01*
X146274324Y-76621890D01*
X146274321Y-76621886D01*
X146274320Y-76621884D01*
X146162516Y-76510080D01*
X146162515Y-76510079D01*
X146158185Y-76505749D01*
X146158174Y-76505739D01*
X145640992Y-75988557D01*
X145607507Y-75927234D01*
X145612491Y-75857542D01*
X145640997Y-75813190D01*
X145654719Y-75799469D01*
X145654721Y-75799466D01*
X145779620Y-75627557D01*
X145876095Y-75438217D01*
X145941757Y-75236129D01*
X145941757Y-75236126D01*
X145952231Y-75170000D01*
X143749000Y-75170000D01*
X143681961Y-75150315D01*
X143636206Y-75097511D01*
X143625000Y-75046000D01*
X143625000Y-74794000D01*
X143644685Y-74726961D01*
X143697489Y-74681206D01*
X143749000Y-74670000D01*
X145952231Y-74670000D01*
X145941757Y-74603873D01*
X145941757Y-74603870D01*
X145876095Y-74401782D01*
X145779620Y-74212442D01*
X145654727Y-74040540D01*
X145654723Y-74040535D01*
X145504464Y-73890276D01*
X145504459Y-73890272D01*
X145332555Y-73765377D01*
X145323500Y-73760763D01*
X145272706Y-73712788D01*
X145255912Y-73644966D01*
X145278451Y-73578832D01*
X145323508Y-73539793D01*
X145332816Y-73535051D01*
X145419147Y-73472328D01*
X145504786Y-73410109D01*
X145504788Y-73410106D01*
X145504792Y-73410104D01*
X145655104Y-73259792D01*
X145655106Y-73259788D01*
X145655109Y-73259786D01*
X145780048Y-73087820D01*
X145780047Y-73087820D01*
X145780051Y-73087816D01*
X145876557Y-72898412D01*
X145942246Y-72696243D01*
X145975500Y-72486287D01*
X145975500Y-72273713D01*
X145942246Y-72063757D01*
X145876557Y-71861588D01*
X145780051Y-71672184D01*
X145780049Y-71672181D01*
X145780048Y-71672179D01*
X145655109Y-71500213D01*
X145504786Y-71349890D01*
X145332820Y-71224951D01*
X145143414Y-71128444D01*
X145143413Y-71128443D01*
X145143412Y-71128443D01*
X144941243Y-71062754D01*
X144941241Y-71062753D01*
X144941240Y-71062753D01*
X144779957Y-71037208D01*
X144731287Y-71029500D01*
X142518713Y-71029500D01*
X142470042Y-71037208D01*
X142308760Y-71062753D01*
X142106585Y-71128444D01*
X141917179Y-71224951D01*
X141745213Y-71349890D01*
X141594890Y-71500213D01*
X141469951Y-71672179D01*
X141373444Y-71861585D01*
X141307753Y-72063760D01*
X141274500Y-72273713D01*
X141274500Y-72486286D01*
X141307753Y-72696239D01*
X141373444Y-72898414D01*
X141469951Y-73087820D01*
X141594890Y-73259786D01*
X141745213Y-73410109D01*
X141917179Y-73535048D01*
X141917181Y-73535049D01*
X141917184Y-73535051D01*
X141926493Y-73539794D01*
X141977290Y-73587766D01*
X141994087Y-73655587D01*
X141971552Y-73721722D01*
X141926502Y-73760762D01*
X141917443Y-73765378D01*
X141745540Y-73890272D01*
X141745535Y-73890276D01*
X141595276Y-74040535D01*
X141595272Y-74040540D01*
X141470377Y-74212444D01*
X141411291Y-74328405D01*
X141363316Y-74379200D01*
X141295495Y-74395995D01*
X141229360Y-74373457D01*
X141213126Y-74359790D01*
X136954790Y-70101455D01*
X136954788Y-70101452D01*
X136835917Y-69982581D01*
X136835916Y-69982580D01*
X136749104Y-69932460D01*
X136749104Y-69932459D01*
X136749100Y-69932458D01*
X136698985Y-69903523D01*
X136546257Y-69862599D01*
X136388143Y-69862599D01*
X136380547Y-69862599D01*
X136380531Y-69862600D01*
X98342657Y-69862600D01*
X98184542Y-69862600D01*
X98031815Y-69903523D01*
X98031814Y-69903523D01*
X98031812Y-69903524D01*
X98031809Y-69903525D01*
X97981696Y-69932459D01*
X97981695Y-69932460D01*
X97938289Y-69957520D01*
X97894885Y-69982579D01*
X97894882Y-69982581D01*
X97783078Y-70094386D01*
X89373416Y-78504047D01*
X89312093Y-78537532D01*
X89242401Y-78532548D01*
X89186468Y-78490676D01*
X89169551Y-78459693D01*
X89169394Y-78459273D01*
X89168796Y-78457669D01*
X89168794Y-78457666D01*
X89168793Y-78457664D01*
X89082547Y-78342455D01*
X89082544Y-78342452D01*
X88967335Y-78256206D01*
X88967328Y-78256202D01*
X88832482Y-78205908D01*
X88832483Y-78205908D01*
X88772883Y-78199501D01*
X88772881Y-78199500D01*
X88772873Y-78199500D01*
X88772864Y-78199500D01*
X86677129Y-78199500D01*
X86677123Y-78199501D01*
X86617516Y-78205908D01*
X86482671Y-78256202D01*
X86482664Y-78256206D01*
X86367455Y-78342452D01*
X86367452Y-78342455D01*
X86281206Y-78457664D01*
X86281202Y-78457671D01*
X86230908Y-78592517D01*
X86224501Y-78652116D01*
X86224500Y-78652135D01*
X86224500Y-80747870D01*
X86224501Y-80747876D01*
X86230908Y-80807483D01*
X86281202Y-80942328D01*
X86281206Y-80942335D01*
X86367452Y-81057544D01*
X86367455Y-81057547D01*
X86483986Y-81144783D01*
X86525857Y-81200717D01*
X86530841Y-81270408D01*
X86513484Y-81311870D01*
X86401267Y-81483631D01*
X86301412Y-81711282D01*
X86240387Y-81952261D01*
X86240385Y-81952270D01*
X86219859Y-82199994D01*
X86219859Y-82200005D01*
X86240385Y-82447729D01*
X86240387Y-82447738D01*
X86301412Y-82688717D01*
X86401267Y-82916367D01*
X86501562Y-83069881D01*
X87242036Y-82329406D01*
X87259075Y-82392993D01*
X87324901Y-82507007D01*
X87417993Y-82600099D01*
X87532007Y-82665925D01*
X87595589Y-82682962D01*
X86849101Y-83429451D01*
X86838481Y-83476151D01*
X86806376Y-83513556D01*
X86705258Y-83592260D01*
X86536833Y-83775217D01*
X86400826Y-83983393D01*
X86300936Y-84211118D01*
X86239892Y-84452175D01*
X86239890Y-84452187D01*
X86219357Y-84699994D01*
X78000500Y-84699994D01*
X78000500Y-68124500D01*
X78020185Y-68057461D01*
X78072989Y-68011706D01*
X78124500Y-68000500D01*
X155375500Y-68000500D01*
X155442539Y-68020185D01*
G37*
%TD.AperFunction*%
%TD*%
M02*
