M48
; DRILL file {KiCad 8.0.9} date 2026-07-09T20:51:10+0530
; FORMAT={-:-/ absolute / inch / decimal}
; #@! TF.CreationDate,2026-07-09T20:51:10+05:30
; #@! TF.GenerationSoftware,Kicad,Pcbnew,8.0.9
; #@! TF.FileFunction,Plated,1,2,PTH
FMAT,2
INCH
; #@! TA.AperFunction,Plated,PTH,ViaDrill
T1C0.0118
; #@! TA.AperFunction,Plated,PTH,ComponentDrill
T2C0.0315
; #@! TA.AperFunction,Plated,PTH,ComponentDrill
T3C0.0394
; #@! TA.AperFunction,Plated,PTH,ComponentDrill
T4C0.0591
%
G90
G05
T1
X3.7402Y-2.8346
X3.7992Y-2.8937
X4.0945Y-5.2559
X4.1384Y-5.4679
X4.8373Y-4.5204
X4.8621Y-4.6826
X4.9833Y-4.6912
T2
X3.6189Y-4.5276
X3.6189Y-5.2756
X3.6764Y-3.7402
X3.9764Y-3.7402
X4.0189Y-4.5276
X4.0189Y-5.2756
X4.3638Y-5.2756
X4.3701Y-4.5276
X4.4094Y-3.7402
X4.7094Y-3.7402
X4.7638Y-5.2756
X4.7701Y-4.5276
X5.115Y-5.2756
X5.1181Y-4.5276
X5.2043Y-3.7402
X5.5043Y-3.7402
X5.515Y-5.2756
X5.5181Y-4.5276
T3
X3.4537Y-3.1378
X3.4537Y-3.2362
X3.4537Y-3.3346
X4.0246Y-3.1378
X4.0246Y-3.3346
X4.253Y-3.1575
X4.253Y-3.2575
X4.253Y-3.3575
X4.253Y-3.4575
X5.0148Y-2.8496
X5.0148Y-2.9496
X5.0148Y-3.0496
X5.0148Y-3.1496
X5.0148Y-3.2496
X5.0148Y-3.3496
X5.0148Y-3.4496
X5.6152Y-2.8496
X5.6152Y-2.9496
X5.6152Y-3.0496
X5.6152Y-3.1496
X5.6152Y-3.2496
X5.6152Y-3.3496
X5.6152Y-3.4496
T4
X3.687Y-4.037
X3.687Y-4.787
X3.687Y-5.537
X3.937Y-3.937
X3.937Y-4.687
X3.937Y-5.437
X4.437Y-4.037
X4.437Y-4.787
X4.437Y-5.537
X4.687Y-3.937
X4.687Y-4.687
X4.687Y-5.437
X5.187Y-4.037
X5.187Y-4.787
X5.1988Y-5.537
X5.437Y-3.937
X5.437Y-4.687
X5.4488Y-5.437
T4
G00X3.7234Y-3.0157
M15
G01X3.7746Y-3.0157
M16
G05
G00X3.7234Y-3.4567
M15
G01X3.7746Y-3.4567
M16
G05
M30
