M48
; DRILL file {KiCad 8.0.9} date 2026-07-09T20:51:10+0530
; FORMAT={-:-/ absolute / inch / decimal}
; #@! TF.CreationDate,2026-07-09T20:51:10+05:30
; #@! TF.GenerationSoftware,Kicad,Pcbnew,8.0.9
; #@! TF.FileFunction,NonPlated,1,2,NPTH
FMAT,2
INCH
; #@! TA.AperFunction,NonPlated,NPTH,ComponentDrill
T1C0.0669
; #@! TA.AperFunction,NonPlated,NPTH,ComponentDrill
T2C0.1575
%
G90
G05
T1
X3.637Y-4.137
X3.637Y-4.887
X3.637Y-5.637
X4.037Y-4.137
X4.037Y-4.887
X4.037Y-5.637
X4.387Y-4.137
X4.387Y-4.887
X4.387Y-5.637
X4.787Y-4.137
X4.787Y-4.887
X4.787Y-5.637
X5.137Y-4.137
X5.137Y-4.887
X5.1488Y-5.637
X5.537Y-4.137
X5.537Y-4.887
X5.5488Y-5.637
T2
X3.837Y-4.137
X3.837Y-4.887
X3.837Y-5.637
X4.587Y-4.137
X4.587Y-4.887
X4.587Y-5.637
X5.337Y-4.137
X5.337Y-4.887
X5.3488Y-5.637
M30
